# Blender 4.5.4 LTS
# www.blender.org
mtllib sm_roadcrosswalk.mtl
o RoadCrosswalk
v -4.000000 0.000000 4.000000
v 4.000000 0.000000 4.000000
v -4.000000 0.000000 -4.000000
v 4.000000 0.000000 -4.000000
v -4.000000 -1.000000 -4.000000
v -4.000000 -1.000000 4.000000
v 4.000000 -1.000000 4.000000
v 4.000000 -1.000000 -4.000000
vn -0.0000 1.0000 -0.0000
vn -0.0000 -1.0000 -0.0000
vn 1.0000 -0.0000 -0.0000
vn -1.0000 -0.0000 -0.0000
vn -0.0000 -0.0000 -1.0000
vn -0.0000 -0.0000 1.0000
vt 0.000000 0.000000
vt 1.000000 0.000000
vt 1.000000 1.000000
vt 0.000000 1.000000
vt 0.765625 1.000000
vt 0.640625 1.000000
vt 0.640625 0.000000
vt 0.765625 0.000000
vt 1.000000 0.517578
vt 1.000000 0.392578
vt 0.000000 0.392578
vt 0.000000 0.517578
s 0
usemtl RoadCrosswalk
f 1/1/1 2/2/1 4/3/1 3/4/1
usemtl Road
f 6/1/2 5/4/2 8/3/2 7/2/2
f 2/5/3 7/6/3 8/7/3 4/8/3
f 3/8/4 5/7/4 6/6/4 1/5/4
f 4/9/5 8/10/5 5/11/5 3/12/5
f 1/12/6 6/11/6 7/10/6 2/9/6
