# Blender 4.5.4 LTS
# www.blender.org
mtllib sm_sidewalk.mtl
o Sidewalk
v -1.000000 -1.500000 1.000000
v -1.000000 -1.500000 -1.000000
v 1.000000 -1.500000 1.000000
v 1.000000 -1.500000 -1.000000
v -0.962362 0.023847 0.962362
v -1.000000 -0.013791 1.000000
v -0.962362 0.023847 -0.962362
v -1.000000 -0.013791 -1.000000
v 0.962362 0.023847 0.962362
v 1.000000 -0.013791 1.000000
v 0.962362 0.023847 -0.962362
v 1.000000 -0.013791 -1.000000
vn -0.0000 -1.0000 -0.0000
vn -0.7071 0.7071 -0.0000
vn -0.0000 0.7071 -0.7071
vn 0.7071 0.7071 -0.0000
vn -0.0000 0.7071 0.7071
vn -0.0000 -0.0000 1.0000
vn -1.0000 -0.0000 -0.0000
vn -0.0000 1.0000 -0.0000
vn -0.0000 -0.0000 -1.0000
vn 1.0000 -0.0000 -0.0000
vt 0.304660 0.687474
vt 0.695340 0.687474
vt 0.695340 0.296794
vt 0.304660 0.296794
vt 0.312013 0.304147
vt 0.312013 0.680121
vt 0.687987 0.680121
vt 0.687987 0.304147
vt 0.695340 0.286708
vt 0.695340 0.577023
vt 0.304660 0.577023
vt 0.304660 0.286708
s 0
usemtl Sidewalk
f 2/1/1 4/2/1 3/3/1 1/4/1
f 5/5/2 7/6/2 8/1/2 6/4/2
f 7/6/3 11/7/3 12/2/3 8/1/3
f 11/7/4 9/8/4 10/3/4 12/2/4
f 9/8/5 5/5/5 6/4/5 10/3/5
f 3/9/6 10/10/6 6/11/6 1/12/6
f 1/12/7 6/11/7 8/10/7 2/9/7
f 11/7/8 7/6/8 5/5/8 9/8/8
f 2/12/9 8/11/9 12/10/9 4/9/9
f 4/9/10 12/10/10 10/11/10 3/12/10
