# Blender 4.5.4 LTS
# www.blender.org
mtllib sm_grave1.mtl
o Grave1
v -0.500000 0.000000 0.304784
v -0.427502 0.274985 0.232285
v -0.500000 0.000000 -0.304784
v -0.427502 0.274985 -0.232285
v 0.500000 0.000000 0.304784
v 0.427502 0.274985 0.232285
v 0.500000 0.000000 -0.304784
v 0.427502 0.274985 -0.232285
v -0.500000 0.274985 0.304784
v -0.500000 0.274985 -0.304784
v 0.500000 0.274985 -0.304784
v 0.500000 0.274985 0.304784
v -0.343084 0.338356 0.147868
v -0.343084 0.338356 -0.147868
v 0.343084 0.338356 -0.147868
v 0.343084 0.338356 0.147868
v -0.427502 0.338356 0.232285
v -0.427502 0.338356 -0.232285
v 0.427502 0.338356 -0.232285
v 0.427502 0.338356 0.232285
v -0.083914 0.435401 0.083218
v -0.083914 0.435401 -0.083218
v 0.083914 0.435401 -0.083218
v 0.083914 0.435401 0.083218
v -0.343084 0.435401 0.147868
v -0.343084 0.435401 -0.147868
v 0.343084 0.435401 -0.147868
v 0.343084 0.435401 0.147868
v -0.083914 1.165640 0.083218
v -0.083914 1.165640 -0.083218
v 0.083914 1.165640 -0.083218
v 0.083914 1.165640 0.083218
v 0.083914 1.011250 0.083218
v -0.083914 1.011250 0.083218
v -0.083914 1.011250 -0.083218
v 0.083914 1.011250 -0.083218
v -0.083914 0.849785 0.083218
v 0.083914 0.849785 -0.083218
v 0.083914 0.849785 0.083218
v -0.083914 0.849785 -0.083218
v 0.246503 0.849785 0.083218
v 0.246503 1.011250 0.083218
v -0.246503 0.849785 -0.083218
v -0.246503 1.011250 -0.083218
v -0.246503 1.011250 0.083218
v 0.246503 1.011250 -0.083218
v -0.246503 0.849785 0.083218
v 0.246503 0.849785 -0.083218
vn -1.0000 -0.0000 -0.0000
vn -0.0000 -0.0000 -1.0000
vn 1.0000 -0.0000 -0.0000
vn -0.0000 -0.0000 1.0000
vn -0.0000 -1.0000 -0.0000
vn -0.0000 1.0000 -0.0000
vt 0.382776 0.276128
vt 0.382776 0.381891
vt 0.617224 0.381891
vt 0.617224 0.276128
vt 0.307692 0.276128
vt 0.307692 0.381891
vt 0.692308 0.381891
vt 0.692308 0.276128
vt 0.307692 0.617224
vt 0.692308 0.617224
vt 0.692308 0.382776
vt 0.307692 0.382776
vt 0.335576 0.381891
vt 0.664424 0.381891
vt 0.664424 0.406265
vt 0.335576 0.406265
vt 0.335576 0.410659
vt 0.335576 0.589341
vt 0.664424 0.589341
vt 0.664424 0.410659
vt 0.443128 0.406265
vt 0.556872 0.406265
vt 0.556872 0.443590
vt 0.443128 0.443590
vt 0.410659 0.381891
vt 0.589341 0.381891
vt 0.589341 0.406265
vt 0.410659 0.406265
vt 0.368045 0.443128
vt 0.368045 0.556872
vt 0.631955 0.556872
vt 0.631955 0.443128
vt 0.467725 0.665070
vt 0.532275 0.665070
vt 0.532275 0.724451
vt 0.467725 0.724451
vt 0.368045 0.406265
vt 0.631955 0.406265
vt 0.631955 0.443590
vt 0.368045 0.443590
vt 0.467725 0.467993
vt 0.467725 0.532007
vt 0.532275 0.532007
vt 0.532275 0.467993
vt 0.467993 0.665070
vt 0.532007 0.665070
vt 0.532007 0.724451
vt 0.467993 0.724451
vt 0.532275 0.602968
vt 0.594809 0.602968
vt 0.594809 0.665070
vt 0.467725 0.602968
vt 0.405191 0.602968
vt 0.405191 0.665070
vt 0.467725 0.443590
vt 0.532275 0.443590
vt 0.467993 0.443590
vt 0.532007 0.443590
vt 0.532007 0.602968
vt 0.467993 0.602968
vt 0.594809 0.467993
vt 0.594809 0.532007
vt 0.405191 0.467993
vt 0.405191 0.532007
s 0
usemtl Grave
f 1/1/1 9/2/1 10/3/1 3/4/1
f 3/5/2 10/6/2 11/7/2 7/8/2
f 7/4/3 11/3/3 12/2/3 5/1/3
f 5/8/4 12/7/4 9/6/4 1/5/4
f 3/9/5 7/10/5 5/11/5 1/12/5
f 2/13/4 6/14/4 20/15/4 17/16/4
f 2/17/6 4/18/6 10/9/6 9/12/6
f 4/18/6 8/19/6 11/10/6 10/9/6
f 8/19/6 6/20/6 12/11/6 11/10/6
f 6/20/6 2/17/6 9/12/6 12/11/6
f 16/21/3 15/22/3 27/23/3 28/24/3
f 8/14/2 4/13/2 18/16/2 19/15/2
f 6/25/3 8/26/3 19/27/3 20/28/3
f 4/26/1 2/25/1 17/28/1 18/27/1
f 13/29/6 14/30/6 18/18/6 17/17/6
f 14/30/6 15/31/6 19/19/6 18/18/6
f 15/31/6 16/32/6 20/20/6 19/19/6
f 16/32/6 13/29/6 17/17/6 20/20/6
f 34/33/4 33/34/4 32/35/4 29/36/4
f 14/22/1 13/21/1 25/24/1 26/23/1
f 13/37/4 16/38/4 28/39/4 25/40/4
f 15/38/2 14/37/2 26/40/2 27/39/2
f 21/41/6 22/42/6 26/30/6 25/29/6
f 22/42/6 23/43/6 27/31/6 26/30/6
f 23/43/6 24/44/6 28/32/6 27/31/6
f 24/44/6 21/41/6 25/29/6 28/32/6
f 31/43/6 30/42/6 29/41/6 32/44/6
f 36/34/2 35/33/2 30/36/2 31/35/2
f 33/45/3 36/46/3 31/47/3 32/48/3
f 35/46/1 34/45/1 29/48/1 30/47/1
f 33/34/4 39/49/4 41/50/4 42/51/4
f 35/33/2 40/52/2 43/53/2 44/54/2
f 38/49/2 40/52/2 35/33/2 36/34/2
f 37/52/4 39/49/4 33/34/4 34/33/4
f 21/55/4 24/56/4 39/49/4 37/52/4
f 23/56/2 22/55/2 40/52/2 38/49/2
f 24/57/3 23/58/3 38/59/3 39/60/3
f 22/58/1 21/57/1 37/60/1 40/59/1
f 43/59/1 47/60/1 45/45/1 44/46/1
f 41/60/3 48/59/3 46/46/3 42/45/3
f 38/49/2 36/34/2 46/51/2 48/50/2
f 36/43/6 33/44/6 42/61/6 46/62/6
f 39/44/5 38/43/5 48/62/5 41/61/5
f 37/52/4 34/33/4 45/54/4 47/53/4
f 40/42/5 37/41/5 47/63/5 43/64/5
f 34/41/6 35/42/6 44/64/6 45/63/6
