# Blender 4.5.4 LTS
# www.blender.org
mtllib sm_grave3.mtl
o Grave3
v -0.500000 0.000000 0.304784
v -0.316422 0.274985 0.121206
v -0.500000 0.000000 -0.304784
v -0.316422 0.274985 -0.121206
v 0.500000 0.000000 0.304784
v 0.316422 0.274985 0.121206
v 0.500000 0.000000 -0.304784
v 0.316422 0.274985 -0.121206
v -0.500000 0.274985 0.304784
v -0.500000 0.274985 -0.304784
v 0.500000 0.274985 -0.304784
v 0.500000 0.274985 0.304784
v -0.316422 0.934971 0.121206
v -0.316422 0.934971 -0.121206
v 0.316422 0.934971 -0.121206
v 0.316422 0.934971 0.121206
v -0.237317 1.051995 -0.121206
v -0.158211 1.105350 -0.121206
v -0.079106 1.144122 -0.121206
v 0.000000 1.156151 -0.121206
v 0.079106 1.144122 -0.121206
v 0.158211 1.105350 -0.121206
v 0.237317 1.051995 -0.121206
v 0.237317 1.051995 0.121206
v 0.158211 1.105350 0.121206
v 0.079106 1.144122 0.121206
v 0.000000 1.156151 0.121206
v -0.079106 1.144122 0.121206
v -0.158211 1.105350 0.121206
v -0.237317 1.051995 0.121206
vn -1.0000 -0.0000 -0.0000
vn -0.0000 -0.0000 -1.0000
vn 1.0000 -0.0000 -0.0000
vn -0.0000 -0.0000 1.0000
vn -0.0000 -1.0000 -0.0000
vn 0.9562 0.2929 -0.0000
vn -0.0000 1.0000 -0.0000
vn -0.7067 0.7075 -0.0000
vn -0.9562 0.2929 -0.0000
vn 0.7067 0.7075 -0.0000
vn 0.5008 0.8655 -0.0000
vn 0.2987 0.9544 -0.0000
vn -0.2987 0.9544 -0.0000
vn -0.5008 0.8655 -0.0000
vt 0.378087 0.244673
vt 0.378087 0.354667
vt 0.621913 0.354667
vt 0.621913 0.244673
vt 0.300000 0.244673
vt 0.300000 0.354667
vt 0.700000 0.354667
vt 0.700000 0.244673
vt 0.300000 0.621913
vt 0.700000 0.621913
vt 0.700000 0.378087
vt 0.300000 0.378087
vt 0.451518 0.354667
vt 0.548482 0.354667
vt 0.548482 0.618662
vt 0.451518 0.618662
vt 0.373431 0.451518
vt 0.373431 0.548482
vt 0.626569 0.548482
vt 0.626569 0.451518
vt 0.548482 0.665471
vt 0.451518 0.665471
vt 0.373431 0.354667
vt 0.626569 0.354667
vt 0.626569 0.618662
vt 0.594927 0.665471
vt 0.563284 0.686813
vt 0.531642 0.702322
vt 0.500000 0.707134
vt 0.468358 0.702322
vt 0.436716 0.686813
vt 0.405073 0.665471
vt 0.373431 0.618662
vt 0.594927 0.548482
vt 0.563284 0.548482
vt 0.563284 0.451518
vt 0.594927 0.451518
vt 0.531642 0.548482
vt 0.531642 0.451518
vt 0.500000 0.548482
vt 0.500000 0.451518
vt 0.468358 0.548482
vt 0.468358 0.451518
vt 0.436716 0.548482
vt 0.436716 0.451518
vt 0.405073 0.548482
vt 0.405073 0.451518
s 1
usemtl Grave
f 1/1/1 9/2/1 10/3/1 3/4/1
f 3/5/2 10/6/2 11/7/2 7/8/2
f 7/4/3 11/3/3 12/2/3 5/1/3
f 5/8/4 12/7/4 9/6/4 1/5/4
f 3/9/5 7/10/5 5/11/5 1/12/5
f 6/13/3 8/14/3 15/15/6 16/16/6
f 2/17/7 4/18/7 10/9/7 9/12/7
f 4/18/7 8/19/7 11/10/7 10/9/7
f 8/19/7 6/20/7 12/11/7 11/10/7
f 6/20/7 2/17/7 9/12/7 12/11/7
f 17/21/8 14/15/9 13/16/9 30/22/8
f 4/14/1 2/13/1 13/16/9 14/15/9
f 2/23/4 6/24/4 16/25/4 24/26/4 25/27/4 26/28/4 27/29/4 28/30/4 29/31/4 30/32/4 13/33/4
f 8/24/2 4/23/2 14/33/2 17/32/2 18/31/2 19/30/2 20/29/2 21/28/2 22/27/2 23/26/2 15/25/2
f 15/15/6 23/21/10 24/22/10 16/16/6
f 23/34/10 22/35/11 25/36/11 24/37/10
f 22/35/11 21/38/12 26/39/12 25/36/11
f 21/38/12 20/40/7 27/41/7 26/39/12
f 20/40/7 19/42/13 28/43/13 27/41/7
f 19/42/13 18/44/14 29/45/14 28/43/13
f 18/44/14 17/46/8 30/47/8 29/45/14
