# Blender 4.5.4 LTS
# www.blender.org
mtllib Tunnel.mtl
o Tunnel
v -8.000000 -1.000000 4.000000
v -8.000000 5.000000 4.000000
v -8.000000 -1.000000 -4.000000
v -8.000000 5.000000 -4.000000
v 8.000000 -1.000000 4.000000
v 8.000000 5.000000 4.000000
v 8.000000 -1.000000 -4.000000
v 8.000000 5.000000 -4.000000
v 7.000000 -1.000000 -4.000000
v 6.000000 -1.000000 -4.000000
v 5.000000 -1.000000 -4.000000
v 4.000000 -1.000000 -4.000000
v -4.000000 -1.000000 -4.000000
v -5.000000 -1.000000 -4.000000
v -6.000000 -1.000000 -4.000000
v -7.000000 -1.000000 -4.000000
v -7.000000 5.000000 -4.000000
v -6.000000 5.000000 -4.000000
v -5.000000 5.000000 -4.000000
v -4.000000 5.000000 -4.000000
v -3.000000 6.227634 -4.000000
v -2.000000 6.645504 -4.000000
v -1.000000 6.851498 -4.000000
v 0.000000 6.915245 -4.000000
v 1.000000 6.851498 -4.000000
v 2.000000 6.645504 -4.000000
v 3.000000 6.227634 -4.000000
v 4.000000 5.000000 -4.000000
v 5.000000 5.000000 -4.000000
v 6.000000 5.000000 -4.000000
v 7.000000 5.000000 -4.000000
v -7.000000 -1.000000 4.000000
v -6.000000 -1.000000 4.000000
v -5.000000 -1.000000 4.000000
v -4.000000 -1.000000 4.000000
v 4.000000 -1.000000 4.000000
v 5.000000 -1.000000 4.000000
v 6.000000 -1.000000 4.000000
v 7.000000 -1.000000 4.000000
v 7.000000 5.000000 4.000000
v 6.000000 5.000000 4.000000
v 5.000000 5.000000 4.000000
v 4.000000 5.000000 4.000000
v 3.000000 6.227634 4.000000
v 2.000000 6.645504 4.000000
v 1.000000 6.851498 4.000000
v 0.000000 6.915245 4.000000
v -1.000000 6.851498 4.000000
v -2.000000 6.645504 4.000000
v -3.000000 6.227634 4.000000
v -4.000000 5.000000 4.000000
v -5.000000 5.000000 4.000000
v -6.000000 5.000000 4.000000
v -7.000000 5.000000 4.000000
v -3.856514 -1.000000 -4.000000
v -3.856514 -1.000000 4.000000
v 3.856514 -1.000000 -4.000000
v 3.856514 -1.000000 4.000000
v 4.000000 0.000000 4.000000
v 3.695518 1.530734 4.000000
v 3.923141 0.780361 4.000000
v 3.325878 2.222281 4.000000
v 3.000000 2.619365 4.000000
v 3.923141 -0.780361 4.000000
v 2.828427 2.828427 4.000000
v 2.000000 3.444690 4.000000
v 2.222281 3.325878 4.000000
v 1.530734 3.695518 4.000000
v 1.000000 3.856514 4.000000
v 0.780361 3.923141 4.000000
v 0.000000 4.000000 4.000000
v -1.000000 3.856514 4.000000
v -0.780361 3.923141 4.000000
v -1.530734 3.695518 4.000000
v -2.000000 3.444690 4.000000
v -2.222281 3.325878 4.000000
v -3.000000 2.619365 4.000000
v -2.828427 2.828427 4.000000
v -3.325878 2.222281 4.000000
v -3.923141 -0.780361 4.000000
v -4.000000 0.000000 4.000000
v -3.923141 0.780361 4.000000
v -3.695518 1.530734 4.000000
v -4.000000 0.000000 -4.000000
v -3.695518 1.530734 -4.000000
v -3.923141 0.780361 -4.000000
v -3.923141 -0.780361 -4.000000
v -3.325878 2.222281 -4.000000
v -3.000000 2.619365 -4.000000
v -2.828427 2.828427 -4.000000
v -2.000000 3.444690 -4.000000
v -2.222281 3.325878 -4.000000
v -1.530734 3.695518 -4.000000
v -1.000000 3.856514 -4.000000
v -0.780361 3.923141 -4.000000
v 0.000000 4.000000 -4.000000
v 1.000000 3.856514 -4.000000
v 0.780361 3.923141 -4.000000
v 1.530734 3.695518 -4.000000
v 2.000000 3.444690 -4.000000
v 2.222281 3.325878 -4.000000
v 3.000000 2.619365 -4.000000
v 2.828427 2.828427 -4.000000
v 3.325878 2.222281 -4.000000
v 3.695518 1.530734 -4.000000
v 4.000000 0.000000 -4.000000
v 3.923141 -0.780361 -4.000000
v 3.923141 0.780361 -4.000000
vn -1.0000 -0.0000 -0.0000
vn 1.0000 -0.0000 -0.0000
vn -0.0000 -1.0000 -0.0000
vn -0.0000 1.0000 -0.0000
vn 0.7753 0.6316 -0.0000
vn 0.3856 0.9227 -0.0000
vn 0.2018 0.9794 -0.0000
vn 0.0636 0.9980 -0.0000
vn -0.0636 0.9980 -0.0000
vn -0.2018 0.9794 -0.0000
vn -0.3856 0.9227 -0.0000
vn -0.7753 0.6316 -0.0000
vn -0.0000 -0.0000 1.0000
vn -0.0000 -0.0000 -1.0000
vn -0.0980 -0.9952 -0.0000
vn -0.2903 -0.9569 -0.0000
vn -0.4714 -0.8819 -0.0000
vn -0.6344 -0.7730 -0.0000
vn -0.7730 -0.6344 -0.0000
vn -0.8819 -0.4714 -0.0000
vn -0.9569 -0.2903 -0.0000
vn -0.9952 -0.0980 -0.0000
vn -0.9952 0.0980 -0.0000
vn -0.9569 0.2903 -0.0000
vn 0.9569 0.2903 -0.0000
vn 0.9952 0.0980 -0.0000
vn 0.9952 -0.0980 -0.0000
vn 0.9569 -0.2903 -0.0000
vn 0.8819 -0.4714 -0.0000
vn 0.7730 -0.6344 -0.0000
vn 0.6344 -0.7730 -0.0000
vn 0.4714 -0.8819 -0.0000
vn 0.2903 -0.9569 -0.0000
vn 0.0980 -0.9952 -0.0000
vt -0.071429 -0.014199
vt -0.071429 0.842944
vt 1.071429 0.842944
vt 1.071429 -0.014199
vt 1.500000 1.071429
vt 1.642857 1.071429
vt 1.642857 -0.071429
vt 1.500000 -0.071429
vt -0.500000 1.071429
vt -0.642857 1.071429
vt -0.642857 -0.071429
vt -0.500000 -0.071429
vt 1.357143 1.071429
vt 1.357143 -0.071429
vt 1.214286 1.071429
vt 1.214286 -0.071429
vt 1.071429 1.071429
vt 1.071429 -0.071429
vt 1.071429 1.018320
vt -0.071429 1.018320
vt 0.928571 1.071429
vt 0.785714 1.071429
vt 0.785714 -0.071429
vt 0.928571 -0.071429
vt 0.642857 1.071429
vt 0.642857 -0.071429
vt 0.500000 1.071429
vt 0.500000 -0.071429
vt 0.357143 1.071429
vt 0.357143 -0.071429
vt 0.214286 1.071429
vt 0.214286 -0.071429
vt 0.071429 1.071429
vt 0.071429 -0.071429
vt -0.071429 1.071429
vt -0.214286 1.071429
vt -0.214286 -0.071429
vt -0.071429 -0.071429
vt -0.357143 1.071429
vt -0.357143 -0.071429
vt -0.050931 -0.071429
vt -0.050931 1.071429
vt 1.050931 -0.071429
vt 1.050931 1.071429
vt 1.214286 0.842944
vt 1.071429 0.128658
vt 0.975125 0.446127
vt 1.027931 0.347334
vt 1.060449 0.017178
vt 1.050931 -0.014199
vt 0.928571 1.018320
vt 0.785714 0.620756
vt 0.817469 0.603783
vt 0.785714 1.078016
vt 0.642857 0.679589
vt 0.718676 0.656589
vt 0.214286 1.078016
vt 0.281324 0.656589
vt 0.214286 0.620756
vt 0.071429 1.018320
vt 0.095939 0.532719
vt 0.182531 0.603783
vt -0.060449 0.240138
vt -0.027931 0.347334
vt -0.060449 0.017178
vt -0.071429 0.128658
vt -0.214286 -0.014199
vt -0.214286 0.842944
vt 0.024875 0.446127
vt -0.050931 -0.014199
vt 0.357143 0.679589
vt 0.904061 0.532719
vt 1.214286 -0.014199
vt 0.611480 -0.071429
vt 0.611480 1.071429
vt 0.718676 -0.071429
vt 0.718676 1.071429
vt 0.817469 -0.071429
vt 0.817469 1.071429
vt 0.904061 -0.071429
vt 0.904061 1.071429
vt 1.071429 0.446127
vt -0.071429 0.446127
vt -0.071429 0.502853
vt -0.071429 0.532719
vt 1.071429 0.532719
vt 1.071429 0.502853
vt 1.071429 0.347334
vt -0.071429 0.347334
vt 1.071429 0.240138
vt -0.071429 0.240138
vt 1.071429 0.017178
vt -0.071429 0.017178
vt 0.182531 -0.071429
vt 0.095939 -0.071429
vt 0.095939 1.071429
vt 0.182531 1.071429
vt 0.281324 -0.071429
vt 0.281324 1.071429
vt 0.388520 -0.071429
vt 0.388520 1.071429
vt -0.357143 -0.014199
vt -0.357143 0.842944
vt 1.642857 -0.014199
vt 1.500000 -0.014199
vt 1.500000 0.842944
vt 1.642857 0.842944
vt -0.642857 -0.014199
vt -0.500000 -0.014199
vt -0.500000 0.842944
vt -0.642857 0.842944
vt 0.642857 1.107443
vt 0.611480 0.689107
vt 0.500000 0.700086
vt 0.500000 1.116550
vt 1.060449 0.240138
vt 0.928571 0.502853
vt 0.357143 1.107443
vt 0.388520 0.689107
vt 0.071429 0.502853
vt 1.357143 -0.014199
vt 1.357143 0.842944
s 0
usemtl Sidewalk
f 1/1/1 2/2/1 4/3/1 3/4/1
f 7/4/2 8/3/2 6/2/2 5/1/2
f 9/5/3 7/6/3 5/7/3 39/8/3
f 17/9/4 4/10/4 2/11/4 54/12/4
f 8/6/4 31/5/4 40/8/4 6/7/4
f 31/5/4 30/13/4 41/14/4 40/8/4
f 30/13/4 29/15/4 42/16/4 41/14/4
f 29/15/4 28/17/4 43/18/4 42/16/4
f 28/3/5 27/19/5 44/20/5 43/2/5
f 27/21/6 26/22/6 45/23/6 44/24/6
f 26/22/7 25/25/7 46/26/7 45/23/7
f 25/25/8 24/27/8 47/28/8 46/26/8
f 24/27/9 23/29/9 48/30/9 47/28/9
f 23/29/10 22/31/10 49/32/10 48/30/10
f 22/31/11 21/33/11 50/34/11 49/32/11
f 21/19/12 20/3/12 51/2/12 50/20/12
f 20/35/4 19/36/4 52/37/4 51/38/4
f 19/36/4 18/39/4 53/40/4 52/37/4
f 18/39/4 17/9/4 54/12/4 53/40/4
f 3/10/3 16/9/3 32/12/3 1/11/3
f 16/9/3 15/39/3 33/40/3 32/12/3
f 15/39/3 14/36/3 34/37/3 33/40/3
f 14/36/3 13/35/3 35/38/3 34/37/3
f 56/41/3 35/38/3 13/35/3 55/42/3
f 12/17/3 36/18/3 58/43/3 57/44/3
f 12/17/3 11/15/3 37/16/3 36/18/3
f 11/15/3 10/13/3 38/14/3 37/16/3
f 10/13/3 9/5/3 39/8/3 38/14/3
f 42/45/13 43/3/13 59/46/13
f 43/3/13 62/47/13 60/48/13
f 36/4/13 64/49/13 58/50/13
f 44/51/13 66/52/13 67/53/13
f 45/54/13 69/55/13 68/56/13
f 68/56/13 66/52/13 44/51/13 45/54/13
f 22/57/14 93/58/14 91/59/14 21/60/14
f 78/61/13 76/62/13 50/60/13
f 51/2/13 82/63/13 83/64/13
f 35/1/13 80/65/13 81/66/13
f 34/67/13 35/1/13 81/66/13
f 19/68/14 20/2/14 84/66/14
f 20/2/14 88/69/14 85/64/14
f 13/1/14 87/65/14 55/70/14
f 91/59/14 92/62/14 21/60/14
f 93/58/14 22/57/14 94/71/14
f 26/54/14 99/56/14 97/55/14
f 27/51/14 103/72/14 101/53/14
f 28/3/14 105/48/14 104/47/14
f 12/4/14 107/49/14 106/46/14
f 11/73/14 12/4/14 106/46/14
f 70/74/15 71/28/15 96/27/15 98/75/15
f 68/76/16 69/26/16 70/74/16 98/75/16 97/25/16 99/77/16
f 67/78/17 66/23/17 68/76/17 99/77/17 100/22/17 101/79/17
f 65/80/18 67/78/18 101/79/18 103/81/18
f 104/82/19 62/83/19 63/84/19 65/85/19 103/86/19 102/87/19
f 62/83/20 104/82/20 105/88/20 60/89/20
f 60/89/21 105/88/21 108/90/21 61/91/21
f 61/91/22 108/90/22 106/46/22 59/66/22
f 59/66/23 106/46/23 107/92/23 64/93/23
f 58/1/24 64/93/24 107/92/24 57/4/24
f 55/4/25 87/92/25 80/93/25 56/1/25
f 81/66/26 80/93/26 87/92/26 84/46/26
f 82/91/27 81/66/27 84/46/27 86/90/27
f 83/89/28 82/91/28 86/90/28 85/88/28
f 79/83/29 83/89/29 85/88/29 88/82/29
f 89/87/30 90/86/30 78/85/30 77/84/30 79/83/30 88/82/30
f 76/94/31 78/95/31 90/96/31 92/97/31
f 74/98/32 75/32/32 76/94/32 92/97/32 91/31/32 93/99/32
f 73/100/33 72/30/33 74/98/33 93/99/33 94/29/33 95/101/33
f 71/28/34 73/100/34 95/101/34 96/27/34
f 33/102/13 34/67/13 52/68/13 53/103/13
f 7/104/14 9/105/14 31/106/14 8/107/14
f 1/108/13 32/109/13 54/110/13 2/111/13
f 14/67/14 15/102/14 18/103/14 19/68/14
f 25/112/14 98/113/14 96/114/14 24/115/14
f 59/46/13 36/4/13 37/73/13
f 37/73/13 42/45/13 59/46/13
f 61/116/13 59/46/13 43/3/13
f 43/3/13 44/51/13 63/117/13
f 43/3/13 63/117/13 62/47/13
f 60/48/13 61/116/13 43/3/13
f 36/4/13 59/46/13 64/49/13
f 65/72/13 63/117/13 44/51/13
f 26/54/14 27/51/14 100/52/14 99/56/14
f 67/53/13 65/72/13 44/51/13
f 25/112/14 26/54/14 97/55/14 98/113/14
f 71/114/13 47/115/13 48/118/13 73/119/13
f 23/118/14 95/119/14 94/71/14 22/57/14
f 74/58/13 72/71/13 49/57/13
f 76/62/13 75/59/13 50/60/13
f 50/60/13 77/120/13 78/61/13
f 79/69/13 77/120/13 51/2/13
f 77/120/13 50/60/13 51/2/13
f 51/2/13 81/66/13 82/63/13
f 83/64/13 79/69/13 51/2/13
f 35/1/13 56/70/13 80/65/13
f 81/66/13 51/2/13 52/68/13
f 52/68/13 34/67/13 81/66/13
f 37/73/13 38/121/13 41/122/13 42/45/13
f 38/121/13 39/105/13 40/106/13 41/122/13
f 32/109/13 33/102/13 53/103/13 54/110/13
f 39/105/13 5/104/13 6/107/13 40/106/13
f 15/102/14 16/109/14 17/110/14 18/103/14
f 13/1/14 14/67/14 84/66/14
f 14/67/14 19/68/14 84/66/14
f 86/63/14 84/66/14 20/2/14
f 20/2/14 21/60/14 89/120/14
f 20/2/14 89/120/14 88/69/14
f 85/64/14 86/63/14 20/2/14
f 13/1/14 84/66/14 87/65/14
f 89/120/14 21/60/14 90/61/14
f 90/61/14 21/60/14 92/62/14
f 70/113/13 69/55/13 45/54/13 46/112/13
f 71/114/13 70/113/13 46/112/13 47/115/13
f 95/119/14 23/118/14 24/115/14 96/114/14
f 48/118/13 49/57/13 72/71/13 73/119/13
f 49/57/13 50/60/13 75/59/13 74/58/13
f 27/51/14 102/117/14 103/72/14
f 101/53/14 100/52/14 27/51/14
f 102/117/14 27/51/14 28/3/14
f 28/3/14 106/46/14 108/116/14
f 28/3/14 108/116/14 105/48/14
f 104/47/14 102/117/14 28/3/14
f 12/4/14 57/50/14 107/49/14
f 28/3/14 29/45/14 106/46/14
f 29/45/14 11/73/14 106/46/14
f 16/109/14 3/108/14 4/111/14 17/110/14
f 10/121/14 11/73/14 29/45/14 30/122/14
f 9/105/14 10/121/14 30/122/14 31/106/14
