# Blender 4.5.4 LTS
# www.blender.org
mtllib sm_storefront1.mtl
o Storefront1
v -1.933393 0.000000 -2.600000
v -1.933393 2.000000 -2.600000
v -0.920956 0.000000 -2.600000
v -0.920956 2.000000 -2.600000
v -1.933393 0.000000 -3.025546
v -1.819780 0.039158 -3.100000
v -1.911586 0.000000 -3.078193
v -1.819780 1.886388 -3.100000
v -1.933393 2.000000 -3.025546
v -1.911586 1.978193 -3.078193
v -1.034569 0.039158 -3.100000
v -0.920956 0.000000 -3.025546
v -0.942763 0.000000 -3.078193
v -0.920956 2.000000 -3.025546
v -1.034569 1.886388 -3.100000
v -0.942763 1.978193 -3.078193
v -1.858939 1.925546 -3.100000
v -1.858939 0.000000 -3.100000
v -0.995410 1.925546 -3.100000
v -0.995410 0.000000 -3.100000
v -1.819780 1.886388 -3.025322
v -1.819780 0.039158 -3.025322
v -1.034569 1.886388 -3.025322
v -1.034569 0.039158 -3.025322
v -0.250000 0.500000 -2.100000
v -0.250000 2.500000 -2.100000
v -0.139158 0.610842 -3.100000
v -0.139158 2.389158 -3.100000
v 2.250000 0.500000 -2.100000
v 2.250000 2.500000 -2.100000
v 2.139158 0.610842 -3.100000
v 2.139158 2.389158 -3.100000
v -0.139158 2.389158 -3.019469
v -0.139158 0.610842 -3.019469
v 2.139158 0.610842 -3.019469
v 2.139158 2.389158 -3.019469
v -0.250000 2.500000 -3.053816
v -0.203816 2.453815 -3.100000
v -0.236473 2.486473 -3.086473
v -0.203816 0.546184 -3.100000
v -0.250000 0.500000 -3.053816
v -0.236473 0.513527 -3.086473
v 2.203815 0.546184 -3.100000
v 2.250000 0.500000 -3.053816
v 2.236473 0.513527 -3.086473
v 2.250000 2.500000 -3.053816
v 2.203815 2.453815 -3.100000
v 2.236473 2.486473 -3.086473
vn -0.0000 -0.0000 1.0000
vn -0.3827 -0.0000 -0.9239
vn -0.9239 -0.0000 -0.3827
vn -0.0000 0.9239 -0.3827
vn -0.0000 0.3827 -0.9239
vn 0.9239 -0.0000 -0.3827
vn 0.3827 -0.0000 -0.9239
vn -0.0000 -1.0000 -0.0000
vn -1.0000 -0.0000 -0.0000
vn -0.0000 1.0000 -0.0000
vn 1.0000 -0.0000 -0.0000
vn -0.0000 -0.0000 -1.0000
vn -0.0000 -0.9239 -0.3827
vn -0.0000 -0.3827 -0.9239
vt 0.572317 0.357143
vt 0.572317 0.642857
vt 0.427683 0.642857
vt 0.427683 0.357143
vt 0.438319 0.632221
vt 0.438319 0.357143
vt 0.430798 0.357143
vt 0.430798 0.639742
vt 0.532599 0.639742
vt 0.532599 0.357143
vt 0.525078 0.357143
vt 0.525078 0.642857
vt 0.427683 0.525078
vt 0.572317 0.525078
vt 0.569202 0.532599
vt 0.430798 0.532599
vt 0.569202 0.639742
vt 0.561681 0.632221
vt 0.569202 0.357143
vt 0.561681 0.357143
vt 0.438319 0.535714
vt 0.561681 0.535714
vt 0.572317 0.464286
vt 0.427683 0.464286
vt 0.464286 0.357143
vt 0.464286 0.642857
vt 0.535714 0.626627
vt 0.535714 0.362737
vt 0.525046 0.362737
vt 0.525046 0.626627
vt 0.443913 0.626627
vt 0.443913 0.362737
vt 0.556087 0.626627
vt 0.556087 0.362737
vt 0.169186 0.308120
vt 0.169186 0.643637
vt 0.319225 0.643637
vt 0.319225 0.308120
vt 0.556087 0.535714
vt 0.443913 0.535714
vt 0.443913 0.525046
vt 0.556087 0.525046
vt 0.583333 0.648193
vt 0.583333 0.351807
vt 0.569911 0.351807
vt 0.569911 0.648193
vt 0.708333 0.333333
vt 0.708333 0.666667
vt 0.291667 0.666667
vt 0.291667 0.333333
vt 0.678483 0.726376
vt 0.678483 0.976749
vt 0.999251 0.976749
vt 0.999251 0.726376
vt 0.689860 0.583333
vt 0.310140 0.583333
vt 0.310140 0.569911
vt 0.689860 0.569911
vt 0.299364 0.658969
vt 0.299364 0.341031
vt 0.293921 0.335588
vt 0.293921 0.664412
vt 0.581079 0.664412
vt 0.581079 0.335588
vt 0.575636 0.333333
vt 0.575636 0.666667
vt 0.708333 0.575636
vt 0.291667 0.575636
vt 0.293921 0.581079
vt 0.706079 0.581079
vt 0.706079 0.335588
vt 0.700636 0.341031
vt 0.706079 0.664412
vt 0.700636 0.658969
vt 0.291667 0.416667
vt 0.708333 0.416667
vt 0.416667 0.333333
vt 0.416667 0.666667
vt 0.689860 0.648193
vt 0.310140 0.648193
vt 0.310140 0.351807
vt 0.689860 0.351807
s 0
usemtl Building7
f 3/1/1 4/2/1 2/3/1 1/4/1
f 17/5/2 18/6/2 7/7/2 10/8/2
f 10/9/3 7/10/3 5/11/3 9/12/3
f 9/13/4 14/14/4 16/15/4 10/16/4
f 10/8/5 16/17/5 19/18/5 17/5/5
f 14/12/6 12/11/6 13/10/6 16/9/6
f 16/17/7 13/19/7 20/20/7 19/18/7
f 5/13/8 7/16/8 18/21/8 20/22/8 13/15/8 12/14/8 3/23/8 1/24/8
f 1/25/9 2/26/9 9/12/9 5/11/9
f 15/27/9 11/28/9 24/29/9 23/30/9
f 14/14/10 9/13/10 2/24/10 4/23/10
f 12/11/11 14/12/11 4/26/11 3/25/11
f 8/31/12 6/32/12 18/6/12 17/5/12
f 15/33/12 8/31/12 17/5/12 19/18/12
f 11/34/12 15/33/12 19/18/12 20/20/12
f 6/32/12 11/34/12 20/20/12 18/6/12
f 6/28/11 8/27/11 21/30/11 22/29/11
f 11/39/10 6/40/10 22/41/10 24/42/10
f 8/40/8 15/39/8 23/42/8 21/41/8
f 32/43/9 31/44/9 35/45/9 36/46/9
f 29/47/1 30/48/1 26/49/1 25/50/1
f 31/55/10 27/56/10 34/57/10 35/58/10
f 28/56/8 32/55/8 36/58/8 33/57/8
f 27/44/11 28/43/11 33/46/11 34/45/11
f 38/59/2 40/60/2 42/61/2 39/62/2
f 39/63/3 42/64/3 41/65/3 37/66/3
f 44/67/13 41/68/13 42/69/13 45/70/13
f 45/71/14 42/61/14 40/60/14 43/72/14
f 37/68/4 46/67/4 48/70/4 39/69/4
f 39/62/5 48/73/5 47/74/5 38/59/5
f 46/66/6 44/65/6 45/64/6 48/63/6
f 48/73/7 45/71/7 43/72/7 47/74/7
f 46/67/10 37/68/10 26/75/10 30/76/10
f 25/77/9 26/78/9 37/66/9 41/65/9
f 32/79/12 28/80/12 38/59/12 47/74/12
f 28/80/12 27/81/12 40/60/12 38/59/12
f 41/68/8 44/67/8 29/76/8 25/75/8
f 27/81/12 31/82/12 43/72/12 40/60/12
f 44/65/11 46/66/11 30/78/11 29/77/11
f 31/82/12 32/79/12 47/74/12 43/72/12
usemtl Door
f 22/35/12 21/36/12 23/37/12 24/38/12
usemtl Window
f 34/51/12 33/52/12 36/53/12 35/54/12
