# Blender 4.5.4 LTS
# www.blender.org
mtllib sm_storefront5.mtl
o Storefront5
v -0.600000 0.250000 -2.600000
v -0.600000 2.250000 -2.600000
v -0.535659 0.250000 -3.100000
v -0.535659 2.185659 -3.100000
v 0.600000 0.250000 -2.600000
v 0.600000 2.250000 -2.600000
v 0.535659 0.250000 -3.100000
v 0.535659 2.185659 -3.100000
v -0.798170 0.250000 -3.621294
v -0.798170 0.250000 -2.078706
v 0.798170 0.250000 -3.621294
v 0.798170 0.250000 -2.078706
v -0.798170 0.000000 -3.621294
v -0.798170 0.000000 -2.078706
v 0.798170 0.000000 -3.621294
v 0.798170 0.000000 -2.078706
v 1.294764 0.537464 -2.153175
v 1.294764 2.269605 -2.153175
v 1.294764 0.537464 -2.903175
v 1.294764 2.269605 -2.903175
v 2.044764 0.537464 -2.153175
v 2.044764 2.269605 -2.153175
v 2.044764 0.537464 -2.903175
v 2.044764 2.269605 -2.903175
v 1.353914 2.210455 -3.090986
v 1.294764 0.537464 -3.090986
v 2.044764 0.537464 -3.090986
v 1.985615 2.210455 -3.090986
v 1.294764 0.889240 -2.153175
v 1.294764 0.889240 -2.903175
v 2.044764 0.889240 -2.903175
v 2.044764 0.889240 -2.153175
v 1.353914 0.948389 -3.090986
v 1.985615 0.948389 -3.090986
v 1.294764 0.889240 -3.260049
v 1.294764 0.537464 -3.115460
v 2.044764 0.537464 -3.115460
v 2.044764 0.889240 -3.260049
v 1.219764 0.537464 -2.903175
v 1.219764 0.537464 -2.153175
v 1.219764 0.889240 -2.903175
v 1.256861 0.889240 -3.128083
v 1.219764 0.537464 -3.090986
v 1.219764 0.889240 -2.153175
v 1.256861 0.889240 -3.260049
v 1.219764 0.537464 -3.115460
v 2.119764 0.889240 -2.903175
v 2.119764 0.537464 -2.903175
v 2.119764 0.537464 -2.153175
v 2.119764 0.889240 -2.153175
v 2.082667 0.889240 -3.128083
v 2.119764 0.537464 -3.090986
v 2.082667 0.889240 -3.260049
v 2.119764 0.537464 -3.115460
v 1.294764 0.889240 -3.128083
v 2.044764 0.889240 -3.128083
v 1.353914 2.210455 -3.012699
v 1.985615 2.210455 -3.012699
v 1.353914 0.948389 -3.012699
v 1.985615 0.948389 -3.012699
v 1.219764 0.889240 -3.090986
v 1.294764 0.889240 -3.297146
v 2.044764 0.889240 -3.297146
v 1.219764 0.889240 -3.297146
v 2.119764 0.889240 -3.090986
v 2.119764 0.889240 -3.297146
v 1.294764 0.835249 -3.130945
v 1.294764 0.835249 -3.234371
v 2.044764 0.835249 -3.130945
v 2.044764 0.835249 -3.234371
v 1.256861 0.835249 -3.130945
v 1.256861 0.835249 -3.234371
v 2.082667 0.835249 -3.130945
v 2.082667 0.835249 -3.234371
v 1.320380 2.243989 -3.090986
v 1.294764 2.269605 -3.065370
v 2.044764 2.269605 -3.065370
v 2.019148 2.243989 -3.090986
v 1.294764 0.889240 -3.065370
v 1.320380 0.914856 -3.090986
v 1.320380 0.889240 -3.090986
v 1.294764 0.889240 -3.116602
v 1.269148 0.889240 -3.090986
v 2.019148 0.914856 -3.090986
v 2.044764 0.889240 -3.065370
v 2.070380 0.889240 -3.090986
v 2.044764 0.889240 -3.116602
v 2.019148 0.889240 -3.090986
v -2.044760 0.537464 -2.153175
v -2.044760 2.269605 -2.153175
v -2.044760 0.537464 -2.903175
v -2.044760 2.269605 -2.903175
v -1.294760 0.537464 -2.153175
v -1.294760 2.269605 -2.153175
v -1.294760 0.537464 -2.903175
v -1.294760 2.269605 -2.903175
v -1.985610 2.210455 -3.090986
v -2.044760 0.537464 -3.090986
v -1.294760 0.537464 -3.090986
v -1.353910 2.210455 -3.090986
v -2.044760 0.889240 -2.153175
v -2.044760 0.889240 -2.903175
v -1.294760 0.889240 -2.903175
v -1.294760 0.889240 -2.153175
v -1.985610 0.948389 -3.090986
v -1.353910 0.948389 -3.090986
v -2.044760 0.889240 -3.260049
v -2.044760 0.537464 -3.115460
v -1.294760 0.537464 -3.115460
v -1.294760 0.889240 -3.260049
v -2.119760 0.537464 -2.903175
v -2.119760 0.537464 -2.153175
v -2.119760 0.889240 -2.903175
v -2.082663 0.889240 -3.128083
v -2.119760 0.537464 -3.090986
v -2.119760 0.889240 -2.153175
v -2.082663 0.889240 -3.260049
v -2.119760 0.537464 -3.115460
v -1.219760 0.889240 -2.903175
v -1.219760 0.537464 -2.903175
v -1.219760 0.537464 -2.153175
v -1.219760 0.889240 -2.153175
v -1.256857 0.889240 -3.128083
v -1.219760 0.537464 -3.090986
v -1.256857 0.889240 -3.260049
v -1.219760 0.537464 -3.115460
v -2.044760 0.889240 -3.128083
v -1.294760 0.889240 -3.128083
v -1.985610 2.210455 -3.012699
v -1.353910 2.210455 -3.012699
v -1.985610 0.948389 -3.012699
v -1.353910 0.948389 -3.012699
v -2.119760 0.889240 -3.090986
v -2.044760 0.889240 -3.297146
v -1.294760 0.889240 -3.297146
v -2.119760 0.889240 -3.297146
v -1.219760 0.889240 -3.090986
v -1.219760 0.889240 -3.297146
v -2.044760 0.835249 -3.130945
v -2.044760 0.835249 -3.234371
v -1.294760 0.835249 -3.130945
v -1.294760 0.835249 -3.234371
v -2.082663 0.835249 -3.130945
v -2.082663 0.835249 -3.234371
v -1.256857 0.835249 -3.130945
v -1.256857 0.835249 -3.234371
v -2.019144 2.243989 -3.090986
v -2.044760 2.269605 -3.065370
v -1.294760 2.269605 -3.065370
v -1.320376 2.243989 -3.090986
v -2.044760 0.889240 -3.065370
v -2.019144 0.914856 -3.090986
v -2.019144 0.889240 -3.090986
v -2.044760 0.889240 -3.116602
v -2.070376 0.889240 -3.090986
v -1.320376 0.914856 -3.090986
v -1.294760 0.889240 -3.065370
v -1.269144 0.889240 -3.090986
v -1.294760 0.889240 -3.116602
v -1.320376 0.889240 -3.090986
v -0.600000 2.250000 -3.100000
v -0.600000 0.250000 -3.100000
v 0.600000 0.250000 -3.100000
v 0.600000 2.250000 -3.100000
v -0.535659 2.185659 -3.017404
v -0.535659 0.250000 -3.017404
v 0.535659 0.250000 -3.017404
v 0.535659 2.185659 -3.017404
vn -1.0000 -0.0000 -0.0000
vn 1.0000 -0.0000 -0.0000
vn -0.0000 -0.0000 1.0000
vn -0.0000 1.0000 -0.0000
vn -0.0000 -0.0000 -1.0000
vn -0.0000 -1.0000 -0.0000
vn -0.0000 -0.4589 -0.8885
vn -0.0000 0.4295 0.9031
vn -0.0000 0.0529 -0.9986
vn -0.2543 0.9331 -0.2543
vn -0.3342 0.1700 -0.9270
vn -0.0858 0.8890 -0.4497
vn -0.0596 0.9964 -0.0596
vn 0.3342 0.1700 -0.9270
vn 0.2543 0.9331 -0.2543
vn 0.0596 0.9964 -0.0596
vn 0.0858 0.8890 -0.4497
vn 0.4082 0.4083 -0.8165
vn -0.4082 0.4083 -0.8165
vn -0.4083 0.4083 -0.8165
vn 0.4083 0.4083 -0.8165
vt 0.436709 0.278481
vt 0.436709 0.784810
vt 0.563291 0.784810
vt 0.563291 0.278481
vt 0.563291 0.768521
vt 0.542381 0.768521
vt 0.542381 0.278481
vt 0.651899 0.278481
vt 0.651899 0.784810
vt 0.348101 0.784810
vt 0.348101 0.278481
vt 0.651899 0.436709
vt 0.348101 0.436709
vt 0.297932 0.304736
vt 0.702068 0.304736
vt 0.651899 0.563291
vt 0.348101 0.563291
vt 0.297932 0.278481
vt 0.702068 0.278481
vt 0.702068 0.215190
vt 0.297932 0.215190
vt 0.702068 0.695264
vt 0.297932 0.695264
vt 0.695264 0.278481
vt 0.304736 0.278481
vt 0.304736 0.215190
vt 0.695264 0.215190
vt 1.058955 0.730843
vt 1.058956 1.089180
vt 1.253653 1.089180
vt 1.253652 0.730843
vt 0.597348 0.730843
vt 0.597348 1.089180
vt 0.402652 1.089180
vt 0.402652 0.730843
vt 0.402652 1.253652
vt 0.597348 1.253652
vt 0.597348 1.058955
vt 0.402652 1.058955
vt 0.597348 1.253653
vt 0.402652 1.253653
vt 0.402652 1.058956
vt 0.597348 1.058956
vt 0.418007 1.302408
vt 0.581993 1.302408
vt 0.581993 1.282084
vt 0.418007 1.282084
vt 0.597348 0.639524
vt 0.616818 0.639524
vt 0.616818 0.730843
vt 0.402652 1.302408
vt 0.597348 1.302408
vt 0.402652 0.730843
vt 0.402652 0.639524
vt 0.383182 0.639524
vt 0.383182 0.730843
vt 0.597348 0.730843
vt 0.402652 0.716827
vt 0.597348 0.716827
vt 0.402652 0.639524
vt 0.597348 0.639524
vt 0.392812 0.730843
vt 0.392812 0.716827
vt 0.597348 1.308761
vt 0.616818 1.308761
vt 0.616818 1.302408
vt 0.402652 1.308761
vt 1.253652 0.639524
vt 1.302408 0.730843
vt 1.302408 0.639524
vt 1.355926 0.730843
vt 1.308761 0.639524
vt 1.058955 0.639524
vt 0.383182 1.302408
vt 0.383182 1.308761
vt 0.383182 1.058955
vt 0.383182 1.253652
vt 0.402652 1.253652
vt 0.383182 1.253652
vt 0.383182 0.730843
vt 0.383182 0.639524
vt 0.616818 1.253652
vt 0.616818 1.058955
vt 0.607188 0.730843
vt 0.607188 0.716827
vt 0.616818 0.730843
vt 0.616818 0.639524
vt 0.597348 1.253652
vt 0.616818 1.253652
vt 0.212601 0.730866
vt 0.212601 0.962522
vt 0.363052 0.962522
vt 0.363052 0.730866
vt 1.302408 0.746198
vt 1.302408 1.073825
vt 1.282084 1.073825
vt 1.282084 0.746198
vt 0.402652 1.346296
vt 0.597348 1.346296
vt 0.597348 1.355926
vt 0.402652 1.355926
vt 0.392812 1.312038
vt 0.392812 1.346296
vt 0.383182 1.355926
vt 0.607188 1.346296
vt 0.607188 1.312038
vt 0.616818 1.355926
vt 0.402652 1.312781
vt 0.402652 1.339630
vt 0.392812 1.339630
vt 0.392812 1.312781
vt 0.597348 1.312781
vt 0.597348 1.339630
vt 0.607188 1.312781
vt 0.607188 1.339630
vt 1.312038 0.730843
vt 1.346296 0.730843
vt 1.339630 0.716827
vt 1.312781 0.716827
vt 1.295758 0.730843
vt 1.302407 0.737493
vt 1.302408 0.737493
vt 1.295758 0.730843
vt 0.590699 1.302408
vt 0.409301 1.302408
vt 0.402651 1.295757
vt 0.597348 1.295758
vt 1.302408 1.082530
vt 1.295758 1.089180
vt 0.581993 1.073825
vt 0.418007 1.073825
vt 0.409301 1.082530
vt 0.590699 1.082530
vt 0.418007 0.746198
vt 0.409301 0.737493
vt 0.581993 0.746198
vt 0.590699 0.737493
vt 0.402652 1.295758
vt 0.396002 1.302408
vt 0.590699 0.730843
vt 0.409301 0.730843
vt 0.597348 1.312038
vt 0.402652 1.312038
vt 0.402652 1.309057
vt 0.409301 1.302408
vt 0.597348 1.309057
vt 0.603998 1.302408
vt 0.597348 1.295758
vt 0.364390 0.768521
vt 0.364390 0.278481
vt 0.364390 0.563291
vt 0.635610 0.563291
vt 0.635610 0.768521
vt 0.635610 0.278481
vt 0.310901 0.658451
vt 0.310901 0.989930
vt 0.501384 0.989930
vt 0.501384 0.658451
vt 0.364390 0.542381
vt 0.635610 0.542381
s 0
usemtl Bricks
f 1/1/1 2/2/1 161/3/1 162/4/1
f 3/4/2 4/5/2 165/6/2 166/7/2
f 163/4/2 164/3/2 6/2/2 5/1/2
f 5/8/3 6/9/3 2/10/3 1/11/3
f 5/12/4 1/13/4 10/14/4 12/15/4
f 164/16/4 161/17/4 2/13/4 6/12/4
f 9/18/5 11/19/5 15/20/5 13/21/5
f 162/17/4 163/16/4 11/22/4 9/23/4
f 1/13/4 162/17/4 9/23/4 10/14/4
f 163/16/4 5/12/4 12/15/4 11/22/4
f 13/23/6 15/22/6 16/15/6 14/14/6
f 11/24/2 12/25/2 16/26/2 15/27/2
f 10/25/1 9/24/1 13/27/1 14/26/1
f 12/19/3 10/18/3 14/21/3 16/20/3
f 4/149/5 3/150/5 162/11/5 161/10/5
f 3/151/6 7/152/6 163/16/6 162/17/6
f 8/153/5 4/149/5 161/10/5 164/9/5
f 7/154/5 8/153/5 164/9/5 163/8/5
f 8/5/1 7/4/1 167/7/1 168/6/1
f 7/152/4 3/151/4 166/159/4 167/160/4
f 4/151/6 8/152/6 168/160/6 165/159/6
s 1
usemtl Bricks
f 29/28/1 18/29/1 20/30/1 30/31/1
f 31/31/2 24/30/2 22/29/2 32/28/2
f 32/32/3 22/33/3 18/34/3 29/35/3
f 19/36/6 23/37/6 21/38/6 17/39/6
f 24/40/4 20/41/4 18/42/4 22/43/4
f 25/44/6 28/45/6 58/46/6 57/47/6
f 32/32/3 21/48/3 49/49/3 50/50/3
f 23/37/6 19/36/6 26/51/6 27/52/6
f 62/53/7 36/54/7 46/55/7 64/56/7
f 38/57/8 35/53/8 68/58/8 70/59/8
f 21/48/3 32/32/3 29/35/3 17/60/3
f 36/54/7 62/53/7 63/57/7 37/61/7
f 35/53/8 45/62/8 72/63/8 68/58/8
f 27/52/6 37/64/6 54/65/6 52/66/6
f 27/52/6 26/51/6 36/67/6 37/64/6
f 39/68/1 41/31/1 61/69/1 43/70/1
f 43/70/1 61/69/1 64/71/1 46/72/1
f 40/73/1 44/28/1 41/31/1 39/68/1
f 36/67/6 26/51/6 43/74/6 46/75/6
f 19/36/6 17/39/6 40/76/6 39/77/6
f 29/39/4 30/78/4 41/79/4 44/76/4
f 17/60/3 29/35/3 44/80/3 40/81/3
f 26/51/6 19/36/6 39/77/6 43/74/6
f 47/31/2 48/68/2 52/70/2 65/69/2
f 48/68/2 47/31/2 50/28/2 49/73/2
f 65/69/2 52/70/2 54/72/2 66/71/2
f 21/38/6 23/37/6 48/82/6 49/83/6
f 56/57/9 51/84/9 73/85/9 69/59/9
f 37/61/7 63/57/7 66/86/7 54/87/7
f 31/88/4 32/38/4 50/83/4 47/89/4
f 23/37/6 27/52/6 52/66/6 48/82/6
f 34/45/4 33/44/4 59/47/4 60/46/4
f 33/94/2 25/95/2 57/96/2 59/97/2
f 28/95/1 34/94/1 60/97/1 58/96/1
f 35/98/4 38/99/4 63/100/4 62/101/4
f 42/102/4 45/103/4 64/104/4 61/74/4
f 45/103/4 35/98/4 62/101/4 64/104/4
f 53/105/4 51/106/4 65/66/4 66/107/4
f 38/99/4 53/105/4 66/107/4 63/100/4
f 42/62/9 55/53/9 67/58/9 71/63/9
f 53/84/8 38/57/8 70/59/8 74/85/8
f 51/116/1 53/117/1 74/118/1 73/119/1
f 45/117/2 42/116/2 71/119/2 72/118/2
f 55/53/9 56/57/9 69/59/9 67/58/9
f 79/120/10 80/121/11 81/69/12 82/69/13 83/69/13
f 84/122/14 85/123/15 86/69/16 87/69/16 88/69/17
f 78/124/18 75/125/19 76/126/20 77/127/21
f 75/128/19 80/121/11 79/120/10 76/129/20
f 84/122/14 78/128/18 77/129/21 85/123/15
f 28/130/5 25/131/5 75/132/5 78/133/5
f 20/41/4 24/40/4 77/127/4 76/126/4
f 30/31/1 20/30/1 76/129/1 79/120/1
f 25/131/5 33/134/5 80/135/11 75/132/5
f 24/30/2 31/31/2 85/123/2 77/129/2
f 34/136/5 28/130/5 78/133/5 84/137/14
f 30/78/4 79/138/10 83/139/13 61/74/4 41/79/4
f 33/134/5 34/136/5 84/137/14 88/140/17 81/141/12 80/135/11
f 56/142/4 55/143/4 82/144/13 81/145/12 88/124/17 87/146/16
f 55/143/4 42/102/4 61/74/4 83/139/13 82/144/13
f 86/147/16 85/148/15 31/88/4 47/89/4 65/66/4
f 51/106/4 56/142/4 87/146/16 86/147/16 65/66/4
f 101/28/1 90/29/1 92/30/1 102/31/1
f 103/31/2 96/30/2 94/29/2 104/28/2
f 104/32/3 94/33/3 90/34/3 101/35/3
f 91/36/6 95/37/6 93/38/6 89/39/6
f 96/40/4 92/41/4 90/42/4 94/43/4
f 97/44/6 100/45/6 130/46/6 129/47/6
f 104/32/3 93/48/3 121/49/3 122/50/3
f 95/37/6 91/36/6 98/51/6 99/52/6
f 134/53/7 108/54/7 118/55/7 136/56/7
f 110/57/8 107/53/8 140/58/8 142/59/8
f 93/48/3 104/32/3 101/35/3 89/60/3
f 108/54/7 134/53/7 135/57/7 109/61/7
f 107/53/8 117/62/8 144/63/8 140/58/8
f 99/52/6 109/64/6 126/65/6 124/66/6
f 99/52/6 98/51/6 108/67/6 109/64/6
f 111/68/1 113/31/1 133/69/1 115/70/1
f 115/70/1 133/69/1 136/71/1 118/72/1
f 112/73/1 116/28/1 113/31/1 111/68/1
f 108/67/6 98/51/6 115/74/6 118/75/6
f 91/36/6 89/39/6 112/76/6 111/77/6
f 101/39/4 102/78/4 113/79/4 116/76/4
f 89/60/3 101/35/3 116/80/3 112/81/3
f 98/51/6 91/36/6 111/77/6 115/74/6
f 119/31/2 120/68/2 124/70/2 137/69/2
f 120/68/2 119/31/2 122/28/2 121/73/2
f 137/69/2 124/70/2 126/72/2 138/71/2
f 93/38/6 95/37/6 120/82/6 121/83/6
f 128/57/9 123/84/9 145/85/9 141/59/9
f 109/61/7 135/57/7 138/86/7 126/87/7
f 103/88/4 104/38/4 122/83/4 119/89/4
f 95/37/6 99/52/6 124/66/6 120/82/6
f 106/45/4 105/44/4 131/47/4 132/46/4
f 105/94/2 97/95/2 129/96/2 131/97/2
f 100/95/1 106/94/1 132/97/1 130/96/1
f 107/98/4 110/99/4 135/100/4 134/101/4
f 114/102/4 117/103/4 136/104/4 133/74/4
f 117/103/4 107/98/4 134/101/4 136/104/4
f 125/105/4 123/106/4 137/66/4 138/107/4
f 110/99/4 125/105/4 138/107/4 135/100/4
f 114/62/9 127/53/9 139/58/9 143/63/9
f 125/84/8 110/57/8 142/59/8 146/85/8
f 123/116/1 125/117/1 146/118/1 145/119/1
f 117/117/2 114/116/2 143/119/2 144/118/2
f 127/53/9 128/57/9 141/59/9 139/58/9
f 151/120/10 152/121/11 153/69/12 154/69/13 155/69/13
f 156/122/14 157/123/15 158/69/16 159/69/16 160/69/17
f 150/124/18 147/125/19 148/126/20 149/127/21
f 147/128/19 152/121/11 151/120/10 148/129/20
f 156/122/14 150/128/18 149/129/21 157/123/15
f 100/130/5 97/131/5 147/132/5 150/133/5
f 92/41/4 96/40/4 149/127/4 148/126/4
f 102/31/1 92/30/1 148/129/1 151/120/1
f 97/131/5 105/134/5 152/135/11 147/132/5
f 96/30/2 103/31/2 157/123/2 149/129/2
f 106/136/5 100/130/5 150/133/5 156/137/14
f 102/78/4 151/138/10 155/139/13 133/74/4 113/79/4
f 105/134/5 106/136/5 156/137/14 160/140/17 153/141/12 152/135/11
f 128/142/4 127/143/4 154/144/13 153/145/12 160/124/17 159/146/16
f 127/143/4 114/102/4 133/74/4 155/139/13 154/144/13
f 158/147/16 157/148/15 103/88/4 119/89/4 137/66/4
f 123/106/4 128/142/4 159/146/16 158/147/16 137/66/4
usemtl Window
f 59/90/5 57/91/5 58/92/5 60/93/5
f 131/90/5 129/91/5 130/92/5 132/93/5
usemtl Dirt
f 67/108/4 68/109/4 72/110/4 71/111/4
f 67/108/4 69/112/4 70/113/4 68/109/4
f 70/113/4 69/112/4 73/114/4 74/115/4
f 139/108/4 140/109/4 144/110/4 143/111/4
f 139/108/4 141/112/4 142/113/4 140/109/4
f 142/113/4 141/112/4 145/114/4 146/115/4
s 0
usemtl Door
f 166/155/5 165/156/5 168/157/5 167/158/5
