# Blender 4.5.4 LTS
# www.blender.org
mtllib sm_trim3.mtl
o Trim3
v 2.889594 0.000000 -2.889594
v 2.889594 3.000000 -2.889594
v 2.889594 0.000000 -3.088876
v 2.889594 3.000000 -3.088876
v 3.088876 0.000000 -2.889594
v 3.088876 3.000000 -2.889594
v 3.088876 0.000000 -3.088876
v 3.088876 3.000000 -3.088876
v -2.889594 0.000000 -2.889593
v -2.889594 3.000000 -2.889593
v -3.088877 0.000000 -2.889593
v -3.088877 3.000000 -2.889593
v -2.889594 0.000000 -3.088876
v -2.889594 3.000000 -3.088876
v -3.088877 0.000000 -3.088876
v -3.088877 3.000000 -3.088876
v -2.889594 0.000000 2.889594
v -2.889594 3.000000 2.889594
v -2.889594 0.000000 3.088877
v -2.889594 3.000000 3.088877
v -3.088877 0.000000 2.889594
v -3.088877 3.000000 2.889594
v -3.088877 0.000000 3.088877
v -3.088877 3.000000 3.088877
v 2.889594 0.000000 2.889593
v 2.889594 3.000000 2.889593
v 3.088876 0.000000 2.889593
v 3.088876 3.000000 2.889593
v 2.889594 0.000000 3.088875
v 2.889594 3.000000 3.088875
v 3.088876 0.000000 3.088875
v 3.088876 3.000000 3.088875
vn -1.0000 -0.0000 -0.0000
vn -0.0000 -0.0000 -1.0000
vn 1.0000 -0.0000 -0.0000
vn -0.0000 -0.0000 1.0000
vn -0.0000 -1.0000 -0.0000
vn -0.0000 1.0000 -0.0000
vt 0.967742 0.500000
vt 0.967742 0.985613
vt 1.000000 0.985613
vt 1.000000 0.500000
vt 0.967742 1.000000
vt 1.000000 1.000000
vt 1.000000 0.967742
vt 0.967742 0.967742
vt 0.032258 0.500000
vt 0.032258 0.985613
vt -0.000000 0.985613
vt -0.000000 0.500000
vt -0.000000 0.967742
vt -0.000000 1.000000
vt 0.032258 1.000000
vt 0.032258 0.967742
vt 0.032258 -0.000000
vt -0.000000 -0.000000
vt -0.000000 0.032258
vt 0.032258 0.032258
vt 0.032258 0.500000
vt 0.032258 0.985613
vt 0.000000 0.985613
vt 0.000000 0.500000
vt 1.000000 0.032258
vt 1.000000 0.000000
vt 0.967742 0.000000
vt 0.967742 0.032258
s 0
usemtl Building4
f 1/1/1 2/2/1 4/3/1 3/4/1
f 3/1/2 4/2/2 8/3/2 7/4/2
f 7/4/3 8/3/3 6/2/3 5/1/3
f 5/4/4 6/3/4 2/2/4 1/1/4
f 3/5/5 7/6/5 5/7/5 1/8/5
f 8/6/6 4/5/6 2/8/6 6/7/6
f 9/9/4 10/10/4 12/11/4 11/12/4
f 11/1/1 12/2/1 16/3/1 15/4/1
f 15/12/2 16/11/2 14/10/2 13/9/2
f 13/4/3 14/3/3 10/2/3 9/1/3
f 11/13/5 15/14/5 13/15/5 9/16/5
f 16/14/6 12/13/6 10/16/6 14/15/6
f 17/9/3 18/10/3 20/11/3 19/12/3
f 19/9/4 20/10/4 24/11/4 23/12/4
f 23/12/1 24/11/1 22/10/1 21/9/1
f 21/12/2 22/11/2 18/10/2 17/9/2
f 19/17/5 23/18/5 21/19/5 17/20/5
f 24/18/6 20/17/6 18/20/6 22/19/6
f 25/1/2 26/2/2 28/3/2 27/4/2
f 27/21/3 28/22/3 32/23/3 31/24/3
f 31/4/4 32/3/4 30/2/4 29/1/4
f 29/24/1 30/23/1 26/22/1 25/21/1
f 27/25/5 31/26/5 29/27/5 25/28/5
f 32/26/6 28/25/6 26/28/6 30/27/6
