# Blender 4.5.4 LTS
# www.blender.org
mtllib sm_windowstriple1.mtl
o Windows1Triple
v -0.375000 0.537464 -2.153175
v -0.375000 2.269605 -2.153175
v -0.375000 0.537464 -2.903175
v -0.375000 2.269605 -2.903175
v 0.375000 0.537464 -2.153175
v 0.375000 2.269605 -2.153175
v 0.375000 0.537464 -2.903175
v 0.375000 2.269605 -2.903175
v -0.315850 2.210455 -3.090986
v -0.375000 0.537464 -3.090986
v 0.375000 0.537464 -3.090986
v 0.315850 2.210455 -3.090986
v -0.375000 0.889240 -2.153175
v -0.375000 0.889240 -2.903175
v 0.375000 0.889240 -2.903175
v 0.375000 0.889240 -2.153175
v -0.315850 0.948389 -3.090986
v 0.315850 0.948389 -3.090986
v -0.375000 0.889240 -3.260049
v -0.375000 0.537464 -3.115460
v 0.375000 0.537464 -3.115460
v 0.375000 0.889240 -3.260049
v -0.450000 0.537464 -2.903175
v -0.450000 0.537464 -2.153175
v -0.450000 0.889240 -2.903175
v -0.412903 0.889240 -3.128083
v -0.450000 0.537464 -3.090986
v -0.450000 0.889240 -2.153175
v -0.412903 0.889240 -3.260049
v -0.450000 0.537464 -3.115460
v 0.450000 0.889240 -2.903175
v 0.450000 0.537464 -2.903175
v 0.450000 0.537464 -2.153175
v 0.450000 0.889240 -2.153175
v 0.412903 0.889240 -3.128083
v 0.450000 0.537464 -3.090986
v 0.412903 0.889240 -3.260049
v 0.450000 0.537464 -3.115460
v -0.375000 0.889240 -3.128083
v 0.375000 0.889240 -3.128083
v -0.315850 2.210455 -3.012699
v 0.315850 2.210455 -3.012699
v -0.315850 0.948389 -3.012699
v 0.315850 0.948389 -3.012699
v -0.450000 0.889240 -3.090986
v -0.375000 0.889240 -3.297146
v 0.375000 0.889240 -3.297146
v -0.450000 0.889240 -3.297146
v 0.450000 0.889240 -3.090986
v 0.450000 0.889240 -3.297146
v -0.375000 0.835249 -3.130945
v -0.375000 0.835249 -3.234371
v 0.375000 0.835249 -3.130945
v 0.375000 0.835249 -3.234371
v -0.412903 0.835249 -3.130945
v -0.412903 0.835249 -3.234371
v 0.412903 0.835249 -3.130945
v 0.412903 0.835249 -3.234371
v -0.349384 2.243989 -3.090986
v -0.375000 2.269605 -3.065370
v 0.375000 2.269605 -3.065370
v 0.349384 2.243989 -3.090986
v -0.375000 0.889240 -3.065370
v -0.349384 0.914856 -3.090986
v -0.349384 0.889240 -3.090986
v -0.375000 0.889240 -3.116602
v -0.400616 0.889240 -3.090986
v 0.349384 0.914856 -3.090986
v 0.375000 0.889240 -3.065370
v 0.400616 0.889240 -3.090986
v 0.375000 0.889240 -3.116602
v 0.349384 0.889240 -3.090986
v 1.558330 0.537464 -2.153175
v 1.558330 2.269605 -2.153175
v 1.558330 0.537464 -2.903175
v 1.558330 2.269605 -2.903175
v 2.308330 0.537464 -2.153175
v 2.308330 2.269605 -2.153175
v 2.308330 0.537464 -2.903175
v 2.308330 2.269605 -2.903175
v 1.617480 2.210455 -3.090986
v 1.558330 0.537464 -3.090986
v 2.308330 0.537464 -3.090986
v 2.249180 2.210455 -3.090986
v 1.558330 0.889240 -2.153175
v 1.558330 0.889240 -2.903175
v 2.308330 0.889240 -2.903175
v 2.308330 0.889240 -2.153175
v 1.617480 0.948389 -3.090986
v 2.249180 0.948389 -3.090986
v 1.558330 0.889240 -3.260049
v 1.558330 0.537464 -3.115460
v 2.308330 0.537464 -3.115460
v 2.308330 0.889240 -3.260049
v 1.483330 0.537464 -2.903175
v 1.483330 0.537464 -2.153175
v 1.483330 0.889240 -2.903175
v 1.520427 0.889240 -3.128083
v 1.483330 0.537464 -3.090986
v 1.483330 0.889240 -2.153175
v 1.520427 0.889240 -3.260049
v 1.483330 0.537464 -3.115460
v 2.383330 0.889240 -2.903175
v 2.383330 0.537464 -2.903175
v 2.383330 0.537464 -2.153175
v 2.383330 0.889240 -2.153175
v 2.346233 0.889240 -3.128083
v 2.383330 0.537464 -3.090986
v 2.346233 0.889240 -3.260049
v 2.383330 0.537464 -3.115460
v 1.558330 0.889240 -3.128083
v 2.308330 0.889240 -3.128083
v 1.617480 2.210455 -3.012699
v 2.249180 2.210455 -3.012699
v 1.617480 0.948389 -3.012699
v 2.249180 0.948389 -3.012699
v 1.483330 0.889240 -3.090986
v 1.558330 0.889240 -3.297146
v 2.308330 0.889240 -3.297146
v 1.483330 0.889240 -3.297146
v 2.383330 0.889240 -3.090986
v 2.383330 0.889240 -3.297146
v 1.558330 0.835249 -3.130945
v 1.558330 0.835249 -3.234371
v 2.308330 0.835249 -3.130945
v 2.308330 0.835249 -3.234371
v 1.520427 0.835249 -3.130945
v 1.520427 0.835249 -3.234371
v 2.346233 0.835249 -3.130945
v 2.346233 0.835249 -3.234371
v 1.583946 2.243989 -3.090986
v 1.558330 2.269605 -3.065370
v 2.308330 2.269605 -3.065370
v 2.282714 2.243989 -3.090986
v 1.558330 0.889240 -3.065370
v 1.583946 0.914856 -3.090986
v 1.583946 0.889240 -3.090986
v 1.558330 0.889240 -3.116602
v 1.532714 0.889240 -3.090986
v 2.282714 0.914856 -3.090986
v 2.308330 0.889240 -3.065370
v 2.333946 0.889240 -3.090986
v 2.308330 0.889240 -3.116602
v 2.282714 0.889240 -3.090986
v -2.308330 0.537464 -2.153175
v -2.308330 2.269605 -2.153175
v -2.308330 0.537464 -2.903175
v -2.308330 2.269605 -2.903175
v -1.558330 0.537464 -2.153175
v -1.558330 2.269605 -2.153175
v -1.558330 0.537464 -2.903175
v -1.558330 2.269605 -2.903175
v -2.249180 2.210455 -3.090986
v -2.308330 0.537464 -3.090986
v -1.558330 0.537464 -3.090986
v -1.617480 2.210455 -3.090986
v -2.308330 0.889240 -2.153175
v -2.308330 0.889240 -2.903175
v -1.558330 0.889240 -2.903175
v -1.558330 0.889240 -2.153175
v -2.249180 0.948389 -3.090986
v -1.617480 0.948389 -3.090986
v -2.308330 0.889240 -3.260049
v -2.308330 0.537464 -3.115460
v -1.558330 0.537464 -3.115460
v -1.558330 0.889240 -3.260049
v -2.383330 0.537464 -2.903175
v -2.383330 0.537464 -2.153175
v -2.383330 0.889240 -2.903175
v -2.346233 0.889240 -3.128083
v -2.383330 0.537464 -3.090986
v -2.383330 0.889240 -2.153175
v -2.346233 0.889240 -3.260049
v -2.383330 0.537464 -3.115460
v -1.483330 0.889240 -2.903175
v -1.483330 0.537464 -2.903175
v -1.483330 0.537464 -2.153175
v -1.483330 0.889240 -2.153175
v -1.520427 0.889240 -3.128083
v -1.483330 0.537464 -3.090986
v -1.520427 0.889240 -3.260049
v -1.483330 0.537464 -3.115460
v -2.308330 0.889240 -3.128083
v -1.558330 0.889240 -3.128083
v -2.249180 2.210455 -3.012699
v -1.617480 2.210455 -3.012699
v -2.249180 0.948389 -3.012699
v -1.617480 0.948389 -3.012699
v -2.383330 0.889240 -3.090986
v -2.308330 0.889240 -3.297146
v -1.558330 0.889240 -3.297146
v -2.383330 0.889240 -3.297146
v -1.483330 0.889240 -3.090986
v -1.483330 0.889240 -3.297146
v -2.308330 0.835249 -3.130945
v -2.308330 0.835249 -3.234371
v -1.558330 0.835249 -3.130945
v -1.558330 0.835249 -3.234371
v -2.346233 0.835249 -3.130945
v -2.346233 0.835249 -3.234371
v -1.520427 0.835249 -3.130945
v -1.520427 0.835249 -3.234371
v -2.282714 2.243989 -3.090986
v -2.308330 2.269605 -3.065370
v -1.558330 2.269605 -3.065370
v -1.583946 2.243989 -3.090986
v -2.308330 0.889240 -3.065370
v -2.282714 0.914856 -3.090986
v -2.282714 0.889240 -3.090986
v -2.308330 0.889240 -3.116602
v -2.333946 0.889240 -3.090986
v -1.583946 0.914856 -3.090986
v -1.558330 0.889240 -3.065370
v -1.532714 0.889240 -3.090986
v -1.558330 0.889240 -3.116602
v -1.583946 0.889240 -3.090986
vn -1.0000 -0.0000 -0.0000
vn 1.0000 -0.0000 -0.0000
vn -0.0000 -0.0000 1.0000
vn -0.0000 -1.0000 -0.0000
vn -0.0000 1.0000 -0.0000
vn -0.0000 -0.4589 -0.8885
vn -0.0000 0.4295 0.9031
vn -0.0000 0.0529 -0.9986
vn -0.0000 -0.0000 -1.0000
vn -0.2543 0.9331 -0.2543
vn -0.3342 0.1700 -0.9270
vn -0.0858 0.8890 -0.4497
vn -0.0596 0.9964 -0.0596
vn 0.3342 0.1700 -0.9270
vn 0.2543 0.9331 -0.2543
vn 0.0596 0.9964 -0.0596
vn 0.0858 0.8890 -0.4497
vn 0.4082 0.4083 -0.8165
vn -0.4082 0.4083 -0.8165
vn -0.4083 0.4083 -0.8165
vn 0.4083 0.4083 -0.8165
vt 1.058955 0.730843
vt 1.058956 1.089180
vt 1.253653 1.089180
vt 1.253652 0.730843
vt 0.597348 0.730843
vt 0.597348 1.089180
vt 0.402652 1.089180
vt 0.402652 0.730843
vt 0.402652 1.253652
vt 0.597348 1.253652
vt 0.597348 1.058955
vt 0.402652 1.058955
vt 0.597348 1.253653
vt 0.402652 1.253653
vt 0.402652 1.058956
vt 0.597348 1.058956
vt 0.418007 1.302408
vt 0.581993 1.302408
vt 0.581993 1.282084
vt 0.418007 1.282084
vt 0.597348 0.639524
vt 0.616818 0.639524
vt 0.616818 0.730843
vt 0.402652 1.302408
vt 0.597348 1.302408
vt 0.402652 0.730843
vt 0.402652 0.639524
vt 0.383182 0.639524
vt 0.383182 0.730843
vt 0.597348 0.730843
vt 0.402652 0.716827
vt 0.597348 0.716827
vt 0.402652 0.639524
vt 0.597348 0.639524
vt 0.392812 0.730843
vt 0.392812 0.716827
vt 0.597348 1.308761
vt 0.616818 1.308761
vt 0.616818 1.302408
vt 0.402652 1.308761
vt 1.253652 0.639524
vt 1.302408 0.730843
vt 1.302408 0.639524
vt 1.355926 0.730843
vt 1.308761 0.639524
vt 1.058955 0.639524
vt 0.383182 1.302408
vt 0.383182 1.308761
vt 0.383182 1.058955
vt 0.383182 1.253652
vt 0.402652 1.253652
vt 0.383182 1.253652
vt 0.383182 0.730843
vt 0.383182 0.639524
vt 0.616818 1.253652
vt 0.616818 1.058955
vt 0.607188 0.730843
vt 0.607188 0.716827
vt 0.616818 0.730843
vt 0.616818 0.639524
vt 0.597348 1.253652
vt 0.616818 1.253652
vt 0.212601 0.730866
vt 0.212601 0.962522
vt 0.363052 0.962522
vt 0.363052 0.730866
vt 1.302408 0.746198
vt 1.302408 1.073825
vt 1.282084 1.073825
vt 1.282084 0.746198
vt 0.402652 1.346296
vt 0.597348 1.346296
vt 0.597348 1.355926
vt 0.402652 1.355926
vt 0.392812 1.312038
vt 0.392812 1.346296
vt 0.383182 1.355926
vt 0.607188 1.346296
vt 0.607188 1.312038
vt 0.616818 1.355926
vt 0.402652 1.312781
vt 0.402652 1.339630
vt 0.392812 1.339630
vt 0.392812 1.312781
vt 0.597348 1.312781
vt 0.597348 1.339630
vt 0.607188 1.312781
vt 0.607188 1.339630
vt 1.312038 0.730843
vt 1.346296 0.730843
vt 1.339630 0.716827
vt 1.312781 0.716827
vt 1.295758 0.730843
vt 1.302407 0.737493
vt 1.302408 0.737493
vt 1.295758 0.730843
vt 0.590699 1.302408
vt 0.409301 1.302408
vt 0.402651 1.295757
vt 0.597348 1.295758
vt 1.302408 1.082530
vt 1.295758 1.089180
vt 0.581993 1.073825
vt 0.418007 1.073825
vt 0.409301 1.082530
vt 0.590699 1.082530
vt 0.418007 0.746198
vt 0.409301 0.737493
vt 0.581993 0.746198
vt 0.590699 0.737493
vt 0.402652 1.295758
vt 0.396002 1.302408
vt 0.590699 0.730843
vt 0.409301 0.730843
vt 0.597348 1.312038
vt 0.402652 1.312038
vt 0.402652 1.309057
vt 0.409301 1.302408
vt 0.597348 1.309057
vt 0.603998 1.302408
vt 0.597348 1.295758
s 1
usemtl Bricks
f 13/1/1 2/2/1 4/3/1 14/4/1
f 15/4/2 8/3/2 6/2/2 16/1/2
f 16/5/3 6/6/3 2/7/3 13/8/3
f 3/9/4 7/10/4 5/11/4 1/12/4
f 8/13/5 4/14/5 2/15/5 6/16/5
f 9/17/4 12/18/4 42/19/4 41/20/4
f 16/5/3 5/21/3 33/22/3 34/23/3
f 7/10/4 3/9/4 10/24/4 11/25/4
f 46/26/6 20/27/6 30/28/6 48/29/6
f 22/30/7 19/26/7 52/31/7 54/32/7
f 5/21/3 16/5/3 13/8/3 1/33/3
f 20/27/6 46/26/6 47/30/6 21/34/6
f 19/26/7 29/35/7 56/36/7 52/31/7
f 11/25/4 21/37/4 38/38/4 36/39/4
f 11/25/4 10/24/4 20/40/4 21/37/4
f 23/41/1 25/4/1 45/42/1 27/43/1
f 27/43/1 45/42/1 48/44/1 30/45/1
f 24/46/1 28/1/1 25/4/1 23/41/1
f 20/40/4 10/24/4 27/47/4 30/48/4
f 3/9/4 1/12/4 24/49/4 23/50/4
f 13/12/5 14/51/5 25/52/5 28/49/5
f 1/33/3 13/8/3 28/53/3 24/54/3
f 10/24/4 3/9/4 23/50/4 27/47/4
f 31/4/2 32/41/2 36/43/2 49/42/2
f 32/41/2 31/4/2 34/1/2 33/46/2
f 49/42/2 36/43/2 38/45/2 50/44/2
f 5/11/4 7/10/4 32/55/4 33/56/4
f 40/30/8 35/57/8 57/58/8 53/32/8
f 21/34/6 47/30/6 50/59/6 38/60/6
f 15/61/5 16/11/5 34/56/5 31/62/5
f 7/10/4 11/25/4 36/39/4 32/55/4
f 18/18/5 17/17/5 43/20/5 44/19/5
f 17/67/2 9/68/2 41/69/2 43/70/2
f 12/68/1 18/67/1 44/70/1 42/69/1
f 19/71/5 22/72/5 47/73/5 46/74/5
f 26/75/5 29/76/5 48/77/5 45/47/5
f 29/76/5 19/71/5 46/74/5 48/77/5
f 37/78/5 35/79/5 49/39/5 50/80/5
f 22/72/5 37/78/5 50/80/5 47/73/5
f 26/35/8 39/26/8 51/31/8 55/36/8
f 37/57/7 22/30/7 54/32/7 58/58/7
f 35/89/1 37/90/1 58/91/1 57/92/1
f 29/90/2 26/89/2 55/92/2 56/91/2
f 39/26/8 40/30/8 53/32/8 51/31/8
f 63/93/10 64/94/11 65/42/12 66/42/13 67/42/13
f 68/95/14 69/96/15 70/42/16 71/42/16 72/42/17
f 62/97/18 59/98/19 60/99/20 61/100/21
f 59/101/19 64/94/11 63/93/10 60/102/20
f 68/95/14 62/101/18 61/102/21 69/96/15
f 12/103/9 9/104/9 59/105/9 62/106/9
f 4/14/5 8/13/5 61/100/5 60/99/5
f 14/4/1 4/3/1 60/102/1 63/93/1
f 9/104/9 17/107/9 64/108/11 59/105/9
f 8/3/2 15/4/2 69/96/2 61/102/2
f 18/109/9 12/103/9 62/106/9 68/110/14
f 14/51/5 63/111/10 67/112/13 45/47/5 25/52/5
f 17/107/9 18/109/9 68/110/14 72/113/17 65/114/12 64/108/11
f 40/115/5 39/116/5 66/117/13 65/118/12 72/97/17 71/119/16
f 39/116/5 26/75/5 45/47/5 67/112/13 66/117/13
f 70/120/16 69/121/15 15/61/5 31/62/5 49/39/5
f 35/79/5 40/115/5 71/119/16 70/120/16 49/39/5
f 85/1/1 74/2/1 76/3/1 86/4/1
f 87/4/2 80/3/2 78/2/2 88/1/2
f 88/5/3 78/6/3 74/7/3 85/8/3
f 75/9/4 79/10/4 77/11/4 73/12/4
f 80/13/5 76/14/5 74/15/5 78/16/5
f 81/17/4 84/18/4 114/19/4 113/20/4
f 88/5/3 77/21/3 105/22/3 106/23/3
f 79/10/4 75/9/4 82/24/4 83/25/4
f 118/26/6 92/27/6 102/28/6 120/29/6
f 94/30/7 91/26/7 124/31/7 126/32/7
f 77/21/3 88/5/3 85/8/3 73/33/3
f 92/27/6 118/26/6 119/30/6 93/34/6
f 91/26/7 101/35/7 128/36/7 124/31/7
f 83/25/4 93/37/4 110/38/4 108/39/4
f 83/25/4 82/24/4 92/40/4 93/37/4
f 95/41/1 97/4/1 117/42/1 99/43/1
f 99/43/1 117/42/1 120/44/1 102/45/1
f 96/46/1 100/1/1 97/4/1 95/41/1
f 92/40/4 82/24/4 99/47/4 102/48/4
f 75/9/4 73/12/4 96/49/4 95/50/4
f 85/12/5 86/51/5 97/52/5 100/49/5
f 73/33/3 85/8/3 100/53/3 96/54/3
f 82/24/4 75/9/4 95/50/4 99/47/4
f 103/4/2 104/41/2 108/43/2 121/42/2
f 104/41/2 103/4/2 106/1/2 105/46/2
f 121/42/2 108/43/2 110/45/2 122/44/2
f 77/11/4 79/10/4 104/55/4 105/56/4
f 112/30/8 107/57/8 129/58/8 125/32/8
f 93/34/6 119/30/6 122/59/6 110/60/6
f 87/61/5 88/11/5 106/56/5 103/62/5
f 79/10/4 83/25/4 108/39/4 104/55/4
f 90/18/5 89/17/5 115/20/5 116/19/5
f 89/67/2 81/68/2 113/69/2 115/70/2
f 84/68/1 90/67/1 116/70/1 114/69/1
f 91/71/5 94/72/5 119/73/5 118/74/5
f 98/75/5 101/76/5 120/77/5 117/47/5
f 101/76/5 91/71/5 118/74/5 120/77/5
f 109/78/5 107/79/5 121/39/5 122/80/5
f 94/72/5 109/78/5 122/80/5 119/73/5
f 98/35/8 111/26/8 123/31/8 127/36/8
f 109/57/7 94/30/7 126/32/7 130/58/7
f 107/89/1 109/90/1 130/91/1 129/92/1
f 101/90/2 98/89/2 127/92/2 128/91/2
f 111/26/8 112/30/8 125/32/8 123/31/8
f 135/93/10 136/94/11 137/42/12 138/42/13 139/42/13
f 140/95/14 141/96/15 142/42/16 143/42/16 144/42/17
f 134/97/21 131/98/19 132/99/20 133/100/21
f 131/101/19 136/94/11 135/93/10 132/102/20
f 140/95/14 134/101/21 133/102/21 141/96/15
f 84/103/9 81/104/9 131/105/9 134/106/9
f 76/14/5 80/13/5 133/100/5 132/99/5
f 86/4/1 76/3/1 132/102/1 135/93/1
f 81/104/9 89/107/9 136/108/11 131/105/9
f 80/3/2 87/4/2 141/96/2 133/102/2
f 90/109/9 84/103/9 134/106/9 140/110/14
f 86/51/5 135/111/10 139/112/13 117/47/5 97/52/5
f 89/107/9 90/109/9 140/110/14 144/113/17 137/114/12 136/108/11
f 112/115/5 111/116/5 138/117/13 137/118/12 144/97/17 143/119/16
f 111/116/5 98/75/5 117/47/5 139/112/13 138/117/13
f 142/120/16 141/121/15 87/61/5 103/62/5 121/39/5
f 107/79/5 112/115/5 143/119/16 142/120/16 121/39/5
f 157/1/1 146/2/1 148/3/1 158/4/1
f 159/4/2 152/3/2 150/2/2 160/1/2
f 160/5/3 150/6/3 146/7/3 157/8/3
f 147/9/4 151/10/4 149/11/4 145/12/4
f 152/13/5 148/14/5 146/15/5 150/16/5
f 153/17/4 156/18/4 186/19/4 185/20/4
f 160/5/3 149/21/3 177/22/3 178/23/3
f 151/10/4 147/9/4 154/24/4 155/25/4
f 190/26/6 164/27/6 174/28/6 192/29/6
f 166/30/7 163/26/7 196/31/7 198/32/7
f 149/21/3 160/5/3 157/8/3 145/33/3
f 164/27/6 190/26/6 191/30/6 165/34/6
f 163/26/7 173/35/7 200/36/7 196/31/7
f 155/25/4 165/37/4 182/38/4 180/39/4
f 155/25/4 154/24/4 164/40/4 165/37/4
f 167/41/1 169/4/1 189/42/1 171/43/1
f 171/43/1 189/42/1 192/44/1 174/45/1
f 168/46/1 172/1/1 169/4/1 167/41/1
f 164/40/4 154/24/4 171/47/4 174/48/4
f 147/9/4 145/12/4 168/49/4 167/50/4
f 157/12/5 158/51/5 169/52/5 172/49/5
f 145/33/3 157/8/3 172/53/3 168/54/3
f 154/24/4 147/9/4 167/50/4 171/47/4
f 175/4/2 176/41/2 180/43/2 193/42/2
f 176/41/2 175/4/2 178/1/2 177/46/2
f 193/42/2 180/43/2 182/45/2 194/44/2
f 149/11/4 151/10/4 176/55/4 177/56/4
f 184/30/8 179/57/8 201/58/8 197/32/8
f 165/34/6 191/30/6 194/59/6 182/60/6
f 159/61/5 160/11/5 178/56/5 175/62/5
f 151/10/4 155/25/4 180/39/4 176/55/4
f 162/18/5 161/17/5 187/20/5 188/19/5
f 161/67/2 153/68/2 185/69/2 187/70/2
f 156/68/1 162/67/1 188/70/1 186/69/1
f 163/71/5 166/72/5 191/73/5 190/74/5
f 170/75/5 173/76/5 192/77/5 189/47/5
f 173/76/5 163/71/5 190/74/5 192/77/5
f 181/78/5 179/79/5 193/39/5 194/80/5
f 166/72/5 181/78/5 194/80/5 191/73/5
f 170/35/8 183/26/8 195/31/8 199/36/8
f 181/57/7 166/30/7 198/32/7 202/58/7
f 179/89/1 181/90/1 202/91/1 201/92/1
f 173/90/2 170/89/2 199/92/2 200/91/2
f 183/26/8 184/30/8 197/32/8 195/31/8
f 207/93/10 208/94/11 209/42/12 210/42/13 211/42/13
f 212/95/14 213/96/15 214/42/16 215/42/16 216/42/17
f 206/97/18 203/98/20 204/99/20 205/100/21
f 203/101/20 208/94/11 207/93/10 204/102/20
f 212/95/14 206/101/18 205/102/21 213/96/15
f 156/103/9 153/104/9 203/105/9 206/106/9
f 148/14/5 152/13/5 205/100/5 204/99/5
f 158/4/1 148/3/1 204/102/1 207/93/1
f 153/104/9 161/107/9 208/108/11 203/105/9
f 152/3/2 159/4/2 213/96/2 205/102/2
f 162/109/9 156/103/9 206/106/9 212/110/14
f 158/51/5 207/111/10 211/112/13 189/47/5 169/52/5
f 161/107/9 162/109/9 212/110/14 216/113/17 209/114/12 208/108/11
f 184/115/5 183/116/5 210/117/13 209/118/12 216/97/17 215/119/16
f 183/116/5 170/75/5 189/47/5 211/112/13 210/117/13
f 214/120/16 213/121/15 159/61/5 175/62/5 193/39/5
f 179/79/5 184/115/5 215/119/16 214/120/16 193/39/5
usemtl Window
f 43/63/9 41/64/9 42/65/9 44/66/9
f 115/63/9 113/64/9 114/65/9 116/66/9
f 187/63/9 185/64/9 186/65/9 188/66/9
usemtl Dirt
f 51/81/5 52/82/5 56/83/5 55/84/5
f 51/81/5 53/85/5 54/86/5 52/82/5
f 54/86/5 53/85/5 57/87/5 58/88/5
f 123/81/5 124/82/5 128/83/5 127/84/5
f 123/81/5 125/85/5 126/86/5 124/82/5
f 126/86/5 125/85/5 129/87/5 130/88/5
f 195/81/5 196/82/5 200/83/5 199/84/5
f 195/81/5 197/85/5 198/86/5 196/82/5
f 198/86/5 197/85/5 201/87/5 202/88/5
