# Blender 4.5.4 LTS
# www.blender.org
mtllib sm_windows1.mtl
o Windows1
v -0.375000 0.537464 -2.153175
v -0.375000 2.269605 -2.153175
v -0.375000 0.537464 -2.903175
v -0.375000 2.269605 -2.903175
v 0.375000 0.537464 -2.153175
v 0.375000 2.269605 -2.153175
v 0.375000 0.537464 -2.903175
v 0.375000 2.269605 -2.903175
v -0.315850 2.210455 -3.090986
v -0.375000 0.537464 -3.090986
v 0.375000 0.537464 -3.090986
v 0.315850 2.210455 -3.090986
v -0.375000 0.889240 -2.153175
v -0.375000 0.889240 -2.903175
v 0.375000 0.889240 -2.903175
v 0.375000 0.889240 -2.153175
v -0.315850 0.948389 -3.090986
v 0.315850 0.948389 -3.090986
v -0.375000 0.889240 -3.260049
v -0.375000 0.537464 -3.115460
v 0.375000 0.537464 -3.115460
v 0.375000 0.889240 -3.260049
v -0.450000 0.537464 -2.903175
v -0.450000 0.537464 -2.153175
v -0.450000 0.889240 -2.903175
v -0.412903 0.889240 -3.128083
v -0.450000 0.537464 -3.090986
v -0.450000 0.889240 -2.153175
v -0.412903 0.889240 -3.260049
v -0.450000 0.537464 -3.115460
v 0.450000 0.889240 -2.903175
v 0.450000 0.537464 -2.903175
v 0.450000 0.537464 -2.153175
v 0.450000 0.889240 -2.153175
v 0.412903 0.889240 -3.128083
v 0.450000 0.537464 -3.090986
v 0.412903 0.889240 -3.260049
v 0.450000 0.537464 -3.115460
v -0.375000 0.889240 -3.128083
v 0.375000 0.889240 -3.128083
v -0.315850 2.210455 -3.012699
v 0.315850 2.210455 -3.012699
v -0.315850 0.948389 -3.012699
v 0.315850 0.948389 -3.012699
v -0.450000 0.889240 -3.090986
v -0.375000 0.889240 -3.297146
v 0.375000 0.889240 -3.297146
v -0.450000 0.889240 -3.297146
v 0.450000 0.889240 -3.090986
v 0.450000 0.889240 -3.297146
v -0.375000 0.835249 -3.130945
v -0.375000 0.835249 -3.234371
v 0.375000 0.835249 -3.130945
v 0.375000 0.835249 -3.234371
v -0.412903 0.835249 -3.130945
v -0.412903 0.835249 -3.234371
v 0.412903 0.835249 -3.130945
v 0.412903 0.835249 -3.234371
v -0.349384 2.243989 -3.090986
v -0.375000 2.269605 -3.065370
v 0.375000 2.269605 -3.065370
v 0.349384 2.243989 -3.090986
v -0.375000 0.889240 -3.065370
v -0.349384 0.914856 -3.090986
v -0.349384 0.889240 -3.090986
v -0.375000 0.889240 -3.116602
v -0.400616 0.889240 -3.090986
v 0.349384 0.914856 -3.090986
v 0.375000 0.889240 -3.065370
v 0.400616 0.889240 -3.090986
v 0.375000 0.889240 -3.116602
v 0.349384 0.889240 -3.090986
vn -1.0000 -0.0000 -0.0000
vn 1.0000 -0.0000 -0.0000
vn -0.0000 -0.0000 1.0000
vn -0.0000 -1.0000 -0.0000
vn -0.0000 1.0000 -0.0000
vn -0.0000 -0.4589 -0.8885
vn -0.0000 0.4295 0.9031
vn -0.0000 0.0529 -0.9986
vn -0.0000 -0.0000 -1.0000
vn -0.2543 0.9331 -0.2543
vn -0.3342 0.1700 -0.9270
vn -0.0858 0.8890 -0.4497
vn -0.0596 0.9964 -0.0596
vn 0.3342 0.1700 -0.9270
vn 0.2543 0.9331 -0.2543
vn 0.0596 0.9964 -0.0596
vn 0.0858 0.8890 -0.4497
vn 0.4082 0.4083 -0.8165
vn -0.4082 0.4083 -0.8165
vn -0.4083 0.4083 -0.8165
vn 0.4083 0.4083 -0.8165
vt 1.058955 0.730843
vt 1.058956 1.089180
vt 1.253653 1.089180
vt 1.253652 0.730843
vt 0.597348 0.730843
vt 0.597348 1.089180
vt 0.402652 1.089180
vt 0.402652 0.730843
vt 0.402652 1.253652
vt 0.597348 1.253652
vt 0.597348 1.058955
vt 0.402652 1.058955
vt 0.597348 1.253653
vt 0.402652 1.253653
vt 0.402652 1.058956
vt 0.597348 1.058956
vt 0.418007 1.302408
vt 0.581993 1.302408
vt 0.581993 1.282084
vt 0.418007 1.282084
vt 0.597348 0.639524
vt 0.616818 0.639524
vt 0.616818 0.730843
vt 0.402652 1.302408
vt 0.597348 1.302408
vt 0.402652 0.730843
vt 0.402652 0.639524
vt 0.383182 0.639524
vt 0.383182 0.730843
vt 0.597348 0.730843
vt 0.402652 0.716827
vt 0.597348 0.716827
vt 0.402652 0.639524
vt 0.597348 0.639524
vt 0.392812 0.730843
vt 0.392812 0.716827
vt 0.597348 1.308761
vt 0.616818 1.308761
vt 0.616818 1.302408
vt 0.402652 1.308761
vt 1.253652 0.639524
vt 1.302408 0.730843
vt 1.302408 0.639524
vt 1.355926 0.730843
vt 1.308761 0.639524
vt 1.058955 0.639524
vt 0.383182 1.302408
vt 0.383182 1.308761
vt 0.383182 1.058955
vt 0.383182 1.253652
vt 0.402652 1.253652
vt 0.383182 1.253652
vt 0.383182 0.730843
vt 0.383182 0.639524
vt 0.616818 1.253652
vt 0.616818 1.058955
vt 0.607188 0.730843
vt 0.607188 0.716827
vt 0.616818 0.730843
vt 0.616818 0.639524
vt 0.597348 1.253652
vt 0.616818 1.253652
vt 0.212601 0.730866
vt 0.212601 0.962522
vt 0.363052 0.962522
vt 0.363052 0.730866
vt 1.302408 0.746198
vt 1.302408 1.073825
vt 1.282084 1.073825
vt 1.282084 0.746198
vt 0.402652 1.346296
vt 0.597348 1.346296
vt 0.597348 1.355926
vt 0.402652 1.355926
vt 0.392812 1.312038
vt 0.392812 1.346296
vt 0.383182 1.355926
vt 0.607188 1.346296
vt 0.607188 1.312038
vt 0.616818 1.355926
vt 0.402652 1.312781
vt 0.402652 1.339630
vt 0.392812 1.339630
vt 0.392812 1.312781
vt 0.597348 1.312781
vt 0.597348 1.339630
vt 0.607188 1.312781
vt 0.607188 1.339630
vt 1.312038 0.730843
vt 1.346296 0.730843
vt 1.339630 0.716827
vt 1.312781 0.716827
vt 1.295758 0.730843
vt 1.302407 0.737493
vt 1.302408 0.737493
vt 1.295758 0.730843
vt 0.590699 1.302408
vt 0.409301 1.302408
vt 0.402651 1.295757
vt 0.597348 1.295758
vt 1.302408 1.082530
vt 1.295758 1.089180
vt 0.581993 1.073825
vt 0.418007 1.073825
vt 0.409301 1.082530
vt 0.590699 1.082530
vt 0.418007 0.746198
vt 0.409301 0.737493
vt 0.581993 0.746198
vt 0.590699 0.737493
vt 0.402652 1.295758
vt 0.396002 1.302408
vt 0.590699 0.730843
vt 0.409301 0.730843
vt 0.597348 1.312038
vt 0.402652 1.312038
vt 0.402652 1.309057
vt 0.409301 1.302408
vt 0.597348 1.309057
vt 0.603998 1.302408
vt 0.597348 1.295758
s 1
usemtl Bricks
f 13/1/1 2/2/1 4/3/1 14/4/1
f 15/4/2 8/3/2 6/2/2 16/1/2
f 16/5/3 6/6/3 2/7/3 13/8/3
f 3/9/4 7/10/4 5/11/4 1/12/4
f 8/13/5 4/14/5 2/15/5 6/16/5
f 9/17/4 12/18/4 42/19/4 41/20/4
f 16/5/3 5/21/3 33/22/3 34/23/3
f 7/10/4 3/9/4 10/24/4 11/25/4
f 46/26/6 20/27/6 30/28/6 48/29/6
f 22/30/7 19/26/7 52/31/7 54/32/7
f 5/21/3 16/5/3 13/8/3 1/33/3
f 20/27/6 46/26/6 47/30/6 21/34/6
f 19/26/7 29/35/7 56/36/7 52/31/7
f 11/25/4 21/37/4 38/38/4 36/39/4
f 11/25/4 10/24/4 20/40/4 21/37/4
f 23/41/1 25/4/1 45/42/1 27/43/1
f 27/43/1 45/42/1 48/44/1 30/45/1
f 24/46/1 28/1/1 25/4/1 23/41/1
f 20/40/4 10/24/4 27/47/4 30/48/4
f 3/9/4 1/12/4 24/49/4 23/50/4
f 13/12/5 14/51/5 25/52/5 28/49/5
f 1/33/3 13/8/3 28/53/3 24/54/3
f 10/24/4 3/9/4 23/50/4 27/47/4
f 31/4/2 32/41/2 36/43/2 49/42/2
f 32/41/2 31/4/2 34/1/2 33/46/2
f 49/42/2 36/43/2 38/45/2 50/44/2
f 5/11/4 7/10/4 32/55/4 33/56/4
f 40/30/8 35/57/8 57/58/8 53/32/8
f 21/34/6 47/30/6 50/59/6 38/60/6
f 15/61/5 16/11/5 34/56/5 31/62/5
f 7/10/4 11/25/4 36/39/4 32/55/4
f 18/18/5 17/17/5 43/20/5 44/19/5
f 17/67/2 9/68/2 41/69/2 43/70/2
f 12/68/1 18/67/1 44/70/1 42/69/1
f 19/71/5 22/72/5 47/73/5 46/74/5
f 26/75/5 29/76/5 48/77/5 45/47/5
f 29/76/5 19/71/5 46/74/5 48/77/5
f 37/78/5 35/79/5 49/39/5 50/80/5
f 22/72/5 37/78/5 50/80/5 47/73/5
f 26/35/8 39/26/8 51/31/8 55/36/8
f 37/57/7 22/30/7 54/32/7 58/58/7
f 35/89/1 37/90/1 58/91/1 57/92/1
f 29/90/2 26/89/2 55/92/2 56/91/2
f 39/26/8 40/30/8 53/32/8 51/31/8
f 63/93/10 64/94/11 65/42/12 66/42/13 67/42/13
f 68/95/14 69/96/15 70/42/16 71/42/16 72/42/17
f 62/97/18 59/98/19 60/99/20 61/100/21
f 59/101/19 64/94/11 63/93/10 60/102/20
f 68/95/14 62/101/18 61/102/21 69/96/15
f 12/103/9 9/104/9 59/105/9 62/106/9
f 4/14/5 8/13/5 61/100/5 60/99/5
f 14/4/1 4/3/1 60/102/1 63/93/1
f 9/104/9 17/107/9 64/108/11 59/105/9
f 8/3/2 15/4/2 69/96/2 61/102/2
f 18/109/9 12/103/9 62/106/9 68/110/14
f 14/51/5 63/111/10 67/112/13 45/47/5 25/52/5
f 17/107/9 18/109/9 68/110/14 72/113/17 65/114/12 64/108/11
f 40/115/5 39/116/5 66/117/13 65/118/12 72/97/17 71/119/16
f 39/116/5 26/75/5 45/47/5 67/112/13 66/117/13
f 70/120/16 69/121/15 15/61/5 31/62/5 49/39/5
f 35/79/5 40/115/5 71/119/16 70/120/16 49/39/5
usemtl Window
f 43/63/9 41/64/9 42/65/9 44/66/9
usemtl Dirt
f 51/81/5 52/82/5 56/83/5 55/84/5
f 51/81/5 53/85/5 54/86/5 52/82/5
f 54/86/5 53/85/5 57/87/5 58/88/5
