# Blender 4.5.4 LTS
# www.blender.org
mtllib sm_windows2.mtl
o Windows2
v 0.000000 2.260287 -3.077576
v 0.000000 2.317555 -2.416072
v 0.069425 2.251914 -3.077576
v 0.085605 2.307230 -2.416072
v 0.134119 2.227366 -3.077576
v 0.165376 2.276962 -2.416072
v 0.189672 2.188316 -3.077576
v 0.233877 2.228811 -2.416072
v 0.232300 2.137425 -3.077576
v 0.286440 2.166059 -2.416072
v 0.259097 2.078161 -3.077576
v 0.319482 2.092983 -2.416072
v 0.268772 2.010842 -3.077576
v 0.330752 2.014563 -2.416072
v -0.330752 0.607461 -2.416072
v -0.330752 0.607461 -3.077576
v 0.330752 0.607461 -2.416072
v 0.330752 0.607461 -3.077576
v -0.330752 2.014563 -3.077576
v -0.330752 2.014563 -2.416072
v -0.319482 2.092983 -3.077576
v -0.319482 2.092983 -2.416072
v -0.286440 2.166059 -3.077576
v -0.286440 2.166059 -2.416072
v -0.233877 2.228811 -3.077576
v -0.233877 2.228811 -2.416072
v -0.165376 2.276962 -3.077576
v -0.165376 2.276962 -2.416072
v -0.085605 2.307230 -3.077576
v -0.085605 2.307230 -2.416072
v 0.268772 0.827634 -3.077576
v 0.330752 0.770856 -2.416072
v -0.330752 0.770856 -2.416072
v -0.268772 0.827634 -3.077576
v 0.000000 2.317555 -3.077576
v 0.085605 2.307230 -3.077576
v 0.165376 2.276962 -3.077576
v 0.233877 2.228811 -3.077576
v 0.286440 2.166059 -3.077576
v 0.319482 2.092983 -3.077576
v 0.330752 2.014563 -3.077576
v 0.330752 0.770856 -3.077576
v -0.268772 2.010842 -3.077576
v -0.259097 2.078161 -3.077576
v -0.232300 2.137425 -3.077576
v -0.189672 2.188316 -3.077576
v -0.134119 2.227366 -3.077576
v -0.069425 2.251914 -3.077576
v -0.330752 0.770856 -3.077576
v 0.069425 2.251914 -3.016931
v -0.069425 2.251914 -3.016931
v 0.134119 2.227366 -3.016931
v -0.134119 2.227366 -3.016931
v 0.189672 2.188316 -3.016931
v -0.189672 2.188316 -3.016931
v 0.232300 2.137425 -3.016931
v -0.232300 2.137425 -3.016931
v 0.259097 2.078161 -3.016931
v -0.259097 2.078161 -3.016931
v 0.268772 2.010842 -3.016931
v -0.268772 2.010842 -3.016931
v 0.000000 2.260287 -3.016931
v 0.268772 0.827634 -3.016931
v -0.268772 0.827634 -3.016931
v 0.330752 0.737050 -2.416072
v -0.330752 0.737050 -3.077576
v 0.330752 0.737050 -3.077576
v -0.330752 0.737050 -2.416072
v 0.330752 0.660987 -2.416072
v -0.330752 0.660987 -3.077576
v 0.330752 0.660987 -3.077576
v -0.330752 0.660987 -2.416072
v 0.380629 0.660987 -3.127453
v 0.380629 0.737050 -3.127453
v -0.380629 0.660987 -2.366195
v -0.380629 0.737050 -2.366195
v -0.380629 0.737050 -3.127453
v 0.380629 0.737050 -2.366195
v 0.380629 0.660987 -2.366195
v -0.380629 0.660987 -3.127453
vn -0.0000 1.0000 -0.0000
vn 0.2390 0.9710 -0.0000
vn 0.4686 0.8834 -0.0000
vn 0.6766 0.7364 -0.0000
vn 0.8467 0.5320 -0.0000
vn 0.9600 0.2799 -0.0000
vn 0.9975 0.0713 -0.0000
vn -0.0000 -0.0000 1.0000
vn -0.2390 -0.9710 -0.0000
vn -0.4686 -0.8834 -0.0000
vn 0.9600 -0.2799 -0.0000
vn 0.8467 -0.5320 -0.0000
vn -0.0000 -1.0000 -0.0000
vn 0.9975 -0.0713 -0.0000
vn -0.0000 -0.0000 -1.0000
vn 1.0000 -0.0000 -0.0000
vn -1.0000 -0.0000 -0.0000
vn -0.9975 0.0713 -0.0000
vn -0.9600 0.2799 -0.0000
vn -0.8467 0.5320 -0.0000
vn -0.6766 0.7364 -0.0000
vn -0.4686 0.8834 -0.0000
vn -0.9975 -0.0713 -0.0000
vn -0.2390 0.9710 -0.0000
vn 0.6766 -0.7364 -0.0000
vn -0.6766 -0.7364 -0.0000
vn 0.4686 -0.8834 -0.0000
vn -0.8467 -0.5320 -0.0000
vn 0.2390 -0.9710 -0.0000
vn -0.9600 -0.2799 -0.0000
vt 0.500000 1.248785
vt 0.500000 1.087839
vt 0.520828 1.087839
vt 0.520828 1.248785
vt 0.540237 1.087839
vt 0.540237 1.248785
vt 0.556903 1.087839
vt 0.556903 1.248785
vt 1.248785 1.042277
vt 1.087839 1.042277
vt 1.087839 1.027010
vt 1.248785 1.027010
vt 1.087839 1.009230
vt 1.248785 1.009230
vt 1.087839 0.990150
vt 1.248785 0.990150
vt 0.577731 1.009230
vt 0.569692 1.027010
vt 0.430308 1.027010
vt 0.422269 1.009230
vt 0.580473 0.990150
vt 0.419527 0.990150
vt 0.516891 1.248785
vt 0.532632 1.248785
vt 0.532632 1.234030
vt 0.516891 1.234030
vt 1.248785 1.005624
vt 1.248785 1.020043
vt 1.234030 1.020043
vt 1.234030 1.005624
vt 0.500000 1.234030
vt 1.248785 0.989245
vt 1.234030 0.989245
vt 0.565393 1.248785
vt 0.434607 1.248785
vt 0.434607 1.234030
vt 0.565393 1.234030
vt 0.580473 0.660820
vt 0.419527 0.660820
vt 0.419527 0.647797
vt 0.580473 0.647797
vt 0.580473 1.248785
vt 0.580473 1.087839
vt 0.419527 1.087839
vt 0.419527 1.248785
vt 1.248785 0.660820
vt 1.087839 0.660820
vt 1.087839 0.647797
vt 1.248785 0.647797
vt 0.443097 1.248785
vt 0.443097 1.087839
vt 0.459763 1.087839
vt 0.459763 1.248785
vt 1.248785 0.701366
vt 1.234030 0.701366
vt 0.479172 1.087839
vt 0.479172 1.248785
vt 0.556903 1.042277
vt 0.443097 1.042277
vt 0.540237 1.053993
vt 0.459763 1.053993
vt 0.520828 1.061357
vt 0.479172 1.061357
vt 0.500000 1.063869
vt 1.248785 0.687552
vt 1.087839 0.687552
vt 0.419527 0.687552
vt 0.580473 0.687552
vt 0.516891 1.047899
vt 0.500000 1.049936
vt 0.532632 1.041926
vt 0.546148 1.032425
vt 0.556519 1.020043
vt 0.563039 1.005624
vt 0.565393 0.989245
vt 0.565393 0.701366
vt 0.436961 1.005624
vt 0.434607 0.989245
vt 0.443481 1.020043
vt 0.453852 1.032425
vt 0.467368 1.041926
vt 0.483109 1.047899
vt 0.434607 0.701366
vt 0.316023 0.638634
vt 0.324558 0.634863
vt 0.289172 0.634863
vt 0.297707 0.638634
vt 0.331886 0.628864
vt 0.281844 0.628864
vt 0.337510 0.621045
vt 0.276221 0.621045
vt 0.341045 0.611940
vt 0.272685 0.611940
vt 0.342321 0.601598
vt 0.271409 0.601598
vt 0.306865 0.639920
vt 0.342321 0.419821
vt 0.271409 0.419821
vt 1.248785 1.032425
vt 1.234030 1.032425
vt 0.546148 1.248785
vt 0.546148 1.234030
vt 0.453852 1.248785
vt 0.467368 1.248785
vt 0.467368 1.234030
vt 0.453852 1.234030
vt 0.483109 1.248785
vt 0.483109 1.234030
vt 1.248785 0.679327
vt 1.087839 0.679327
vt 0.580473 0.679327
vt 0.419527 0.679327
vt 0.407392 1.260920
vt 0.407392 1.075703
vt 0.592608 1.075703
vt 0.592608 1.260920
vt 1.075703 0.679327
vt 1.260920 0.679327
vt 1.260920 0.660820
vt 1.075703 0.660820
vt 0.592608 0.679327
vt 0.592608 0.660820
vt 0.407392 0.660820
vt 0.407392 0.679327
s 1
usemtl Building2
f 35/1/1 2/2/1 4/3/2 36/4/2
f 36/4/2 4/3/2 6/5/3 37/6/3
f 37/6/3 6/5/3 8/7/4 38/8/4
f 38/9/4 8/10/4 10/11/5 39/12/5
f 39/12/5 10/11/5 12/13/6 40/14/6
f 40/14/6 12/13/6 14/15/7 41/16/7
f 12/17/8 10/18/8 24/19/8 22/20/8
f 14/21/8 12/17/8 22/20/8 20/22/8
f 3/23/9 5/24/10 52/25/10 50/26/9
f 44/27/11 45/28/12 57/29/12 59/30/11
f 1/1/13 3/23/9 50/26/9 62/31/13
f 43/32/14 44/27/11 59/30/11 61/33/14
f 31/34/1 34/35/1 64/36/1 63/37/1
f 69/38/8 72/39/8 15/40/8 17/41/8
f 71/38/15 18/41/15 16/40/15 70/39/15
f 18/42/13 17/43/13 15/44/13 16/45/13
f 71/46/16 69/47/16 17/48/16 18/49/16
f 72/47/17 70/46/17 16/49/17 15/48/17
f 19/16/18 20/15/18 22/13/19 21/14/19
f 21/14/19 22/13/19 24/11/20 23/12/20
f 23/12/20 24/11/20 26/10/21 25/9/21
f 25/50/21 26/51/21 28/52/22 27/53/22
f 13/32/23 31/54/17 63/55/17 60/33/23
f 27/53/22 28/52/22 30/56/24 29/57/24
f 29/57/24 30/56/24 2/2/1 35/1/1
f 10/18/8 8/58/8 26/59/8 24/19/8
f 8/58/8 6/60/8 28/61/8 26/59/8
f 6/60/8 4/62/8 30/63/8 28/61/8
f 2/64/8 30/63/8 4/62/8
f 20/15/18 19/16/18 49/65/17 33/66/17
f 41/16/7 14/15/7 32/66/16 42/65/16
f 34/54/16 43/32/14 61/33/14 64/55/16
f 14/21/8 20/22/8 33/67/8 32/68/8
f 3/69/15 1/70/15 35/64/15 36/62/15
f 5/71/15 3/69/15 36/62/15 37/60/15
f 7/72/15 5/71/15 37/60/15 38/58/15
f 9/73/15 7/72/15 38/58/15 39/18/15
f 11/74/15 9/73/15 39/18/15 40/17/15
f 13/75/15 11/74/15 40/17/15 41/21/15
f 31/76/15 13/75/15 41/21/15 42/68/15
f 44/77/15 43/78/15 19/22/15 21/20/15
f 45/79/15 44/77/15 21/20/15 23/19/15
f 46/80/15 45/79/15 23/19/15 25/59/15
f 47/81/15 46/80/15 25/59/15 27/61/15
f 48/82/15 47/81/15 27/61/15 29/63/15
f 1/70/15 48/82/15 29/63/15 35/64/15
f 43/78/15 34/83/15 49/67/15 19/22/15
f 34/83/15 31/76/15 42/68/15 49/67/15
f 45/28/12 46/99/25 55/100/25 57/29/12
f 5/24/10 7/101/26 54/102/26 52/25/10
f 46/103/25 47/104/27 53/105/27 55/106/25
f 7/99/26 9/28/28 56/29/28 54/100/26
f 47/104/27 48/107/29 51/108/29 53/105/27
f 9/28/28 11/27/30 58/30/30 56/29/28
f 48/107/29 1/1/13 62/31/13 51/108/29
f 11/27/30 13/32/23 60/33/23 58/30/30
f 33/66/17 49/65/17 66/109/17 68/110/17
f 42/65/16 32/66/16 65/110/16 67/109/16
f 42/68/15 67/111/15 66/112/15 49/67/15
f 32/68/8 33/67/8 68/112/8 65/111/8
f 68/44/1 66/45/1 77/113/1 76/114/1
f 72/44/13 69/43/13 79/115/13 75/114/13
f 66/45/1 67/42/1 74/116/1 77/113/1
f 70/45/13 72/44/13 75/114/13 80/113/13
f 76/117/17 77/118/17 80/119/17 75/120/17
f 74/118/16 78/117/16 79/120/16 73/119/16
f 74/121/15 73/122/15 80/123/15 77/124/15
f 78/121/8 76/124/8 75/123/8 79/122/8
f 69/43/13 71/42/13 73/116/13 79/115/13
f 65/43/1 68/44/1 76/114/1 78/115/1
f 67/42/1 65/43/1 78/115/1 74/116/1
f 71/42/13 70/45/13 80/113/13 73/116/13
usemtl Window
f 50/84/15 52/85/15 53/86/15 51/87/15
f 52/85/15 54/88/15 55/89/15 53/86/15
f 54/88/15 56/90/15 57/91/15 55/89/15
f 56/90/15 58/92/15 59/93/15 57/91/15
f 58/92/15 60/94/15 61/95/15 59/93/15
f 62/96/15 50/84/15 51/87/15
f 60/94/15 63/97/15 64/98/15 61/95/15
