# Blender 4.5.4 LTS
# www.blender.org
mtllib sm_windowstriple2.mtl
o Windows2Triple
v 0.000000 2.260287 -3.077576
v 0.000000 2.317555 -2.416072
v 0.069425 2.251914 -3.077576
v 0.085605 2.307230 -2.416072
v 0.134119 2.227366 -3.077576
v 0.165376 2.276962 -2.416072
v 0.189672 2.188316 -3.077576
v 0.233877 2.228811 -2.416072
v 0.232300 2.137425 -3.077576
v 0.286440 2.166059 -2.416072
v 0.259097 2.078161 -3.077576
v 0.319482 2.092983 -2.416072
v 0.268772 2.010842 -3.077576
v 0.330752 2.014563 -2.416072
v -0.330752 0.607461 -2.416072
v -0.330752 0.607461 -3.077576
v 0.330752 0.607461 -2.416072
v 0.330752 0.607461 -3.077576
v -0.330752 2.014563 -3.077576
v -0.330752 2.014563 -2.416072
v -0.319482 2.092983 -3.077576
v -0.319482 2.092983 -2.416072
v -0.286440 2.166059 -3.077576
v -0.286440 2.166059 -2.416072
v -0.233877 2.228811 -3.077576
v -0.233877 2.228811 -2.416072
v -0.165376 2.276962 -3.077576
v -0.165376 2.276962 -2.416072
v -0.085605 2.307230 -3.077576
v -0.085605 2.307230 -2.416072
v 0.268772 0.827634 -3.077576
v 0.330752 0.770856 -2.416072
v -0.330752 0.770856 -2.416072
v -0.268772 0.827634 -3.077576
v 0.000000 2.317555 -3.077576
v 0.085605 2.307230 -3.077576
v 0.165376 2.276962 -3.077576
v 0.233877 2.228811 -3.077576
v 0.286440 2.166059 -3.077576
v 0.319482 2.092983 -3.077576
v 0.330752 2.014563 -3.077576
v 0.330752 0.770856 -3.077576
v -0.268772 2.010842 -3.077576
v -0.259097 2.078161 -3.077576
v -0.232300 2.137425 -3.077576
v -0.189672 2.188316 -3.077576
v -0.134119 2.227366 -3.077576
v -0.069425 2.251914 -3.077576
v -0.330752 0.770856 -3.077576
v 0.069425 2.251914 -3.016931
v -0.069425 2.251914 -3.016931
v 0.134119 2.227366 -3.016931
v -0.134119 2.227366 -3.016931
v 0.189672 2.188316 -3.016931
v -0.189672 2.188316 -3.016931
v 0.232300 2.137425 -3.016931
v -0.232300 2.137425 -3.016931
v 0.259097 2.078161 -3.016931
v -0.259097 2.078161 -3.016931
v 0.268772 2.010842 -3.016931
v -0.268772 2.010842 -3.016931
v 0.000000 2.260287 -3.016931
v 0.268772 0.827634 -3.016931
v -0.268772 0.827634 -3.016931
v 0.330752 0.737050 -2.416072
v -0.330752 0.737050 -3.077576
v 0.330752 0.737050 -3.077576
v -0.330752 0.737050 -2.416072
v 0.330752 0.660987 -2.416072
v -0.330752 0.660987 -3.077576
v 0.330752 0.660987 -3.077576
v -0.330752 0.660987 -2.416072
v 0.380629 0.660987 -3.127453
v 0.380629 0.737050 -3.127453
v -0.380629 0.660987 -2.366195
v -0.380629 0.737050 -2.366195
v -0.380629 0.737050 -3.127453
v 0.380629 0.737050 -2.366195
v 0.380629 0.660987 -2.366195
v -0.380629 0.660987 -3.127453
v 1.933330 2.260287 -3.077576
v 1.933330 2.317555 -2.416072
v 2.002755 2.251914 -3.077576
v 2.018935 2.307230 -2.416072
v 2.067449 2.227366 -3.077576
v 2.098706 2.276962 -2.416072
v 2.123002 2.188316 -3.077576
v 2.167207 2.228811 -2.416072
v 2.165630 2.137425 -3.077576
v 2.219770 2.166059 -2.416072
v 2.192427 2.078161 -3.077576
v 2.252812 2.092983 -2.416072
v 2.202102 2.010842 -3.077576
v 2.264082 2.014563 -2.416072
v 1.602578 0.607461 -2.416072
v 1.602578 0.607461 -3.077576
v 2.264082 0.607461 -2.416072
v 2.264082 0.607461 -3.077576
v 1.602578 2.014563 -3.077576
v 1.602578 2.014563 -2.416072
v 1.613848 2.092983 -3.077576
v 1.613848 2.092983 -2.416072
v 1.646890 2.166059 -3.077576
v 1.646890 2.166059 -2.416072
v 1.699453 2.228811 -3.077576
v 1.699453 2.228811 -2.416072
v 1.767954 2.276962 -3.077576
v 1.767954 2.276962 -2.416072
v 1.847725 2.307230 -3.077576
v 1.847725 2.307230 -2.416072
v 2.202102 0.827634 -3.077576
v 2.264082 0.770856 -2.416072
v 1.602578 0.770856 -2.416072
v 1.664558 0.827634 -3.077576
v 1.933330 2.317555 -3.077576
v 2.018935 2.307230 -3.077576
v 2.098706 2.276962 -3.077576
v 2.167207 2.228811 -3.077576
v 2.219770 2.166059 -3.077576
v 2.252812 2.092983 -3.077576
v 2.264082 2.014563 -3.077576
v 2.264082 0.770856 -3.077576
v 1.664558 2.010842 -3.077576
v 1.674233 2.078161 -3.077576
v 1.701030 2.137425 -3.077576
v 1.743658 2.188316 -3.077576
v 1.799212 2.227366 -3.077576
v 1.863905 2.251914 -3.077576
v 1.602578 0.770856 -3.077576
v 2.002755 2.251914 -3.016931
v 1.863905 2.251914 -3.016931
v 2.067449 2.227366 -3.016931
v 1.799212 2.227366 -3.016931
v 2.123002 2.188316 -3.016931
v 1.743658 2.188316 -3.016931
v 2.165630 2.137425 -3.016931
v 1.701030 2.137425 -3.016931
v 2.192427 2.078161 -3.016931
v 1.674233 2.078161 -3.016931
v 2.202102 2.010842 -3.016931
v 1.664558 2.010842 -3.016931
v 1.933330 2.260287 -3.016931
v 2.202102 0.827634 -3.016931
v 1.664558 0.827634 -3.016931
v 2.264082 0.737050 -2.416072
v 1.602578 0.737050 -3.077576
v 2.264082 0.737050 -3.077576
v 1.602578 0.737050 -2.416072
v 2.264082 0.660987 -2.416072
v 1.602578 0.660987 -3.077576
v 2.264082 0.660987 -3.077576
v 1.602578 0.660987 -2.416072
v 2.313959 0.660987 -3.127453
v 2.313959 0.737050 -3.127453
v 1.552701 0.660987 -2.366195
v 1.552701 0.737050 -2.366195
v 1.552701 0.737050 -3.127453
v 2.313959 0.737050 -2.366195
v 2.313959 0.660987 -2.366195
v 1.552701 0.660987 -3.127453
v -1.933330 2.260287 -3.077576
v -1.933330 2.317555 -2.416072
v -1.863905 2.251914 -3.077576
v -1.847725 2.307230 -2.416072
v -1.799212 2.227366 -3.077576
v -1.767954 2.276962 -2.416072
v -1.743658 2.188316 -3.077576
v -1.699453 2.228811 -2.416072
v -1.701030 2.137425 -3.077576
v -1.646890 2.166059 -2.416072
v -1.674233 2.078161 -3.077576
v -1.613848 2.092983 -2.416072
v -1.664558 2.010842 -3.077576
v -1.602578 2.014563 -2.416072
v -2.264082 0.607461 -2.416072
v -2.264082 0.607461 -3.077576
v -1.602578 0.607461 -2.416072
v -1.602578 0.607461 -3.077576
v -2.264082 2.014563 -3.077576
v -2.264082 2.014563 -2.416072
v -2.252812 2.092983 -3.077576
v -2.252812 2.092983 -2.416072
v -2.219770 2.166059 -3.077576
v -2.219770 2.166059 -2.416072
v -2.167207 2.228811 -3.077576
v -2.167207 2.228811 -2.416072
v -2.098706 2.276962 -3.077576
v -2.098706 2.276962 -2.416072
v -2.018935 2.307230 -3.077576
v -2.018935 2.307230 -2.416072
v -1.664558 0.827634 -3.077576
v -1.602578 0.770856 -2.416072
v -2.264082 0.770856 -2.416072
v -2.202102 0.827634 -3.077576
v -1.933330 2.317555 -3.077576
v -1.847725 2.307230 -3.077576
v -1.767954 2.276962 -3.077576
v -1.699453 2.228811 -3.077576
v -1.646890 2.166059 -3.077576
v -1.613848 2.092983 -3.077576
v -1.602578 2.014563 -3.077576
v -1.602578 0.770856 -3.077576
v -2.202102 2.010842 -3.077576
v -2.192427 2.078161 -3.077576
v -2.165630 2.137425 -3.077576
v -2.123002 2.188316 -3.077576
v -2.067449 2.227366 -3.077576
v -2.002755 2.251914 -3.077576
v -2.264082 0.770856 -3.077576
v -1.863905 2.251914 -3.016931
v -2.002755 2.251914 -3.016931
v -1.799212 2.227366 -3.016931
v -2.067449 2.227366 -3.016931
v -1.743658 2.188316 -3.016931
v -2.123002 2.188316 -3.016931
v -1.701030 2.137425 -3.016931
v -2.165630 2.137425 -3.016931
v -1.674233 2.078161 -3.016931
v -2.192427 2.078161 -3.016931
v -1.664558 2.010842 -3.016931
v -2.202102 2.010842 -3.016931
v -1.933330 2.260287 -3.016931
v -1.664558 0.827634 -3.016931
v -2.202102 0.827634 -3.016931
v -1.602578 0.737050 -2.416072
v -2.264082 0.737050 -3.077576
v -1.602578 0.737050 -3.077576
v -2.264082 0.737050 -2.416072
v -1.602578 0.660987 -2.416072
v -2.264082 0.660987 -3.077576
v -1.602578 0.660987 -3.077576
v -2.264082 0.660987 -2.416072
v -1.552701 0.660987 -3.127453
v -1.552701 0.737050 -3.127453
v -2.313959 0.660987 -2.366195
v -2.313959 0.737050 -2.366195
v -2.313959 0.737050 -3.127453
v -1.552701 0.737050 -2.366195
v -1.552701 0.660987 -2.366195
v -2.313959 0.660987 -3.127453
vn -0.0000 1.0000 -0.0000
vn 0.2390 0.9710 -0.0000
vn 0.4686 0.8834 -0.0000
vn 0.6766 0.7364 -0.0000
vn 0.8467 0.5320 -0.0000
vn 0.9600 0.2799 -0.0000
vn 0.9975 0.0713 -0.0000
vn -0.0000 -0.0000 1.0000
vn -0.2390 -0.9710 -0.0000
vn -0.4686 -0.8834 -0.0000
vn 0.9600 -0.2799 -0.0000
vn 0.8467 -0.5320 -0.0000
vn -0.0000 -1.0000 -0.0000
vn 0.9975 -0.0713 -0.0000
vn -0.0000 -0.0000 -1.0000
vn 1.0000 -0.0000 -0.0000
vn -1.0000 -0.0000 -0.0000
vn -0.9975 0.0713 -0.0000
vn -0.9600 0.2799 -0.0000
vn -0.8467 0.5320 -0.0000
vn -0.6766 0.7364 -0.0000
vn -0.4686 0.8834 -0.0000
vn -0.9975 -0.0713 -0.0000
vn -0.2390 0.9710 -0.0000
vn 0.6766 -0.7364 -0.0000
vn -0.6766 -0.7364 -0.0000
vn 0.4686 -0.8834 -0.0000
vn -0.8467 -0.5320 -0.0000
vn 0.2390 -0.9710 -0.0000
vn -0.9600 -0.2799 -0.0000
vt 0.500000 1.248785
vt 0.500000 1.087839
vt 0.520828 1.087839
vt 0.520828 1.248785
vt 0.540237 1.087839
vt 0.540237 1.248785
vt 0.556903 1.087839
vt 0.556903 1.248785
vt 1.248785 1.042277
vt 1.087839 1.042277
vt 1.087839 1.027010
vt 1.248785 1.027010
vt 1.087839 1.009230
vt 1.248785 1.009230
vt 1.087839 0.990150
vt 1.248785 0.990150
vt 0.577731 1.009230
vt 0.569692 1.027010
vt 0.430308 1.027010
vt 0.422269 1.009230
vt 0.580473 0.990150
vt 0.419527 0.990150
vt 0.516891 1.248785
vt 0.532632 1.248785
vt 0.532632 1.234030
vt 0.516891 1.234030
vt 1.248785 1.005624
vt 1.248785 1.020043
vt 1.234030 1.020043
vt 1.234030 1.005624
vt 0.500000 1.234030
vt 1.248785 0.989245
vt 1.234030 0.989245
vt 0.565393 1.248785
vt 0.434607 1.248785
vt 0.434607 1.234030
vt 0.565393 1.234030
vt 0.580473 0.660820
vt 0.419527 0.660820
vt 0.419527 0.647797
vt 0.580473 0.647797
vt 0.580473 1.248785
vt 0.580473 1.087839
vt 0.419527 1.087839
vt 0.419527 1.248785
vt 1.248785 0.660820
vt 1.087839 0.660820
vt 1.087839 0.647797
vt 1.248785 0.647797
vt 0.443097 1.248785
vt 0.443097 1.087839
vt 0.459763 1.087839
vt 0.459763 1.248785
vt 1.248785 0.701366
vt 1.234030 0.701366
vt 0.479172 1.087839
vt 0.479172 1.248785
vt 0.556903 1.042277
vt 0.443097 1.042277
vt 0.540237 1.053993
vt 0.459763 1.053993
vt 0.520828 1.061357
vt 0.479172 1.061357
vt 0.500000 1.063869
vt 1.248785 0.687552
vt 1.087839 0.687552
vt 0.419527 0.687552
vt 0.580473 0.687552
vt 0.516891 1.047899
vt 0.500000 1.049936
vt 0.532632 1.041926
vt 0.546148 1.032425
vt 0.556519 1.020043
vt 0.563039 1.005624
vt 0.565393 0.989245
vt 0.565393 0.701366
vt 0.436961 1.005624
vt 0.434607 0.989245
vt 0.443481 1.020043
vt 0.453852 1.032425
vt 0.467368 1.041926
vt 0.483109 1.047899
vt 0.434607 0.701366
vt 0.316023 0.638634
vt 0.324558 0.634863
vt 0.289172 0.634863
vt 0.297707 0.638634
vt 0.331886 0.628864
vt 0.281844 0.628864
vt 0.337510 0.621045
vt 0.276221 0.621045
vt 0.341045 0.611940
vt 0.272685 0.611940
vt 0.342321 0.601598
vt 0.271409 0.601598
vt 0.306865 0.639920
vt 0.342321 0.419821
vt 0.271409 0.419821
vt 1.248785 1.032425
vt 1.234030 1.032425
vt 0.546148 1.248785
vt 0.546148 1.234030
vt 0.453852 1.248785
vt 0.467368 1.248785
vt 0.467368 1.234030
vt 0.453852 1.234030
vt 0.483109 1.248785
vt 0.483109 1.234030
vt 1.248785 0.679327
vt 1.087839 0.679327
vt 0.580473 0.679327
vt 0.419527 0.679327
vt 0.407392 1.260920
vt 0.407392 1.075703
vt 0.592608 1.075703
vt 0.592608 1.260920
vt 1.075703 0.679327
vt 1.260920 0.679327
vt 1.260920 0.660820
vt 1.075703 0.660820
vt 0.592608 0.679327
vt 0.592608 0.660820
vt 0.407392 0.660820
vt 0.407392 0.679327
s 1
usemtl Building2
f 35/1/1 2/2/1 4/3/2 36/4/2
f 36/4/2 4/3/2 6/5/3 37/6/3
f 37/6/3 6/5/3 8/7/4 38/8/4
f 38/9/4 8/10/4 10/11/5 39/12/5
f 39/12/5 10/11/5 12/13/6 40/14/6
f 40/14/6 12/13/6 14/15/7 41/16/7
f 12/17/8 10/18/8 24/19/8 22/20/8
f 14/21/8 12/17/8 22/20/8 20/22/8
f 3/23/9 5/24/10 52/25/10 50/26/9
f 44/27/11 45/28/12 57/29/12 59/30/11
f 1/1/13 3/23/9 50/26/9 62/31/13
f 43/32/14 44/27/11 59/30/11 61/33/14
f 31/34/1 34/35/1 64/36/1 63/37/1
f 69/38/8 72/39/8 15/40/8 17/41/8
f 71/38/15 18/41/15 16/40/15 70/39/15
f 18/42/13 17/43/13 15/44/13 16/45/13
f 71/46/16 69/47/16 17/48/16 18/49/16
f 72/47/17 70/46/17 16/49/17 15/48/17
f 19/16/18 20/15/18 22/13/19 21/14/19
f 21/14/19 22/13/19 24/11/20 23/12/20
f 23/12/20 24/11/20 26/10/21 25/9/21
f 25/50/21 26/51/21 28/52/22 27/53/22
f 13/32/23 31/54/17 63/55/17 60/33/23
f 27/53/22 28/52/22 30/56/24 29/57/24
f 29/57/24 30/56/24 2/2/1 35/1/1
f 10/18/8 8/58/8 26/59/8 24/19/8
f 8/58/8 6/60/8 28/61/8 26/59/8
f 6/60/8 4/62/8 30/63/8 28/61/8
f 2/64/8 30/63/8 4/62/8
f 20/15/18 19/16/18 49/65/17 33/66/17
f 41/16/7 14/15/7 32/66/16 42/65/16
f 34/54/16 43/32/14 61/33/14 64/55/16
f 14/21/8 20/22/8 33/67/8 32/68/8
f 3/69/15 1/70/15 35/64/15 36/62/15
f 5/71/15 3/69/15 36/62/15 37/60/15
f 7/72/15 5/71/15 37/60/15 38/58/15
f 9/73/15 7/72/15 38/58/15 39/18/15
f 11/74/15 9/73/15 39/18/15 40/17/15
f 13/75/15 11/74/15 40/17/15 41/21/15
f 31/76/15 13/75/15 41/21/15 42/68/15
f 44/77/15 43/78/15 19/22/15 21/20/15
f 45/79/15 44/77/15 21/20/15 23/19/15
f 46/80/15 45/79/15 23/19/15 25/59/15
f 47/81/15 46/80/15 25/59/15 27/61/15
f 48/82/15 47/81/15 27/61/15 29/63/15
f 1/70/15 48/82/15 29/63/15 35/64/15
f 43/78/15 34/83/15 49/67/15 19/22/15
f 34/83/15 31/76/15 42/68/15 49/67/15
f 45/28/12 46/99/25 55/100/25 57/29/12
f 5/24/10 7/101/26 54/102/26 52/25/10
f 46/103/25 47/104/27 53/105/27 55/106/25
f 7/99/26 9/28/28 56/29/28 54/100/26
f 47/104/27 48/107/29 51/108/29 53/105/27
f 9/28/28 11/27/30 58/30/30 56/29/28
f 48/107/29 1/1/13 62/31/13 51/108/29
f 11/27/30 13/32/23 60/33/23 58/30/30
f 33/66/17 49/65/17 66/109/17 68/110/17
f 42/65/16 32/66/16 65/110/16 67/109/16
f 42/68/15 67/111/15 66/112/15 49/67/15
f 32/68/8 33/67/8 68/112/8 65/111/8
f 68/44/1 66/45/1 77/113/1 76/114/1
f 72/44/13 69/43/13 79/115/13 75/114/13
f 66/45/1 67/42/1 74/116/1 77/113/1
f 70/45/13 72/44/13 75/114/13 80/113/13
f 76/117/17 77/118/17 80/119/17 75/120/17
f 74/118/16 78/117/16 79/120/16 73/119/16
f 74/121/15 73/122/15 80/123/15 77/124/15
f 78/121/8 76/124/8 75/123/8 79/122/8
f 69/43/13 71/42/13 73/116/13 79/115/13
f 65/43/1 68/44/1 76/114/1 78/115/1
f 67/42/1 65/43/1 78/115/1 74/116/1
f 71/42/13 70/45/13 80/113/13 73/116/13
f 115/1/1 82/2/1 84/3/2 116/4/2
f 116/4/2 84/3/2 86/5/3 117/6/3
f 117/6/3 86/5/3 88/7/4 118/8/4
f 118/9/4 88/10/4 90/11/5 119/12/5
f 119/12/5 90/11/5 92/13/6 120/14/6
f 120/14/6 92/13/6 94/15/7 121/16/7
f 92/17/8 90/18/8 104/19/8 102/20/8
f 94/21/8 92/17/8 102/20/8 100/22/8
f 83/23/9 85/24/10 132/25/10 130/26/9
f 124/27/11 125/28/12 137/29/12 139/30/11
f 81/1/13 83/23/9 130/26/9 142/31/13
f 123/32/14 124/27/11 139/30/11 141/33/14
f 111/34/1 114/35/1 144/36/1 143/37/1
f 149/38/8 152/39/8 95/40/8 97/41/8
f 151/38/15 98/41/15 96/40/15 150/39/15
f 98/42/13 97/43/13 95/44/13 96/45/13
f 151/46/16 149/47/16 97/48/16 98/49/16
f 152/47/17 150/46/17 96/49/17 95/48/17
f 99/16/18 100/15/18 102/13/19 101/14/19
f 101/14/19 102/13/19 104/11/20 103/12/20
f 103/12/20 104/11/20 106/10/21 105/9/21
f 105/50/21 106/51/21 108/52/22 107/53/22
f 93/32/23 111/54/17 143/55/17 140/33/23
f 107/53/22 108/52/22 110/56/24 109/57/24
f 109/57/24 110/56/24 82/2/1 115/1/1
f 90/18/8 88/58/8 106/59/8 104/19/8
f 88/58/8 86/60/8 108/61/8 106/59/8
f 86/60/8 84/62/8 110/63/8 108/61/8
f 82/64/8 110/63/8 84/62/8
f 100/15/18 99/16/18 129/65/17 113/66/17
f 121/16/7 94/15/7 112/66/16 122/65/16
f 114/54/16 123/32/14 141/33/14 144/55/16
f 94/21/8 100/22/8 113/67/8 112/68/8
f 83/69/15 81/70/15 115/64/15 116/62/15
f 85/71/15 83/69/15 116/62/15 117/60/15
f 87/72/15 85/71/15 117/60/15 118/58/15
f 89/73/15 87/72/15 118/58/15 119/18/15
f 91/74/15 89/73/15 119/18/15 120/17/15
f 93/75/15 91/74/15 120/17/15 121/21/15
f 111/76/15 93/75/15 121/21/15 122/68/15
f 124/77/15 123/78/15 99/22/15 101/20/15
f 125/79/15 124/77/15 101/20/15 103/19/15
f 126/80/15 125/79/15 103/19/15 105/59/15
f 127/81/15 126/80/15 105/59/15 107/61/15
f 128/82/15 127/81/15 107/61/15 109/63/15
f 81/70/15 128/82/15 109/63/15 115/64/15
f 123/78/15 114/83/15 129/67/15 99/22/15
f 114/83/15 111/76/15 122/68/15 129/67/15
f 125/28/12 126/99/25 135/100/25 137/29/12
f 85/24/10 87/101/26 134/102/26 132/25/10
f 126/103/25 127/104/27 133/105/27 135/106/25
f 87/99/26 89/28/28 136/29/28 134/100/26
f 127/104/27 128/107/29 131/108/29 133/105/27
f 89/28/28 91/27/30 138/30/30 136/29/28
f 128/107/29 81/1/13 142/31/13 131/108/29
f 91/27/30 93/32/23 140/33/23 138/30/30
f 113/66/17 129/65/17 146/109/17 148/110/17
f 122/65/16 112/66/16 145/110/16 147/109/16
f 122/68/15 147/111/15 146/112/15 129/67/15
f 112/68/8 113/67/8 148/112/8 145/111/8
f 148/44/1 146/45/1 157/113/1 156/114/1
f 152/44/13 149/43/13 159/115/13 155/114/13
f 146/45/1 147/42/1 154/116/1 157/113/1
f 150/45/13 152/44/13 155/114/13 160/113/13
f 156/117/17 157/118/17 160/119/17 155/120/17
f 154/118/16 158/117/16 159/120/16 153/119/16
f 154/121/15 153/122/15 160/123/15 157/124/15
f 158/121/8 156/124/8 155/123/8 159/122/8
f 149/43/13 151/42/13 153/116/13 159/115/13
f 145/43/1 148/44/1 156/114/1 158/115/1
f 147/42/1 145/43/1 158/115/1 154/116/1
f 151/42/13 150/45/13 160/113/13 153/116/13
f 195/1/1 162/2/1 164/3/2 196/4/2
f 196/4/2 164/3/2 166/5/3 197/6/3
f 197/6/3 166/5/3 168/7/4 198/8/4
f 198/9/4 168/10/4 170/11/5 199/12/5
f 199/12/5 170/11/5 172/13/6 200/14/6
f 200/14/6 172/13/6 174/15/7 201/16/7
f 172/17/8 170/18/8 184/19/8 182/20/8
f 174/21/8 172/17/8 182/20/8 180/22/8
f 163/23/9 165/24/10 212/25/10 210/26/9
f 204/27/11 205/28/12 217/29/12 219/30/11
f 161/1/13 163/23/9 210/26/9 222/31/13
f 203/32/14 204/27/11 219/30/11 221/33/14
f 191/34/1 194/35/1 224/36/1 223/37/1
f 229/38/8 232/39/8 175/40/8 177/41/8
f 231/38/15 178/41/15 176/40/15 230/39/15
f 178/42/13 177/43/13 175/44/13 176/45/13
f 231/46/16 229/47/16 177/48/16 178/49/16
f 232/47/17 230/46/17 176/49/17 175/48/17
f 179/16/18 180/15/18 182/13/19 181/14/19
f 181/14/19 182/13/19 184/11/20 183/12/20
f 183/12/20 184/11/20 186/10/21 185/9/21
f 185/50/21 186/51/21 188/52/22 187/53/22
f 173/32/23 191/54/17 223/55/17 220/33/23
f 187/53/22 188/52/22 190/56/24 189/57/24
f 189/57/24 190/56/24 162/2/1 195/1/1
f 170/18/8 168/58/8 186/59/8 184/19/8
f 168/58/8 166/60/8 188/61/8 186/59/8
f 166/60/8 164/62/8 190/63/8 188/61/8
f 162/64/8 190/63/8 164/62/8
f 180/15/18 179/16/18 209/65/17 193/66/17
f 201/16/7 174/15/7 192/66/16 202/65/16
f 194/54/16 203/32/14 221/33/14 224/55/16
f 174/21/8 180/22/8 193/67/8 192/68/8
f 163/69/15 161/70/15 195/64/15 196/62/15
f 165/71/15 163/69/15 196/62/15 197/60/15
f 167/72/15 165/71/15 197/60/15 198/58/15
f 169/73/15 167/72/15 198/58/15 199/18/15
f 171/74/15 169/73/15 199/18/15 200/17/15
f 173/75/15 171/74/15 200/17/15 201/21/15
f 191/76/15 173/75/15 201/21/15 202/68/15
f 204/77/15 203/78/15 179/22/15 181/20/15
f 205/79/15 204/77/15 181/20/15 183/19/15
f 206/80/15 205/79/15 183/19/15 185/59/15
f 207/81/15 206/80/15 185/59/15 187/61/15
f 208/82/15 207/81/15 187/61/15 189/63/15
f 161/70/15 208/82/15 189/63/15 195/64/15
f 203/78/15 194/83/15 209/67/15 179/22/15
f 194/83/15 191/76/15 202/68/15 209/67/15
f 205/28/12 206/99/25 215/100/25 217/29/12
f 165/24/10 167/101/26 214/102/26 212/25/10
f 206/103/25 207/104/27 213/105/27 215/106/25
f 167/99/26 169/28/28 216/29/28 214/100/26
f 207/104/27 208/107/29 211/108/29 213/105/27
f 169/28/28 171/27/30 218/30/30 216/29/28
f 208/107/29 161/1/13 222/31/13 211/108/29
f 171/27/30 173/32/23 220/33/23 218/30/30
f 193/66/17 209/65/17 226/109/17 228/110/17
f 202/65/16 192/66/16 225/110/16 227/109/16
f 202/68/15 227/111/15 226/112/15 209/67/15
f 192/68/8 193/67/8 228/112/8 225/111/8
f 228/44/1 226/45/1 237/113/1 236/114/1
f 232/44/13 229/43/13 239/115/13 235/114/13
f 226/45/1 227/42/1 234/116/1 237/113/1
f 230/45/13 232/44/13 235/114/13 240/113/13
f 236/117/17 237/118/17 240/119/17 235/120/17
f 234/118/16 238/117/16 239/120/16 233/119/16
f 234/121/15 233/122/15 240/123/15 237/124/15
f 238/121/8 236/124/8 235/123/8 239/122/8
f 229/43/13 231/42/13 233/116/13 239/115/13
f 225/43/1 228/44/1 236/114/1 238/115/1
f 227/42/1 225/43/1 238/115/1 234/116/1
f 231/42/13 230/45/13 240/113/13 233/116/13
usemtl Window
f 50/84/15 52/85/15 53/86/15 51/87/15
f 52/85/15 54/88/15 55/89/15 53/86/15
f 54/88/15 56/90/15 57/91/15 55/89/15
f 56/90/15 58/92/15 59/93/15 57/91/15
f 58/92/15 60/94/15 61/95/15 59/93/15
f 62/96/15 50/84/15 51/87/15
f 60/94/15 63/97/15 64/98/15 61/95/15
f 130/84/15 132/85/15 133/86/15 131/87/15
f 132/85/15 134/88/15 135/89/15 133/86/15
f 134/88/15 136/90/15 137/91/15 135/89/15
f 136/90/15 138/92/15 139/93/15 137/91/15
f 138/92/15 140/94/15 141/95/15 139/93/15
f 142/96/15 130/84/15 131/87/15
f 140/94/15 143/97/15 144/98/15 141/95/15
f 210/84/15 212/85/15 213/86/15 211/87/15
f 212/85/15 214/88/15 215/89/15 213/86/15
f 214/88/15 216/90/15 217/91/15 215/89/15
f 216/90/15 218/92/15 219/93/15 217/91/15
f 218/92/15 220/94/15 221/95/15 219/93/15
f 222/96/15 210/84/15 211/87/15
f 220/94/15 223/97/15 224/98/15 221/95/15
