# Blender 4.5.4 LTS
# www.blender.org
mtllib sm_dirtplot.mtl
o DirtPlot
v -2.000000 0.000000 2.000000
v -2.000000 0.000000 -2.000000
v 2.000000 0.000000 2.000000
v 2.000000 0.000000 -2.000000
v -1.676212 0.414405 1.676212
v -1.676212 0.414405 -1.676212
v 1.676212 0.414405 -1.676212
v 1.676212 0.414405 1.676212
v 0.000000 0.000000 -2.000000
v 0.000000 0.000000 2.000000
v 0.000000 0.414405 -1.676212
v 0.000000 0.414405 1.676212
v 1.000000 0.000000 2.000000
v 0.838106 0.414405 -1.676212
v 1.000000 0.000000 -2.000000
v 0.838106 0.414405 1.676212
v -1.000000 0.000000 -2.000000
v -0.838106 0.414405 1.676212
v -1.000000 0.000000 2.000000
v -0.838106 0.414405 -1.676212
v -2.000000 0.000000 0.000000
v 2.000000 0.000000 0.000000
v -1.676212 0.414405 0.000000
v 1.676212 0.414405 0.000000
v 0.000000 0.656590 0.000000
v 0.000000 0.000000 0.000000
v 0.838106 0.615260 0.000000
v 1.000000 0.000000 0.000000
v -1.000000 0.000000 0.000000
v -0.838106 0.615260 0.000000
v -2.000000 0.000000 1.000000
v 1.676212 0.414405 0.838106
v 0.000000 0.615260 0.838106
v 0.000000 0.000000 1.000000
v 0.838106 0.562836 0.838106
v 1.000000 0.000000 1.000000
v -1.000000 0.000000 1.000000
v -0.838106 0.562836 0.838106
v 2.000000 0.000000 1.000000
v -1.676212 0.414405 0.838106
v 2.000000 0.000000 -1.000000
v -1.676212 0.414405 -0.838106
v -2.000000 0.000000 -1.000000
v 1.676212 0.414405 -0.838106
v 0.000000 0.615260 -0.838106
v 0.000000 0.000000 -1.000000
v 0.838106 0.562836 -0.838106
v 1.000000 0.000000 -1.000000
v -1.000000 0.000000 -1.000000
v -0.838106 0.562836 -0.838106
v -1.676212 0.475809 1.676212
v -1.700404 0.500000 1.700404
v -1.676212 0.475809 -1.676212
v -1.700404 0.500000 -1.700404
v 1.676212 0.475809 1.676212
v 1.700404 0.500000 1.700404
v 1.676212 0.475809 -1.676212
v 1.700404 0.500000 -1.700404
v -1.975809 0.500000 1.975809
v -2.000000 0.475809 2.000000
v -1.975809 0.500000 -1.975809
v -2.000000 0.475809 -2.000000
v 1.975809 0.500000 -1.975809
v 2.000000 0.475809 -2.000000
v 1.975809 0.500000 1.975809
v 2.000000 0.475809 2.000000
v 0.000000 0.500000 -1.975809
v 0.000000 0.475809 -2.000000
v 0.000000 0.500000 1.975809
v 0.000000 0.475809 2.000000
v 0.000000 0.475809 -1.676212
v 0.000000 0.500000 -1.700404
v 0.000000 0.475809 1.676212
v 0.000000 0.500000 1.700404
v 1.000000 0.475809 -2.000000
v 0.987904 0.500000 -1.975809
v 0.850202 0.500000 -1.700404
v 0.838106 0.475809 -1.676212
v 1.000000 0.475809 2.000000
v 0.987904 0.500000 1.975809
v 0.850202 0.500000 1.700404
v 0.838106 0.475809 1.676212
v -1.000000 0.475809 2.000000
v -0.987904 0.500000 1.975809
v -0.850202 0.500000 1.700404
v -0.838106 0.475809 1.676212
v -1.000000 0.475809 -2.000000
v -0.987904 0.500000 -1.975809
v -0.850202 0.500000 -1.700404
v -0.838106 0.475809 -1.676212
v -1.975809 0.500000 0.000000
v -2.000000 0.475809 0.000000
v 1.975809 0.500000 0.000000
v 2.000000 0.475809 0.000000
v -1.676212 0.475809 0.000000
v -1.700404 0.500000 0.000000
v 1.676212 0.475809 0.000000
v 1.700404 0.500000 0.000000
v 2.000000 0.475809 1.000000
v 1.975809 0.500000 0.987904
v 1.700404 0.500000 0.850202
v 1.676212 0.475809 0.838106
v -2.000000 0.475809 1.000000
v -1.975809 0.500000 0.987904
v -1.700404 0.500000 0.850202
v -1.676212 0.475809 0.838106
v -2.000000 0.475809 -1.000000
v -1.975809 0.500000 -0.987904
v -1.700404 0.500000 -0.850202
v -1.676212 0.475809 -0.838106
v 2.000000 0.475809 -1.000000
v 1.975809 0.500000 -0.987904
v 1.700404 0.500000 -0.850202
v 1.676212 0.475809 -0.838106
vn -0.0000 -1.0000 -0.0000
vn -0.0951 0.9909 0.0951
vn -0.1462 0.9875 0.0594
vn -0.0879 0.9922 0.0879
vn -0.0594 0.9875 0.1462
vn 0.0951 0.9909 0.0951
vn -0.0000 0.9915 0.1299
vn -0.0000 0.9790 0.2040
vn 0.0594 0.9875 0.1462
vn 0.1462 0.9875 0.0594
vn 0.0879 0.9922 0.0879
vn -0.0000 0.9915 -0.1299
vn -0.0951 0.9909 -0.0951
vn -0.1299 0.9915 -0.0000
vn -0.0000 1.0000 -0.0000
vn 0.1462 0.9875 -0.0594
vn 0.0951 0.9909 -0.0951
vn 0.1299 0.9915 -0.0000
vn 0.2040 0.9790 -0.0000
vn -0.1462 0.9875 -0.0594
vn -0.2040 0.9790 -0.0000
vn -0.0594 0.9875 -0.1462
vn -0.0879 0.9922 -0.0879
vn 0.0594 0.9875 -0.1462
vn -0.0000 0.9790 -0.2040
vn 0.0879 0.9922 -0.0879
vn -0.7071 0.7071 -0.0000
vn -0.0000 0.7071 -0.7071
vn 0.7071 0.7071 -0.0000
vn -0.0000 0.7071 0.7071
vn -0.0000 -0.0000 -1.0000
vn 1.0000 -0.0000 -0.0000
vn -0.0000 -0.0000 1.0000
vn -1.0000 -0.0000 -0.0000
vt 0.750000 0.250000
vt 1.000000 0.250000
vt 1.000000 0.000000
vt 0.750000 0.000000
vt 0.290473 0.290473
vt 0.080947 0.290473
vt 0.080947 0.080947
vt 0.290473 0.080947
vt 0.709527 0.290473
vt 0.500000 0.290473
vt 0.500000 0.080947
vt 0.709527 0.080947
vt 0.250000 0.250000
vt 0.500000 0.250000
vt 0.500000 0.000000
vt 0.250000 0.000000
vt 0.919053 0.290473
vt 0.919053 0.080947
vt 0.000000 0.250000
vt 0.000000 0.000000
vt 0.500000 0.709527
vt 0.290473 0.709527
vt 0.290473 0.500000
vt 0.500000 0.500000
vt 0.000000 0.750000
vt 0.250000 0.750000
vt 0.250000 0.500000
vt 0.000000 0.500000
vt 0.500000 0.750000
vt 0.750000 0.750000
vt 0.750000 0.500000
vt 0.919053 0.709527
vt 0.709527 0.709527
vt 0.709527 0.500000
vt 0.919053 0.500000
vt 0.080947 0.709527
vt 0.080947 0.500000
vt 1.000000 0.750000
vt 1.000000 0.500000
vt 0.750000 1.000000
vt 1.000000 1.000000
vt 0.290473 0.919053
vt 0.080947 0.919053
vt 0.709527 0.919053
vt 0.500000 0.919053
vt 0.250000 1.000000
vt 0.500000 1.000000
vt 0.919053 0.919053
vt 0.000000 1.000000
vt 0.006048 0.746976
vt 0.006048 0.993952
vt 0.746976 0.993952
vt 0.993952 0.993952
vt 0.993952 0.253024
vt 0.993952 0.006048
vt 0.253024 0.006048
vt 0.006048 0.006048
vt 0.074899 0.925101
vt 0.074899 0.712550
vt 0.925101 0.925101
vt 0.712550 0.925101
vt 0.925101 0.074899
vt 0.925101 0.287450
vt 0.074899 0.074899
vt 0.287450 0.074899
vt 0.253024 0.993952
vt 0.500000 0.993952
vt 0.746976 0.006048
vt 0.500000 0.006048
vt 0.500000 0.925101
vt 0.287450 0.925101
vt 0.500000 0.074899
vt 0.712550 0.074899
vt 0.006048 0.253024
vt 0.006048 0.500000
vt 0.993952 0.746976
vt 0.993952 0.500000
vt 0.074899 0.500000
vt 0.074899 0.287450
vt 0.925101 0.500000
vt 0.925101 0.712550
vt 0.080947 0.523392
vt 0.290473 0.523392
vt 0.290473 0.508041
vt 0.080947 0.508041
vt 0.919053 0.523392
vt 0.709527 0.523392
vt 0.709527 0.508041
vt 0.919053 0.508041
vt 0.000000 0.404440
vt 0.000000 0.523392
vt 0.250000 0.523392
vt 0.250000 0.404440
vt 0.750000 0.404440
vt 0.750000 0.523392
vt 1.000000 0.523392
vt 1.000000 0.404440
vt 0.500000 0.523392
vt 0.500000 0.404440
vt 0.500000 0.508041
s 1
usemtl Bricks
f 36/1/1 39/2/1 3/3/1 13/4/1
f 37/13/1 34/14/1 10/15/1 19/16/1
f 34/14/1 36/1/1 13/4/1 10/15/1
f 31/19/1 37/13/1 19/16/1 1/20/1
f 43/25/1 49/26/1 29/27/1 21/28/1
f 46/29/1 48/30/1 28/31/1 26/24/1
f 49/26/1 46/29/1 26/24/1 29/27/1
f 48/30/1 41/38/1 22/39/1 28/31/1
f 21/28/1 29/27/1 37/13/1 31/19/1
f 26/24/1 28/31/1 36/1/1 34/14/1
f 29/27/1 26/24/1 34/14/1 37/13/1
f 28/31/1 22/39/1 39/2/1 36/1/1
f 15/40/1 4/41/1 41/38/1 48/30/1
f 17/46/1 9/47/1 46/29/1 49/26/1
f 9/47/1 15/40/1 48/30/1 46/29/1
f 2/49/1 17/46/1 49/26/1 43/25/1
f 108/50/27 61/51/27 62/49/27 107/25/27
f 76/52/28 63/53/28 64/41/28 75/40/28
f 100/54/29 65/55/29 66/3/29 99/2/29
f 84/56/30 59/57/30 60/20/30 83/16/30
f 110/36/29 53/43/29 54/58/29 109/59/29
f 78/44/30 57/48/30 58/60/30 77/61/30
f 102/17/27 55/18/27 56/62/27 101/63/27
f 86/8/28 51/7/28 52/64/28 85/65/28
f 88/66/28 67/67/28 68/47/28 87/46/28
f 80/68/30 69/69/30 70/15/30 79/4/30
f 90/42/30 71/45/30 72/70/30 89/71/30
f 82/12/28 73/11/28 74/72/28 81/73/28
f 67/67/28 76/52/28 75/40/28 68/47/28
f 71/45/30 78/44/30 77/61/30 72/70/30
f 65/55/30 80/68/30 79/4/30 66/3/30
f 55/18/28 82/12/28 81/73/28 56/62/28
f 69/69/30 84/56/30 83/16/30 70/15/30
f 73/11/28 86/8/28 85/65/28 74/72/28
f 61/51/28 88/66/28 87/46/28 62/49/28
f 53/43/30 90/42/30 89/71/30 54/58/30
f 104/74/27 91/75/27 92/28/27 103/19/27
f 112/76/29 93/77/29 94/39/29 111/38/29
f 106/6/29 95/37/29 96/78/29 105/79/29
f 114/32/27 97/35/27 98/80/27 113/81/27
f 93/77/29 100/54/29 99/2/29 94/39/29
f 97/35/27 102/17/27 101/63/27 98/80/27
f 59/57/27 104/74/27 103/19/27 60/20/27
f 51/7/29 106/6/29 105/79/29 52/64/29
f 91/75/27 108/50/27 107/25/27 92/28/27
f 95/37/29 110/36/29 109/59/29 96/78/29
f 63/53/29 112/76/29 111/38/29 64/41/29
f 57/48/27 114/32/27 113/81/27 58/60/27
f 51/82/31 86/83/31 18/84/31 5/85/31
f 85/65/15 52/64/15 59/57/15 84/56/15
f 106/83/32 51/82/32 5/85/32 40/84/32
f 52/64/15 105/79/15 104/74/15 59/57/15
f 53/86/32 110/87/32 42/88/32 6/89/32
f 109/59/15 54/58/15 61/51/15 108/50/15
f 90/83/33 53/82/33 6/85/33 20/84/33
f 54/58/15 89/71/15 88/66/15 61/51/15
f 55/82/34 102/83/34 32/84/34 8/85/34
f 101/63/15 56/62/15 65/55/15 100/54/15
f 82/87/31 55/86/31 8/89/31 16/88/31
f 56/62/15 81/73/15 80/68/15 65/55/15
f 57/86/33 78/87/33 14/88/33 7/89/33
f 77/61/15 58/60/15 63/53/15 76/52/15
f 114/87/34 57/86/34 7/89/34 44/88/34
f 58/60/15 113/81/15 112/76/15 63/53/15
f 1/90/34 60/91/34 103/92/34 31/93/34
f 19/93/33 83/92/33 60/91/33 1/90/33
f 43/94/34 107/95/34 62/96/34 2/97/34
f 2/90/31 62/91/31 87/92/31 17/93/31
f 15/94/31 75/95/31 64/96/31 4/97/31
f 4/97/32 64/96/32 111/95/32 41/94/32
f 39/93/32 99/92/32 66/91/32 3/90/32
f 3/97/33 66/96/33 79/95/33 13/94/33
f 17/93/31 87/92/31 68/98/31 9/99/31
f 9/99/31 68/98/31 75/95/31 15/94/31
f 89/71/15 72/70/15 67/67/15 88/66/15
f 72/70/15 77/61/15 76/52/15 67/67/15
f 13/94/33 79/95/33 70/98/33 10/99/33
f 10/99/33 70/98/33 83/92/33 19/93/33
f 81/73/15 74/72/15 69/69/15 80/68/15
f 74/72/15 85/65/15 84/56/15 69/69/15
f 71/98/33 90/83/33 20/84/33 11/100/33
f 78/87/33 71/98/33 11/100/33 14/88/33
f 73/98/31 82/87/31 16/88/31 12/100/31
f 86/83/31 73/98/31 12/100/31 18/84/31
f 31/93/34 103/92/34 92/98/34 21/99/34
f 21/99/34 92/98/34 107/95/34 43/94/34
f 105/79/15 96/78/15 91/75/15 104/74/15
f 96/78/15 109/59/15 108/50/15 91/75/15
f 41/94/32 111/95/32 94/98/32 22/99/32
f 22/99/32 94/98/32 99/92/32 39/93/32
f 113/81/15 98/80/15 93/77/15 112/76/15
f 98/80/15 101/63/15 100/54/15 93/77/15
f 95/98/32 106/83/32 40/84/32 23/100/32
f 110/87/32 95/98/32 23/100/32 42/88/32
f 97/98/34 114/87/34 44/88/34 24/100/34
f 102/83/34 97/98/34 24/100/34 32/84/34
usemtl Dirt
f 38/5/2 40/6/3 5/7/4 18/8/5
f 35/9/6 33/10/7 12/11/8 16/12/9
f 32/17/10 35/9/6 16/12/9 8/18/11
f 33/10/7 38/5/2 18/8/5 12/11/8
f 45/21/12 50/22/13 30/23/14 25/24/15
f 44/32/16 47/33/17 27/34/18 24/35/19
f 47/33/17 45/21/12 25/24/15 27/34/18
f 50/22/13 42/36/20 23/37/21 30/23/14
f 25/24/15 30/23/14 38/5/2 33/10/7
f 24/35/19 27/34/18 35/9/6 32/17/10
f 27/34/18 25/24/15 33/10/7 35/9/6
f 30/23/14 23/37/21 40/6/3 38/5/2
f 20/42/22 6/43/23 42/36/20 50/22/13
f 14/44/24 11/45/25 45/21/12 47/33/17
f 7/48/26 14/44/24 47/33/17 44/32/16
f 11/45/25 20/42/22 50/22/13 45/21/12
