# Blender 4.5.4 LTS
# www.blender.org
mtllib sm_streetlight.mtl
o Streetlight
v -0.041646 0.090756 -0.041646
v -0.034569 3.014350 -0.034569
v -0.015244 0.090756 -0.056890
v -0.012653 3.014350 -0.047223
v 0.015244 0.090756 -0.056890
v 0.012653 3.014350 -0.047223
v 0.041646 0.090756 -0.041646
v 0.034569 3.014350 -0.034569
v 0.056890 0.090756 -0.015244
v 0.047223 3.014350 -0.012653
v 0.056890 0.090756 0.015244
v 0.047223 3.014350 0.012653
v 0.041646 0.090756 0.041646
v 0.034569 3.014350 0.034569
v 0.015244 0.090756 0.056890
v 0.012653 3.014350 0.047223
v -0.015244 0.090756 0.056890
v -0.012653 3.014350 0.047223
v -0.041646 0.090756 0.041646
v -0.034569 3.014350 0.034569
v -0.056890 0.090756 0.015244
v -0.047223 3.014350 0.012653
v -0.056890 0.090756 -0.015244
v -0.047223 3.014350 -0.012653
v -0.081091 0.090756 -0.081091
v -0.029681 0.090756 -0.110772
v 0.029681 0.090756 -0.110772
v 0.081091 0.090756 -0.081091
v 0.110772 0.090756 -0.029681
v 0.110772 0.090756 0.029681
v 0.081091 0.090756 0.081091
v 0.029681 0.090756 0.110772
v -0.029681 0.090756 0.110772
v -0.081091 0.090756 0.081091
v -0.110772 0.090756 0.029681
v -0.110772 0.090756 -0.029681
v -0.081091 -0.002452 -0.081091
v -0.029681 -0.002452 -0.110772
v 0.029681 -0.002452 -0.110772
v 0.081091 -0.002452 -0.081091
v 0.110772 -0.002452 -0.029681
v 0.110772 -0.002452 0.029681
v 0.081091 -0.002452 0.081091
v 0.029681 -0.002452 0.110772
v -0.029681 -0.002452 0.110772
v -0.081091 -0.002452 0.081091
v -0.110772 -0.002452 0.029681
v -0.110772 -0.002452 -0.029681
v -0.085189 3.014350 -0.085189
v 0.085189 3.014350 -0.085189
v 0.085189 3.014350 0.085189
v -0.085189 3.014350 0.085189
v 0.117523 3.317474 -0.117523
v -0.117523 3.317474 -0.117523
v 0.117523 3.317474 0.117523
v -0.117523 3.317474 0.117523
v 0.155508 3.319599 -0.155508
v -0.155508 3.319599 -0.155508
v 0.155508 3.319599 0.155508
v -0.155508 3.319599 0.155508
v 0.113618 3.341653 -0.113618
v -0.113618 3.341653 -0.113618
v 0.113618 3.341653 0.113618
v -0.113618 3.341653 0.113618
v 0.155508 3.341653 -0.155508
v -0.155508 3.341653 -0.155508
v 0.155508 3.341653 0.155508
v -0.155508 3.341653 0.155508
v 0.070202 3.409962 -0.070202
v -0.070202 3.409962 -0.070202
v 0.070202 3.409962 0.070202
v -0.070202 3.409962 0.070202
v -0.087164 3.032861 -0.071570
v -0.087164 3.032861 0.071570
v -0.115548 3.298963 0.099955
v -0.115548 3.298963 -0.099955
v 0.087164 3.032861 0.071570
v 0.087164 3.032861 -0.071570
v 0.115548 3.298963 -0.099955
v 0.115548 3.298963 0.099955
v -0.071570 3.032861 0.087164
v 0.071570 3.032861 0.087164
v 0.099955 3.298963 0.115548
v -0.099955 3.298963 0.115548
v 0.071570 3.032861 -0.087164
v -0.071570 3.032861 -0.087164
v -0.099955 3.298963 -0.115548
v 0.099955 3.298963 -0.115548
v -0.072685 3.035110 -0.071570
v -0.072685 3.035110 0.071570
v -0.101069 3.301211 0.099955
v -0.101069 3.301211 -0.099955
v 0.072685 3.035110 0.071570
v 0.072685 3.035110 -0.071570
v 0.101069 3.301211 -0.099955
v 0.101069 3.301211 0.099955
v -0.071570 3.035110 0.072685
v 0.071570 3.035110 0.072685
v 0.099955 3.301211 0.101069
v -0.099955 3.301211 0.101069
v 0.071570 3.035110 -0.072685
v -0.071570 3.035110 -0.072685
v -0.099955 3.301211 -0.101069
v 0.099955 3.301211 -0.101069
vn -0.7071 0.0034 -0.7071
vn -0.2588 0.0034 -0.9659
vn 0.2588 0.0034 -0.9659
vn 0.7071 0.0034 -0.7071
vn 0.9659 0.0034 -0.2588
vn 0.9659 0.0034 0.2588
vn 0.7071 0.0034 0.7071
vn 0.2588 0.0034 0.9659
vn -0.2588 0.0034 0.9659
vn -0.7071 0.0034 0.7071
vn -0.9659 0.0034 0.2588
vn -0.9659 0.0034 -0.2588
vn -0.0000 1.0000 -0.0000
vn 0.9659 -0.0000 0.2588
vn 0.8660 -0.0000 0.5000
vn -0.0000 -1.0000 -0.0000
vn 0.2588 -0.0000 -0.9659
vn 0.5000 -0.0000 -0.8660
vn -0.8660 -0.0000 0.5000
vn -0.9659 -0.0000 0.2588
vn 0.5000 -0.0000 0.8660
vn 0.2588 -0.0000 0.9659
vn 0.8660 -0.0000 -0.5000
vn 0.9659 -0.0000 -0.2588
vn -0.9659 -0.0000 -0.2588
vn -0.5000 -0.0000 -0.8660
vn -0.2588 -0.0000 -0.9659
vn -0.2588 -0.0000 0.9659
vn -0.8660 -0.0000 -0.5000
vn -0.5000 -0.0000 0.8660
vn -0.9944 -0.1061 -0.0000
vn -0.0280 -0.9992 -0.0280
vn -0.0280 -0.9992 0.0280
vn 0.9944 -0.1061 -0.0000
vn -0.0000 -0.1061 0.9944
vn -0.0000 -0.1061 -0.9944
vn -0.0000 -0.0000 1.0000
vn 0.0280 -0.9992 -0.0280
vn 0.0280 -0.9992 0.0280
vn 0.8440 0.5364 -0.0000
vn 1.0000 -0.0000 -0.0000
vn -1.0000 -0.0000 -0.0000
vn -0.0000 -0.0000 -1.0000
vn -0.8440 0.5364 -0.0000
vn -0.0000 0.5364 -0.8440
vn -0.0000 0.5364 0.8440
vn -0.1535 0.9882 -0.0000
vn -0.0162 0.1043 -0.9944
vn 0.1534 -0.9882 -0.0000
vn -0.0162 0.1043 0.9944
vn 0.1535 0.9882 -0.0000
vn 0.0162 0.1043 0.9944
vn -0.1534 -0.9882 -0.0000
vn 0.0162 0.1043 -0.9944
vn -0.0000 0.9882 0.1535
vn -0.9944 0.1043 0.0162
vn -0.0000 -0.9882 -0.1534
vn 0.9944 0.1043 0.0162
vn -0.0000 0.9882 -0.1535
vn 0.9944 0.1043 -0.0162
vn -0.0000 -0.9882 0.1534
vn -0.9944 0.1043 -0.0162
vt 0.103016 0.999599
vt 0.103016 0.000115
vt 0.112958 -0.000000
vt 0.114993 0.999460
vt 0.123168 0.000041
vt 0.127293 0.999509
vt 0.130910 0.000226
vt 0.136620 0.999733
vt 0.000000 0.999673
vt 0.002921 0.000146
vt 0.011966 0.000000
vt 0.010897 0.999497
vt 0.022410 0.000000
vt 0.023479 0.999497
vt 0.031455 0.000146
vt 0.034375 0.999673
vt 0.034375 0.999673
vt 0.037296 0.000146
vt 0.046341 0.000000
vt 0.045272 0.999497
vt 0.056785 0.000000
vt 0.057854 0.999497
vt 0.065830 0.000146
vt 0.068751 0.999673
vt 0.068751 0.999884
vt 0.072899 -0.000000
vt 0.082333 0.000096
vt 0.080115 1.000000
vt 0.092743 0.000096
vt 0.092657 1.000000
vt 0.101342 -0.000000
vt 0.103016 0.999884
vt 0.158858 0.921969
vt 0.165149 0.932865
vt 0.148870 0.949144
vt 0.136620 0.927927
vt 0.350356 0.699127
vt 0.350013 0.720344
vt 0.318145 0.720344
vt 0.318487 0.699127
vt 0.176045 0.939156
vt 0.170087 0.961394
vt 0.188627 0.939156
vt 0.199524 0.932865
vt 0.215803 0.949144
vt 0.194586 0.961394
vt 0.158858 0.909387
vt 0.136620 0.903428
vt 0.165149 0.898490
vt 0.148870 0.882211
vt 0.176045 0.892199
vt 0.170087 0.869961
vt 0.188627 0.892199
vt 0.194586 0.869961
vt 0.199524 0.898490
vt 0.215803 0.882211
vt 0.205815 0.909387
vt 0.228053 0.903428
vt 0.205815 0.921969
vt 0.228053 0.927927
vt 0.148870 0.857712
vt 0.136620 0.836495
vt 0.136620 0.811996
vt 0.148870 0.790779
vt 0.170087 0.778529
vt 0.194586 0.778529
vt 0.215803 0.790779
vt 0.228053 0.811996
vt 0.228053 0.836495
vt 0.215803 0.857712
vt 0.194586 0.869961
vt 0.170087 0.869961
vt 0.432877 0.047270
vt 0.432515 0.065432
vt 0.400648 0.065630
vt 0.401010 0.047468
vt 0.318145 0.974626
vt 0.318370 0.952498
vt 0.350246 0.952544
vt 0.350020 0.974672
vt 0.350013 0.586477
vt 0.350356 0.607694
vt 0.318487 0.607694
vt 0.318145 0.586477
vt 0.350013 0.653410
vt 0.350356 0.674627
vt 0.318487 0.674627
vt 0.318145 0.653410
vt 0.318370 0.928077
vt 0.350246 0.928124
vt 0.432515 -0.000000
vt 0.432877 0.023320
vt 0.401010 0.023519
vt 0.400648 0.000199
vt 0.350356 0.632193
vt 0.318487 0.632193
vt 0.318145 0.907907
vt 0.350020 0.907953
vt 0.350013 0.653410
vt 0.318145 0.653410
vt 0.372792 0.394671
vt 0.367570 0.385626
vt 0.388461 0.364735
vt 0.358525 0.380404
vt 0.348081 0.380404
vt 0.318145 0.364735
vt 0.339036 0.385626
vt 0.339036 0.414160
vt 0.348081 0.419382
vt 0.318145 0.435051
vt 0.333814 0.405115
vt 0.333814 0.394671
vt 0.358525 0.419382
vt 0.388461 0.435051
vt 0.367570 0.414160
vt 0.372792 0.405115
vt 0.882113 0.105708
vt 0.823228 0.105708
vt 0.812621 0.014921
vt 0.894860 0.014921
vt 0.227382 0.159355
vt 0.295975 0.090762
vt 0.318145 0.090762
vt 0.227382 0.181525
vt 0.974871 0.196293
vt 0.915797 0.196293
vt 0.904082 0.104983
vt 0.986585 0.104983
vt 0.974871 0.104983
vt 0.915797 0.104983
vt 0.904082 0.013672
vt 0.986585 0.013672
vt 0.879922 0.197034
vt 0.822173 0.197034
vt 0.812621 0.105708
vt 0.893273 0.105708
vt 0.408188 0.157308
vt 0.408188 0.285666
vt 0.400648 0.285666
vt 0.400648 0.157308
vt 0.158790 0.090762
vt 0.136620 0.090762
vt 0.227382 0.022170
vt 0.227382 0.000000
vt 0.340999 0.720344
vt 0.340999 0.814125
vt 0.318145 0.796207
vt 0.318145 0.738262
vt 0.408188 0.285665
vt 0.408188 0.414023
vt 0.400648 0.414023
vt 0.400648 0.285665
vt 0.408190 0.414034
vt 0.408190 0.541980
vt 0.400648 0.541969
vt 0.400648 0.414023
vt 0.400648 0.667505
vt 0.400648 0.542027
vt 0.408188 0.541980
vt 0.408188 0.667458
vt 0.227382 0.338600
vt 0.293696 0.272287
vt 0.318145 0.272287
vt 0.227382 0.363049
vt 0.227382 0.205973
vt 0.227382 0.181525
vt 0.161069 0.272287
vt 0.136620 0.272287
vt 0.376090 0.492996
vt 0.318145 0.492996
vt 0.318145 0.435051
vt 0.376090 0.435051
vt 0.341835 0.492996
vt 0.341835 0.586477
vt 0.318145 0.570014
vt 0.318145 0.512254
vt 0.400648 0.157308
vt 0.400648 0.065630
vt 0.423472 0.079229
vt 0.423472 0.135874
vt 0.340999 0.814125
vt 0.340999 0.907906
vt 0.318145 0.889988
vt 0.318145 0.832043
vt 0.218794 0.674498
vt 0.148703 0.674498
vt 0.154380 0.668182
vt 0.213265 0.668182
vt 0.136620 0.571079
vt 0.143773 0.577394
vt 0.233314 0.571079
vt 0.226012 0.577394
vt 0.220280 0.571079
vt 0.149964 0.571079
vt 0.155585 0.564727
vt 0.214660 0.564727
vt 0.136620 0.467064
vt 0.143871 0.473416
vt 0.233625 0.467064
vt 0.226374 0.473416
vt 0.220280 0.467064
vt 0.149964 0.467064
vt 0.155585 0.460712
vt 0.214660 0.460712
vt 0.136620 0.363049
vt 0.143871 0.369401
vt 0.233625 0.363049
vt 0.226374 0.369401
vt 0.216240 0.778529
vt 0.147502 0.778529
vt 0.153129 0.772176
vt 0.210878 0.772176
vt 0.136620 0.674497
vt 0.143576 0.680850
vt 0.231449 0.674497
vt 0.224229 0.680851
vt 0.432878 0.846517
vt 0.432878 0.787443
vt 0.438853 0.787443
vt 0.438853 0.846517
vt 0.432878 0.366020
vt 0.432878 0.274238
vt 0.438762 0.274400
vt 0.438762 0.366182
vt 0.438853 0.457430
vt 0.438853 0.539933
vt 0.432878 0.539933
vt 0.432878 0.457430
vt 0.438902 0.091412
vt 0.438902 0.182822
vt 0.432877 0.182825
vt 0.432877 0.091416
vt 0.438853 0.846517
vt 0.438853 0.905592
vt 0.432878 0.905592
vt 0.432878 0.846517
vt 0.432878 0.274234
vt 0.432878 0.182825
vt 0.438902 0.182829
vt 0.438902 0.274238
vt 0.432878 0.622436
vt 0.432878 0.539933
vt 0.438853 0.539933
vt 0.438853 0.622436
vt 0.438770 0.366407
vt 0.438770 0.457430
vt 0.432878 0.457205
vt 0.432878 0.366183
vt 0.432878 0.964666
vt 0.432878 0.905592
vt 0.438853 0.905592
vt 0.438853 0.964666
vt 0.400648 0.759574
vt 0.400648 0.667505
vt 0.406655 0.667551
vt 0.406655 0.759620
vt 0.438853 0.622436
vt 0.438853 0.704940
vt 0.432878 0.704940
vt 0.432878 0.622436
vt 0.406673 0.851543
vt 0.406673 0.942952
vt 0.400648 0.942956
vt 0.400648 0.851546
vt 0.444878 -0.000000
vt 0.444878 0.059074
vt 0.438902 0.059074
vt 0.438902 -0.000000
vt 0.432878 0.091409
vt 0.432878 0.000000
vt 0.438902 0.000003
vt 0.438902 0.091413
vt 0.432878 0.787443
vt 0.438853 0.704940
vt 0.438853 0.787443
vt 0.406652 0.759678
vt 0.406652 0.851543
vt 0.400648 0.851484
vt 0.400648 0.759620
s 1
usemtl BlackMetal
f 1/1/1 2/2/1 4/3/2 3/4/2
f 3/4/2 4/3/2 6/5/3 5/6/3
f 5/6/3 6/5/3 8/7/4 7/8/4
f 7/9/4 8/10/4 10/11/5 9/12/5
f 9/12/5 10/11/5 12/13/6 11/14/6
f 11/14/6 12/13/6 14/15/7 13/16/7
f 13/17/7 14/18/7 16/19/8 15/20/8
f 15/20/8 16/19/8 18/21/9 17/22/9
f 17/22/9 18/21/9 20/23/10 19/24/10
f 19/25/10 20/26/10 22/27/11 21/28/11
f 21/28/11 22/27/11 24/29/12 23/30/12
f 23/30/12 24/29/12 2/31/1 1/32/1
f 23/33/13 1/34/13 25/35/13 36/36/13
f 30/37/14 31/38/15 43/39/15 42/40/14
f 1/34/13 3/41/13 26/42/13 25/35/13
f 5/43/13 7/44/13 28/45/13 27/46/13
f 21/47/13 23/33/13 36/36/13 35/48/13
f 3/41/13 5/43/13 27/46/13 26/42/13
f 19/49/13 21/47/13 35/48/13 34/50/13
f 17/51/13 19/49/13 34/50/13 33/52/13
f 15/53/13 17/51/13 33/52/13 32/54/13
f 13/55/13 15/53/13 32/54/13 31/56/13
f 11/57/13 13/55/13 31/56/13 30/58/13
f 9/59/13 11/57/13 30/58/13 29/60/13
f 7/44/13 9/59/13 29/60/13 28/45/13
f 37/61/16 38/62/16 39/63/16 40/64/16 41/65/16 42/66/16 43/67/16 44/68/16 45/69/16 46/70/16 47/71/16 48/72/16
f 27/73/17 28/74/18 40/75/18 39/76/17
f 34/77/19 35/78/20 47/79/20 46/80/19
f 31/81/21 32/82/22 44/83/22 43/84/21
f 28/85/23 29/86/24 41/87/24 40/88/23
f 35/78/20 36/89/25 48/90/25 47/79/20
f 25/91/26 26/92/27 38/93/27 37/94/26
f 32/82/22 33/95/28 45/96/28 44/83/22
f 29/86/24 30/37/14 42/40/14 41/87/24
f 36/89/25 25/97/29 37/98/29 48/90/25
f 26/92/27 27/73/17 39/76/17 38/93/27
f 33/95/28 34/99/30 46/100/30 45/96/28
f 16/101/16 14/102/16 51/103/16
f 14/102/16 12/104/16 51/103/16
f 12/104/16 10/105/16 50/106/16 51/103/16
f 10/105/16 8/107/16 50/106/16
f 2/108/16 24/109/16 49/110/16
f 4/111/16 2/108/16 49/110/16
f 8/107/16 6/112/16 50/106/16
f 24/109/16 22/113/16 52/114/16 49/110/16
f 6/112/16 4/111/16 49/110/16 50/106/16
f 22/113/16 20/115/16 52/114/16
f 20/115/16 18/116/16 52/114/16
f 18/116/16 16/101/16 51/103/16 52/114/16
f 89/117/31 90/118/31 91/119/31 92/120/31
f 54/121/32 56/122/33 60/123/33 58/124/32
f 93/125/34 94/126/34 95/127/34 96/128/34
f 97/129/35 98/130/35 99/131/35 100/132/35
f 101/133/36 102/134/36 103/135/36 104/136/36
f 60/137/37 59/138/37 67/139/37 68/140/37
f 53/141/38 54/121/32 58/124/32 57/142/38
f 56/122/33 55/143/39 59/144/39 60/123/33
f 55/143/39 53/141/38 57/142/38 59/144/39
f 63/145/40 61/146/40 69/147/40 71/148/40
f 59/149/41 57/150/41 65/151/41 67/152/41
f 58/153/42 60/154/42 68/155/42 66/156/42
f 57/157/43 58/158/43 66/159/43 65/160/43
f 62/161/13 61/162/13 65/163/13 66/164/13
f 61/162/13 63/165/13 67/166/13 65/163/13
f 64/167/13 62/161/13 66/164/13 68/168/13
f 63/165/13 64/167/13 68/168/13 67/166/13
f 69/169/13 70/170/13 72/171/13 71/172/13
f 62/173/44 64/174/44 72/175/44 70/176/44
f 61/177/45 62/178/45 70/179/45 69/180/45
f 64/181/46 63/182/46 71/183/46 72/184/46
f 49/185/31 52/186/31 74/187/31 73/188/31
f 52/186/31 56/189/31 75/190/31 74/187/31
f 56/189/31 54/191/31 76/192/31 75/190/31
f 54/191/31 49/185/31 73/188/31 76/192/31
f 51/193/34 50/194/34 78/195/34 77/196/34
f 50/194/34 53/197/34 79/198/34 78/195/34
f 53/197/34 55/199/34 80/200/34 79/198/34
f 55/199/34 51/193/34 77/196/34 80/200/34
f 52/201/35 51/202/35 82/203/35 81/204/35
f 51/202/35 55/205/35 83/206/35 82/203/35
f 55/205/35 56/207/35 84/208/35 83/206/35
f 56/207/35 52/201/35 81/204/35 84/208/35
f 50/209/36 49/210/36 86/211/36 85/212/36
f 49/210/36 54/213/36 87/214/36 86/211/36
f 54/213/36 53/215/36 88/216/36 87/214/36
f 53/215/36 50/209/36 85/212/36 88/216/36
f 73/217/47 74/218/47 90/219/47 89/220/47
f 74/221/48 75/222/48 91/223/48 90/224/48
f 75/225/49 76/226/49 92/227/49 91/228/49
f 76/229/50 73/230/50 89/231/50 92/232/50
f 77/233/51 78/234/51 94/235/51 93/236/51
f 78/237/52 79/238/52 95/239/52 94/240/52
f 79/241/53 80/242/53 96/243/53 95/244/53
f 80/245/54 77/246/54 93/247/54 96/248/54
f 81/249/55 82/250/55 98/251/55 97/252/55
f 82/253/56 83/254/56 99/255/56 98/256/56
f 83/257/57 84/258/57 100/259/57 99/260/57
f 84/261/58 81/262/58 97/263/58 100/264/58
f 85/265/59 86/266/59 102/267/59 101/268/59
f 86/269/60 87/270/60 103/271/60 102/272/60
f 87/273/61 88/259/61 104/274/61 103/275/61
f 88/276/62 85/277/62 101/278/62 104/279/62
