# Blender 4.5.4 LTS
# www.blender.org
mtllib sm_dumpsterlid3.mtl
o DumpsterLid3
v -0.000000 2.763453 -0.991039
v -0.000000 2.749874 -1.021503
v -0.000000 1.404334 -0.694348
v -0.000000 1.390755 -0.724812
v 1.317965 2.763453 -0.991039
v 1.317965 2.749874 -1.021503
v 1.317965 1.404334 -0.694348
v 1.317965 1.390755 -0.724812
v 1.054372 1.404334 -0.694348
v 0.790779 1.404334 -0.694348
v 0.527186 1.404334 -0.694348
v 0.263593 1.404334 -0.694348
v 0.263593 1.390755 -0.724812
v 0.527186 1.390755 -0.724812
v 0.790779 1.390755 -0.724812
v 1.054372 1.390755 -0.724812
v 0.263593 2.763453 -0.991039
v 0.527186 2.763453 -0.991039
v 0.790779 2.763453 -0.991039
v 1.054372 2.763453 -0.991039
v 1.054372 2.749874 -1.021503
v 0.790779 2.749874 -1.021503
v 0.527186 2.749874 -1.021503
v 0.263593 2.749874 -1.021503
v 0.237804 1.422147 -0.755532
v 0.025789 1.422147 -0.755532
v 0.025789 2.720225 -1.036571
v 0.237804 2.720225 -1.036571
v 1.292176 1.422147 -0.755532
v 1.080161 1.422147 -0.755532
v 1.080161 2.720226 -1.036570
v 1.292176 2.720226 -1.036570
v 1.028583 1.422147 -0.755532
v 0.816568 1.422147 -0.755532
v 0.816568 2.720225 -1.036571
v 1.028583 2.720225 -1.036571
v 0.764990 1.422147 -0.755532
v 0.552975 1.422147 -0.755532
v 0.552975 2.720226 -1.036570
v 0.764990 2.720226 -1.036570
v 0.501397 1.422147 -0.755532
v 0.289382 1.422147 -0.755532
v 0.289382 2.720225 -1.036571
v 0.501397 2.720225 -1.036571
v -1.317965 1.129910 0.669441
v -1.317965 1.163262 0.669247
v -1.317965 1.404334 -0.694348
v -1.317965 1.437687 -0.694542
v 0.000000 1.129910 0.669441
v 0.000000 1.163262 0.669247
v 0.000000 1.404334 -0.694348
v 0.000000 1.437687 -0.694542
v -0.263593 1.404334 -0.694348
v -0.527186 1.404334 -0.694348
v -0.790779 1.404334 -0.694348
v -1.054372 1.404334 -0.694348
v -1.054372 1.437687 -0.694542
v -0.790779 1.437687 -0.694542
v -0.527186 1.437687 -0.694542
v -0.263593 1.437687 -0.694542
v -1.054372 1.129910 0.669441
v -0.790779 1.129910 0.669441
v -0.527186 1.129910 0.669441
v -0.263593 1.129910 0.669441
v -0.263593 1.163262 0.669247
v -0.527186 1.163262 0.669247
v -0.790779 1.163262 0.669247
v -1.054372 1.163262 0.669247
v -1.080161 1.453204 -0.653452
v -1.292177 1.453204 -0.653452
v -1.292177 1.188973 0.648152
v -1.080161 1.188973 0.648152
v -0.025789 1.453204 -0.653452
v -0.237804 1.453204 -0.653452
v -0.237804 1.188973 0.648152
v -0.025789 1.188973 0.648152
v -0.289382 1.453204 -0.653452
v -0.501397 1.453204 -0.653452
v -0.501397 1.188973 0.648152
v -0.289382 1.188973 0.648152
v -0.552975 1.453204 -0.653452
v -0.764990 1.453204 -0.653452
v -0.764991 1.188973 0.648152
v -0.552975 1.188973 0.648152
v -0.816568 1.453204 -0.653452
v -1.028584 1.453204 -0.653452
v -1.028584 1.188973 0.648152
v -0.816568 1.188973 0.648152
vn -1.0000 -0.0000 -0.0000
vn -0.0000 -0.9134 0.4071
vn 1.0000 -0.0000 -0.0000
vn -0.0000 0.9134 -0.4071
vn -0.0000 0.2133 0.9770
vn -0.0000 -0.2116 -0.9774
vn -0.0000 -0.6994 -0.7147
vn -0.6522 -0.1611 -0.7408
vn -0.0000 0.4531 -0.8915
vn 0.6522 -0.1611 -0.7408
vn -0.0000 -0.0058 -1.0000
vn -0.0000 0.0058 1.0000
vn -0.0000 -0.9803 -0.1973
vn -0.0000 0.9800 0.1989
vn -0.0000 0.9355 -0.3533
vn -0.6522 0.7431 0.1502
vn -0.0000 0.6343 0.7731
vn 0.6522 0.7431 0.1502
vt 0.045628 0.668565
vt 0.045628 0.679416
vt 0.488794 0.771278
vt 0.488794 0.760427
vt 0.394671 0.760427
vt 0.394671 0.771278
vt 0.480428 0.771278
vt 0.480428 0.760427
vt 0.137400 0.668565
vt 0.137400 0.679416
vt 0.051643 0.679416
vt 0.051643 0.668565
vt 0.394671 0.947652
vt 0.480428 0.947652
vt 0.480428 0.504486
vt 0.394671 0.504486
vt 0.129010 0.934255
vt 0.060033 0.934255
vt 0.060033 0.511300
vt 0.129010 0.511300
vt 0.472038 0.934255
vt 0.403061 0.934255
vt 0.403061 0.511300
vt 0.472038 0.511300
vt 0.386281 0.934255
vt 0.317304 0.934255
vt 0.317304 0.511300
vt 0.386281 0.511300
vt 0.300524 0.934255
vt 0.231547 0.934255
vt 0.231547 0.511300
vt 0.300524 0.511300
vt 0.214767 0.934255
vt 0.145790 0.934255
vt 0.145790 0.511300
vt 0.214767 0.511300
vt 0.051643 0.947652
vt 0.137400 0.947652
vt 0.137400 0.504486
vt 0.051643 0.504486
vt 0.223157 0.947652
vt 0.223157 0.504486
vt 0.308914 0.947652
vt 0.308914 0.504486
vt 0.480428 0.668565
vt 0.480428 0.679416
vt 0.394671 0.679416
vt 0.394671 0.668565
vt 0.308914 0.679416
vt 0.308914 0.668565
vt 0.223157 0.679416
vt 0.223157 0.668565
vt 0.051643 0.760427
vt 0.051643 0.771278
vt 0.137400 0.771278
vt 0.137400 0.760427
vt 0.223157 0.771278
vt 0.223157 0.760427
vt 0.308914 0.771278
vt 0.308914 0.760427
vt 0.129010 0.687821
vt 0.060033 0.687821
vt 0.472038 0.687821
vt 0.403061 0.687821
vt 0.308914 0.947652
vt 0.308914 0.504486
vt 0.386281 0.687821
vt 0.317304 0.687821
vt 0.300524 0.687821
vt 0.231547 0.687821
vt 0.214767 0.687821
vt 0.145790 0.687821
s 0
usemtl BlackMetal
f 1/1/1 2/2/1 4/3/1 3/4/1
f 9/5/2 16/6/2 8/7/2 7/8/2
f 7/4/3 8/3/3 6/2/3 5/1/3
f 17/9/4 24/10/4 2/11/4 1/12/4
f 9/13/5 7/14/5 5/15/5 20/16/5
f 25/17/6 26/18/6 27/19/6 28/20/6
f 29/21/6 30/22/6 31/23/6 32/24/6
f 33/25/6 34/26/6 35/27/6 36/28/6
f 37/29/6 38/30/6 39/31/6 40/32/6
f 41/33/6 42/34/6 43/35/6 44/36/6
f 3/37/5 12/38/5 17/39/5 1/40/5
f 12/38/5 11/41/5 18/42/5 17/39/5
f 11/41/5 10/43/5 19/44/5 18/42/5
f 10/43/5 9/13/5 20/16/5 19/44/5
f 5/45/4 6/46/4 21/47/4 20/48/4
f 20/48/4 21/47/4 22/49/4 19/50/4
f 19/50/4 22/49/4 23/51/4 18/52/4
f 18/52/4 23/51/4 24/10/4 17/9/4
f 3/53/2 4/54/2 13/55/2 12/56/2
f 12/56/2 13/55/2 14/57/2 11/58/2
f 11/58/2 14/57/2 15/59/2 10/60/2
f 10/60/2 15/59/2 16/6/2 9/5/2
f 13/38/7 4/37/7 26/18/7 25/17/7
f 4/37/8 2/40/8 27/19/8 26/18/8
f 2/11/9 24/10/9 28/61/9 27/62/9
f 24/39/10 13/38/10 25/17/10 28/20/10
f 8/14/7 16/13/7 30/22/7 29/21/7
f 16/13/8 21/16/8 31/23/8 30/22/8
f 21/47/9 6/46/9 32/63/9 31/64/9
f 6/15/10 8/14/10 29/21/10 32/24/10
f 16/13/7 15/65/7 34/26/7 33/25/7
f 15/65/8 22/66/8 35/27/8 34/26/8
f 22/49/9 21/47/9 36/67/9 35/68/9
f 21/16/10 16/13/10 33/25/10 36/28/10
f 15/65/7 14/41/7 38/30/7 37/29/7
f 14/41/8 23/42/8 39/31/8 38/30/8
f 23/51/9 22/49/9 40/69/9 39/70/9
f 22/66/10 15/65/10 37/29/10 40/32/10
f 14/41/7 13/38/7 42/34/7 41/33/7
f 13/38/8 24/39/8 43/35/8 42/34/8
f 24/10/9 23/51/9 44/71/9 43/72/9
f 23/42/10 14/41/10 41/33/10 44/36/10
f 45/1/1 46/2/1 48/3/1 47/4/1
f 53/5/11 60/6/11 52/7/11 51/8/11
f 51/4/3 52/3/3 50/2/3 49/1/3
f 61/9/12 68/10/12 46/11/12 45/12/12
f 53/13/13 51/14/13 49/15/13 64/16/13
f 69/17/14 70/18/14 71/19/14 72/20/14
f 73/21/14 74/22/14 75/23/14 76/24/14
f 77/25/14 78/26/14 79/27/14 80/28/14
f 81/29/14 82/30/14 83/31/14 84/32/14
f 85/33/14 86/34/14 87/35/14 88/36/14
f 47/37/13 56/38/13 61/39/13 45/40/13
f 56/38/13 55/41/13 62/42/13 61/39/13
f 55/41/13 54/43/13 63/44/13 62/42/13
f 54/43/13 53/13/13 64/16/13 63/44/13
f 49/45/12 50/46/12 65/47/12 64/48/12
f 64/48/12 65/47/12 66/49/12 63/50/12
f 63/50/12 66/49/12 67/51/12 62/52/12
f 62/52/12 67/51/12 68/10/12 61/9/12
f 47/53/11 48/54/11 57/55/11 56/56/11
f 56/56/11 57/55/11 58/57/11 55/58/11
f 55/58/11 58/57/11 59/59/11 54/60/11
f 54/60/11 59/59/11 60/6/11 53/5/11
f 57/38/15 48/37/15 70/18/15 69/17/15
f 48/37/16 46/40/16 71/19/16 70/18/16
f 46/11/17 68/10/17 72/61/17 71/62/17
f 68/39/18 57/38/18 69/17/18 72/20/18
f 52/14/15 60/13/15 74/22/15 73/21/15
f 60/13/16 65/16/16 75/23/16 74/22/16
f 65/47/17 50/46/17 76/63/17 75/64/17
f 50/15/18 52/14/18 73/21/18 76/24/18
f 60/13/15 59/65/15 78/26/15 77/25/15
f 59/65/16 66/66/16 79/27/16 78/26/16
f 66/49/17 65/47/17 80/67/17 79/68/17
f 65/16/18 60/13/18 77/25/18 80/28/18
f 59/65/15 58/41/15 82/30/15 81/29/15
f 58/41/16 67/42/16 83/31/16 82/30/16
f 67/51/17 66/49/17 84/69/17 83/70/17
f 66/66/18 59/65/18 81/29/18 84/32/18
f 58/41/15 57/38/15 86/34/15 85/33/15
f 57/38/16 68/39/16 87/35/16 86/34/16
f 68/10/17 67/51/17 88/71/17 87/72/17
f 67/42/18 58/41/18 85/33/18 88/36/18
