# Blender 4.5.4 LTS
# www.blender.org
mtllib sm_stonewall.mtl
o StoneWall
v -2.000000 0.000000 0.327414
v -2.000000 0.704576 0.327414
v -2.000000 0.000000 -0.327414
v -2.000000 0.704576 -0.327414
v 2.000000 0.000000 0.327414
v 2.000000 0.704576 0.327414
v 2.000000 0.000000 -0.327414
v 2.000000 0.704576 -0.327414
v -2.000000 0.000000 -0.251485
v -2.000000 0.000000 0.251485
v -2.000000 0.704576 0.251485
v -2.000000 0.704576 -0.251485
v 2.000000 0.000000 0.251485
v 2.000000 0.000000 -0.251485
v 2.000000 0.704576 -0.251485
v 2.000000 0.704576 0.251485
v -2.000000 1.229975 0.251485
v -2.000000 1.229975 -0.251485
v 2.000000 1.229975 -0.251485
v 2.000000 1.229975 0.251485
v -2.000000 0.000000 -0.184047
v -2.000000 0.000000 0.184047
v -2.136719 0.704576 -0.251485
v 2.000000 0.000000 0.184047
v 2.000000 0.000000 -0.184047
v -2.136719 0.000000 0.327414
v -2.136719 0.000000 0.251485
v -2.000000 1.229975 0.184047
v -2.000000 1.229975 -0.184047
v 2.000000 1.229975 -0.184047
v 2.000000 1.229975 0.184047
v -2.000000 1.589939 -0.184047
v 2.000000 1.589939 0.184047
v -2.065098 0.000000 0.251485
v -2.065098 0.000000 0.327414
v -2.065098 0.704576 0.327414
v -2.065098 0.704576 -0.251485
v -2.065098 0.704576 -0.327414
v -2.065098 0.000000 -0.327414
v 2.065098 0.704576 -0.327414
v 2.065098 0.000000 -0.327414
v 2.065098 0.000000 -0.251485
v 2.065098 0.704576 0.251485
v 2.065098 0.704576 0.327414
v 2.065098 0.000000 0.327414
v -2.065098 0.000000 -0.251485
v -2.065098 0.000000 0.184047
v -2.065098 0.704576 0.251485
v -2.065098 0.704576 -0.184047
v 2.065098 0.000000 0.251485
v 2.065098 0.000000 -0.184047
v 2.065098 0.704576 -0.251485
v 2.065098 0.704576 0.184047
v -2.065098 1.229975 -0.184047
v 2.065098 1.229975 0.184047
v -2.065098 1.229975 0.251485
v 2.065098 1.229975 -0.251485
v -2.065098 0.000000 -0.184047
v -2.065098 0.704576 0.184047
v 2.065098 0.000000 0.184047
v 2.065098 0.704576 -0.184047
v -2.065098 1.229975 0.184047
v 2.065098 1.229975 -0.184047
v -2.136719 0.704576 -0.327414
v -2.136719 0.000000 -0.327414
v 2.136719 0.000000 -0.327414
v 2.136719 0.000000 -0.251485
v 2.136719 0.704576 0.251485
v 2.136719 0.704576 0.327414
v 2.136719 0.000000 0.327414
v -2.136719 0.000000 -0.251485
v -2.136719 0.000000 0.184047
v -2.136719 0.704576 0.251485
v -2.136719 0.704576 -0.184047
v 2.136719 0.000000 0.251485
v 2.136719 0.000000 -0.184047
v 2.136719 0.704576 -0.251485
v 2.136719 0.704576 0.184047
v -2.136719 0.000000 -0.184047
v -2.136719 0.704576 0.184047
v 2.136719 0.000000 0.184047
v 2.136719 0.704576 -0.184047
v -2.136719 0.704576 0.251535
v -2.136719 0.541066 0.327414
v -2.065148 0.704576 0.327414
v -2.136719 0.657928 0.304327
v -2.124673 0.677058 0.314644
v -2.114916 0.657967 0.327414
v -2.115682 0.704576 0.305242
v -2.000000 1.426429 0.184047
v -1.836490 1.589939 0.184047
v -2.000000 1.589939 0.020536
v -1.952109 1.542048 0.184047
v -1.972482 1.562421 0.156528
v -1.952109 1.589939 0.136155
v -2.000000 1.542048 0.136155
v 2.000000 1.426429 -0.184047
v 1.836490 1.589939 -0.184047
v 2.000000 1.589939 -0.020536
v 1.952109 1.542048 -0.184047
v 1.972482 1.562421 -0.156528
v 1.952109 1.589939 -0.136155
v 2.000000 1.542048 -0.136155
v -2.065098 1.066464 -0.251485
v -2.065098 1.229975 -0.184097
v -2.000050 1.229975 -0.251485
v -2.065098 1.183394 -0.230939
v -2.054150 1.202456 -0.240143
v -2.046005 1.229975 -0.231775
v -2.045259 1.183405 -0.251485
v 2.065098 1.066464 0.251485
v 2.065098 1.229975 0.184097
v 2.000050 1.229975 0.251485
v 2.065098 1.183394 0.230939
v 2.054150 1.202456 0.240143
v 2.046005 1.229975 0.231775
v 2.045259 1.183405 0.251485
v 2.065148 0.704576 -0.327414
v 2.136719 0.704576 -0.251535
v 2.136719 0.541066 -0.327414
v 2.115682 0.704576 -0.305242
v 2.124673 0.677058 -0.314644
v 2.136719 0.657928 -0.304327
v 2.114916 0.657967 -0.327414
vn -0.0000 -1.0000 -0.0000
vn -0.0000 -0.0000 -1.0000
vn -0.0000 -0.0000 1.0000
vn -0.0000 1.0000 -0.0000
vn 1.0000 -0.0000 -0.0000
vn -1.0000 -0.0000 -0.0000
vn -0.8625 0.3824 0.3314
vn -0.7212 0.1278 0.6808
vn -0.3637 0.3953 0.8435
vn -0.6798 0.2751 0.6798
vn -0.2751 0.6798 0.6798
vn -0.6798 0.6798 0.2751
vn 0.6798 0.2751 -0.6798
vn 0.2751 0.6798 -0.6798
vn 0.6798 0.6798 -0.2751
vn -0.7146 0.1151 -0.6900
vn -0.8714 0.3510 -0.3426
vn -0.3626 0.3583 -0.8603
vn 0.7146 0.1151 0.6900
vn 0.8714 0.3510 0.3426
vn 0.3626 0.3583 0.8603
vn 0.3637 0.3953 -0.8435
vn 0.8625 0.3824 -0.3314
vn 0.7212 0.1278 -0.6808
vt -0.500000 0.407977
vt -0.500000 0.374258
vt -0.532549 0.374258
vt -0.532549 0.407977
vt -0.500000 0.172450
vt -0.500000 0.524738
vt 1.500000 0.524738
vt 1.500000 0.172450
vt -0.500000 0.663707
vt -0.500000 0.625742
vt -0.532549 0.625742
vt -0.532549 0.663707
vt 1.500000 0.374258
vt 1.500000 0.336293
vt -0.500000 0.336293
vt 1.500000 0.663707
vt 1.500000 0.625742
vt 1.500000 0.787437
vt -0.500000 0.787437
vt 1.500000 0.407977
vt -0.500000 0.592023
vt -0.532549 0.592023
vt 1.532549 0.172450
vt 1.532549 0.524738
vt 1.532549 0.336293
vt 1.532549 0.374258
vt 1.532549 0.787437
vt 1.532549 0.663707
vt 1.532549 0.625742
vt 1.500000 0.592023
vt 1.532549 0.407977
vt 1.532549 0.592023
vt -0.532549 0.787437
vt -0.532549 0.524738
vt 1.568359 0.663707
vt 1.568359 0.625742
vt -0.568359 0.407977
vt -0.568359 0.592023
vt 1.568359 0.374258
vt 1.568359 0.336293
vt -0.568359 0.625742
vt 0.592023 0.524738
vt 0.625742 0.524738
vt 0.625742 0.787437
vt 0.592023 0.787437
vt 0.407977 0.524738
vt 0.374258 0.524738
vt 0.374258 0.787437
vt 0.407977 0.787437
vt 1.568359 0.407977
vt 1.568359 0.592023
vt -0.532549 0.172450
vt -0.568359 0.172450
vt -0.568359 0.524738
vt -0.532549 0.336293
vt 0.625742 0.172450
vt 0.663707 0.524738
vt 0.663707 0.172450
vt 0.374258 0.172450
vt 0.336293 0.524738
vt 0.336293 0.172450
vt 0.407977 0.172450
vt 0.592023 0.172450
vt -0.568359 0.374258
vt 1.568359 0.172450
vt 1.568359 0.524738
vt -0.568359 0.336293
vt -0.568359 0.663707
vt 0.374233 0.524738
vt 0.347837 0.501414
vt 0.342678 0.510979
vt 0.347379 0.524738
vt 0.336293 0.442983
vt 0.336293 0.501433
vt -0.532574 0.524738
vt -0.557841 0.524738
vt -0.562337 0.510979
vt -0.557458 0.501433
vt 0.407977 0.885664
vt 0.407977 0.943474
vt 0.421736 0.953660
vt 0.431922 0.943474
vt -0.418245 0.967420
vt -0.476054 0.967420
vt -0.486241 0.953660
vt -0.476054 0.943474
vt 0.489732 0.967420
vt 0.431922 0.967420
vt 0.592023 0.885664
vt 0.592023 0.943474
vt 0.578264 0.953660
vt 0.568078 0.943474
vt 1.418245 0.967420
vt 1.476054 0.967420
vt 1.486241 0.953660
vt 1.476054 0.943474
vt 0.510268 0.967420
vt 0.568078 0.967420
vt 0.625742 0.705682
vt 0.615470 0.764147
vt 0.620072 0.773678
vt 0.625742 0.764153
vt 0.592048 0.787437
vt 0.615888 0.787437
vt -0.500025 0.787437
vt -0.522629 0.764153
vt -0.527075 0.773678
vt -0.523003 0.787437
vt 0.374258 0.705682
vt 0.384530 0.764147
vt 0.379928 0.773678
vt 0.374258 0.764153
vt 0.407952 0.787437
vt 0.384112 0.787437
vt 1.500025 0.787437
vt 1.522629 0.764153
vt 1.527075 0.773678
vt 1.523003 0.787437
vt 1.532574 0.524738
vt 1.557841 0.524738
vt 1.562337 0.510979
vt 1.557458 0.501433
vt 0.625767 0.524738
vt 0.652163 0.501414
vt 0.657322 0.510979
vt 0.652621 0.524738
vt 0.663707 0.442983
vt 0.663707 0.501433
vt -0.568359 0.442983
vt -0.568359 0.374233
vt -0.557841 0.347379
vt -0.532574 0.336293
vt 0.592023 0.967420
vt 1.500000 0.510268
vt 1.476054 0.568078
vt 1.418245 0.579719
vt -0.500000 0.579719
vt -0.500000 0.489732
vt -0.476054 0.431922
vt -0.418245 0.414178
vt 1.500000 0.414178
vt 1.500000 0.967420
vt -0.500000 0.885664
vt 0.407977 0.967420
vt -0.500000 0.967420
vt 1.500000 0.885664
vt -0.500025 0.625742
vt -0.523003 0.615888
vt -0.532549 0.592048
vt -0.532549 0.705682
vt 1.500025 0.374258
vt 1.523003 0.384112
vt 1.532549 0.407952
vt 1.532549 0.705682
vt 1.568359 0.625767
vt 1.557841 0.652621
vt 1.532574 0.663707
vt 1.568359 0.442983
s 0
usemtl Cobblestone
f 22/1/1 10/2/1 34/3/1 47/4/1
f 3/5/2 4/6/2 8/7/2 7/8/2
f 3/9/1 9/10/1 46/11/1 39/12/1
f 5/8/3 6/7/3 2/6/3 1/5/3
f 10/2/1 13/13/1 5/14/1 1/15/1
f 16/13/4 11/2/4 2/15/4 6/14/4
f 8/16/4 4/9/4 12/10/4 15/17/4
f 11/6/3 16/7/3 20/18/3 17/19/3
f 3/9/1 7/16/1 14/17/1 9/10/1
f 22/1/1 24/20/1 13/13/1 10/2/1
f 21/21/1 22/1/1 47/4/1 58/22/1
f 9/10/1 21/21/1 58/22/1 46/11/1
f 6/7/3 5/8/3 45/23/3 44/24/3
f 31/20/4 28/1/4 17/2/4 20/13/4
f 16/13/4 6/14/4 44/25/4 43/26/4
f 15/7/2 19/18/2 57/27/2 52/24/2
f 15/7/2 12/6/2 18/19/2 19/18/2
f 14/17/1 7/16/1 41/28/1 42/29/1
f 30/30/4 31/20/4 55/31/4 63/32/4
f 11/6/3 17/19/3 56/33/3 48/34/3
f 7/8/2 8/7/2 40/24/2 41/23/2
f 19/17/4 18/10/4 29/21/4 30/30/4
f 19/17/4 30/30/4 63/32/4 57/29/4
f 28/1/4 29/21/4 54/22/4 62/4/4
f 8/16/4 15/17/4 52/29/4 40/28/4
f 9/10/1 14/17/1 25/30/1 21/21/1
f 21/21/1 25/30/1 24/20/1 22/1/1
f 42/29/1 41/28/1 66/35/1 67/36/1
f 58/22/1 47/4/1 72/37/1 79/38/1
f 45/25/1 50/26/1 75/39/1 70/40/1
f 46/11/1 58/22/1 79/38/1 71/41/1
f 49/22/4 37/11/4 23/41/4 74/38/4
f 61/42/5 52/43/5 57/44/5 63/45/5
f 59/46/6 48/47/6 56/48/6 62/49/6
f 49/42/6 59/46/6 62/49/6 54/45/6
f 53/46/5 61/42/5 63/45/5 55/49/5
f 61/32/4 53/31/4 78/50/4 82/51/4
f 38/34/2 39/52/2 65/53/2 64/54/2
f 52/29/4 61/32/4 82/51/4 77/36/4
f 13/13/1 24/20/1 60/31/1 50/26/1
f 10/2/1 1/15/1 35/55/1 34/3/1
f 2/15/4 11/2/4 48/3/4 36/55/4
f 24/20/1 25/30/1 51/32/1 60/31/1
f 1/5/3 2/6/3 36/34/3 35/52/3
f 12/10/4 4/9/4 38/12/4 37/11/4
f 5/14/1 13/13/1 50/26/1 45/25/1
f 4/6/2 3/5/2 39/52/2 38/34/2
f 25/30/1 14/17/1 42/29/1 51/32/1
f 17/2/4 28/1/4 62/4/4 56/3/4
f 71/56/6 23/43/6 64/57/6 65/58/6
f 75/59/5 68/47/5 69/60/5 70/61/5
f 81/62/5 78/46/5 68/47/5 75/59/5
f 79/63/6 74/42/6 23/43/6 71/56/6
f 27/59/6 73/47/6 80/46/6 72/62/6
f 72/62/6 80/46/6 74/42/6 79/63/6
f 67/56/5 77/43/5 82/42/5 76/63/5
f 76/63/5 82/42/5 78/46/5 81/62/5
f 51/32/1 42/29/1 67/36/1 76/51/1
f 48/3/4 59/4/4 80/37/4 73/64/4
f 43/26/4 44/25/4 69/40/4 68/39/4
f 59/4/4 49/22/4 74/38/4 80/37/4
f 44/24/3 45/23/3 70/65/3 69/66/3
f 34/3/1 35/55/1 26/67/1 27/64/1
f 53/31/4 43/26/4 68/39/4 78/50/4
f 50/26/1 60/31/1 81/50/1 75/39/1
f 39/12/1 46/11/1 71/41/1 65/68/1
f 60/31/1 51/32/1 76/51/1 81/50/1
f 47/4/1 34/3/1 27/64/1 72/37/1
f 37/11/4 38/12/4 64/68/4 23/41/4
f 83/69/7 86/70/7 87/71/7 89/72/7
f 84/73/8 88/74/8 87/71/8 86/70/8
f 85/75/9 89/76/9 87/77/9 88/78/9
f 90/79/10 93/80/10 94/81/10 96/82/10
f 91/83/11 95/84/11 94/85/11 93/86/11
f 92/87/12 96/82/12 94/81/12 95/88/12
f 97/89/13 100/90/13 101/91/13 103/92/13
f 98/93/14 102/94/14 101/95/14 100/96/14
f 99/97/15 103/92/15 101/91/15 102/98/15
f 104/99/16 107/100/16 108/101/16 110/102/16
f 105/103/17 109/104/17 108/101/17 107/100/17
f 106/105/18 110/106/18 108/107/18 109/108/18
f 111/109/19 114/110/19 115/111/19 117/112/19
f 112/113/20 116/114/20 115/111/20 114/110/20
f 113/115/21 117/116/21 115/117/21 116/118/21
f 118/119/22 121/120/22 122/121/22 124/122/22
f 119/123/23 123/124/23 122/125/23 121/126/23
f 120/127/24 124/128/24 122/125/24 123/124/24
f 35/52/3 36/34/3 85/75/3 88/78/3 84/129/3 26/53/3
f 26/61/6 84/73/6 86/70/6 83/69/6 73/47/6 27/59/6
f 36/55/4 48/3/4 73/64/4 83/130/4 89/131/4 85/132/4
f 29/45/6 28/49/6 90/79/6 96/82/6 92/87/6 32/133/6
f 99/134/4 102/135/4 98/136/4 32/137/4 92/138/4 95/139/4 91/140/4 33/141/4
f 28/19/3 31/18/3 33/142/3 91/83/3 93/86/3 90/143/3
f 31/49/5 30/45/5 97/89/5 103/92/5 99/97/5 33/144/5
f 30/18/2 29/19/2 32/145/2 98/93/2 100/96/2 97/146/2
f 29/21/4 18/10/4 106/147/4 109/148/4 105/149/4 54/22/4
f 37/43/6 49/42/6 54/45/6 105/103/6 107/100/6 104/99/6
f 18/19/2 12/6/2 37/34/2 104/150/2 110/106/2 106/105/2
f 31/20/4 20/13/4 113/151/4 116/152/4 112/153/4 55/31/4
f 43/47/5 53/46/5 55/49/5 112/113/5 114/110/5 111/109/5
f 20/18/3 16/7/3 43/24/3 111/154/3 117/116/3 113/115/3
f 66/58/5 120/127/5 123/124/5 119/123/5 77/43/5 67/56/5
f 40/28/4 52/29/4 77/36/4 119/155/4 121/156/4 118/157/4
f 41/23/2 40/24/2 118/119/2 124/122/2 120/158/2 66/65/2
