# Blender 4.5.4 LTS
# www.blender.org
mtllib sm_dumpsterlid1.mtl
o DumpsterLid1
v -0.000000 1.121977 0.667821
v -0.000000 1.155330 0.667821
v -0.000000 1.404334 -0.694348
v -0.000000 1.437688 -0.694348
v 1.317965 1.121977 0.667821
v 1.317965 1.155330 0.667821
v 1.317965 1.404334 -0.694348
v 1.317965 1.437688 -0.694348
v 1.054372 1.404334 -0.694348
v 0.790779 1.404334 -0.694348
v 0.527186 1.404334 -0.694348
v 0.263593 1.404334 -0.694348
v 0.263593 1.437688 -0.694348
v 0.527186 1.437688 -0.694348
v 0.790779 1.437688 -0.694348
v 1.054372 1.437688 -0.694348
v 0.263593 1.121977 0.667821
v 0.527186 1.121977 0.667821
v 0.790779 1.121977 0.667821
v 1.054372 1.121977 0.667821
v 1.054372 1.155330 0.667821
v 0.790779 1.155330 0.667821
v 0.527186 1.155330 0.667821
v 0.263593 1.155330 0.667821
v 0.237804 1.452966 -0.653169
v 0.025789 1.452966 -0.653169
v 0.025789 1.181164 0.646875
v 0.237804 1.181164 0.646875
v 1.292176 1.452965 -0.653169
v 1.080161 1.452965 -0.653169
v 1.080161 1.181164 0.646875
v 1.292176 1.181164 0.646875
v 1.028583 1.452966 -0.653169
v 0.816568 1.452966 -0.653169
v 0.816568 1.181164 0.646875
v 1.028583 1.181164 0.646875
v 0.764990 1.452965 -0.653169
v 0.552975 1.452965 -0.653169
v 0.552975 1.181164 0.646875
v 0.764990 1.181164 0.646875
v 0.501397 1.452966 -0.653169
v 0.289382 1.452966 -0.653169
v 0.289382 1.181164 0.646875
v 0.501397 1.181164 0.646875
v -1.317965 1.121977 0.667821
v -1.317965 1.155330 0.667821
v -1.317965 1.404334 -0.694348
v -1.317965 1.437688 -0.694348
v 0.000000 1.121977 0.667821
v 0.000000 1.155330 0.667821
v 0.000000 1.404334 -0.694348
v 0.000000 1.437688 -0.694348
v -0.263593 1.404334 -0.694348
v -0.527186 1.404334 -0.694348
v -0.790779 1.404334 -0.694348
v -1.054372 1.404334 -0.694348
v -1.054372 1.437688 -0.694348
v -0.790779 1.437688 -0.694348
v -0.527186 1.437688 -0.694348
v -0.263593 1.437688 -0.694348
v -1.054372 1.121977 0.667821
v -0.790779 1.121977 0.667821
v -0.527186 1.121977 0.667821
v -0.263593 1.121977 0.667821
v -0.263593 1.155330 0.667821
v -0.527186 1.155330 0.667821
v -0.790779 1.155330 0.667821
v -1.054372 1.155330 0.667821
v -1.080161 1.452966 -0.653169
v -1.292177 1.452966 -0.653169
v -1.292177 1.181164 0.646875
v -1.080161 1.181164 0.646875
v -0.025789 1.452965 -0.653169
v -0.237804 1.452965 -0.653169
v -0.237804 1.181164 0.646875
v -0.025789 1.181164 0.646875
v -0.289382 1.452966 -0.653169
v -0.501397 1.452966 -0.653169
v -0.501397 1.181164 0.646875
v -0.289382 1.181164 0.646875
v -0.552975 1.452965 -0.653169
v -0.764990 1.452965 -0.653169
v -0.764991 1.181164 0.646875
v -0.552975 1.181164 0.646875
v -0.816568 1.452966 -0.653169
v -1.028584 1.452966 -0.653169
v -1.028584 1.181164 0.646875
v -0.816568 1.181164 0.646875
vn -1.0000 -0.0000 -0.0000
vn -0.0000 -0.0000 -1.0000
vn 1.0000 -0.0000 -0.0000
vn -0.0000 -0.0000 1.0000
vn -0.0000 -0.9792 -0.2030
vn -0.0000 0.9788 0.2046
vn -0.0000 0.9376 -0.3478
vn -0.6522 0.7422 0.1545
vn -0.0000 0.6298 0.7768
vn 0.6522 0.7422 0.1545
vt 0.045628 0.668565
vt 0.045628 0.679416
vt 0.488794 0.771278
vt 0.488794 0.760427
vt 0.394671 0.760427
vt 0.394671 0.771278
vt 0.480428 0.771278
vt 0.480428 0.760427
vt 0.137400 0.668565
vt 0.137400 0.679416
vt 0.051643 0.679416
vt 0.051643 0.668565
vt 0.394671 0.947652
vt 0.480428 0.947652
vt 0.480428 0.504486
vt 0.394671 0.504486
vt 0.129010 0.934255
vt 0.060033 0.934255
vt 0.060033 0.511300
vt 0.129010 0.511300
vt 0.472038 0.934255
vt 0.403061 0.934255
vt 0.403061 0.511300
vt 0.472038 0.511300
vt 0.386281 0.934255
vt 0.317304 0.934255
vt 0.317304 0.511300
vt 0.386281 0.511300
vt 0.300524 0.934255
vt 0.231547 0.934255
vt 0.231547 0.511300
vt 0.300524 0.511300
vt 0.214767 0.934255
vt 0.145790 0.934255
vt 0.145790 0.511300
vt 0.214767 0.511300
vt 0.051643 0.947652
vt 0.137400 0.947652
vt 0.137400 0.504486
vt 0.051643 0.504486
vt 0.223157 0.947652
vt 0.223157 0.504486
vt 0.308914 0.947652
vt 0.308914 0.504486
vt 0.480428 0.668565
vt 0.480428 0.679416
vt 0.394671 0.679416
vt 0.394671 0.668565
vt 0.308914 0.679416
vt 0.308914 0.668565
vt 0.223157 0.679416
vt 0.223157 0.668565
vt 0.051643 0.760427
vt 0.051643 0.771278
vt 0.137400 0.771278
vt 0.137400 0.760427
vt 0.223157 0.771278
vt 0.223157 0.760427
vt 0.308914 0.771278
vt 0.308914 0.760427
vt 0.129010 0.687821
vt 0.060033 0.687821
vt 0.472038 0.687821
vt 0.403061 0.687821
vt 0.308914 0.947652
vt 0.308914 0.504486
vt 0.386281 0.687821
vt 0.317304 0.687821
vt 0.300524 0.687821
vt 0.231547 0.687821
vt 0.214767 0.687821
vt 0.145790 0.687821
s 0
usemtl BlackMetal
f 1/1/1 2/2/1 4/3/1 3/4/1
f 9/5/2 16/6/2 8/7/2 7/8/2
f 7/4/3 8/3/3 6/2/3 5/1/3
f 17/9/4 24/10/4 2/11/4 1/12/4
f 9/13/5 7/14/5 5/15/5 20/16/5
f 25/17/6 26/18/6 27/19/6 28/20/6
f 29/21/6 30/22/6 31/23/6 32/24/6
f 33/25/6 34/26/6 35/27/6 36/28/6
f 37/29/6 38/30/6 39/31/6 40/32/6
f 41/33/6 42/34/6 43/35/6 44/36/6
f 3/37/5 12/38/5 17/39/5 1/40/5
f 12/38/5 11/41/5 18/42/5 17/39/5
f 11/41/5 10/43/5 19/44/5 18/42/5
f 10/43/5 9/13/5 20/16/5 19/44/5
f 5/45/4 6/46/4 21/47/4 20/48/4
f 20/48/4 21/47/4 22/49/4 19/50/4
f 19/50/4 22/49/4 23/51/4 18/52/4
f 18/52/4 23/51/4 24/10/4 17/9/4
f 3/53/2 4/54/2 13/55/2 12/56/2
f 12/56/2 13/55/2 14/57/2 11/58/2
f 11/58/2 14/57/2 15/59/2 10/60/2
f 10/60/2 15/59/2 16/6/2 9/5/2
f 13/38/7 4/37/7 26/18/7 25/17/7
f 4/37/8 2/40/8 27/19/8 26/18/8
f 2/11/9 24/10/9 28/61/9 27/62/9
f 24/39/10 13/38/10 25/17/10 28/20/10
f 8/14/7 16/13/7 30/22/7 29/21/7
f 16/13/8 21/16/8 31/23/8 30/22/8
f 21/47/9 6/46/9 32/63/9 31/64/9
f 6/15/10 8/14/10 29/21/10 32/24/10
f 16/13/7 15/65/7 34/26/7 33/25/7
f 15/65/8 22/66/8 35/27/8 34/26/8
f 22/49/9 21/47/9 36/67/9 35/68/9
f 21/16/10 16/13/10 33/25/10 36/28/10
f 15/65/7 14/41/7 38/30/7 37/29/7
f 14/41/8 23/42/8 39/31/8 38/30/8
f 23/51/9 22/49/9 40/69/9 39/70/9
f 22/66/10 15/65/10 37/29/10 40/32/10
f 14/41/7 13/38/7 42/34/7 41/33/7
f 13/38/8 24/39/8 43/35/8 42/34/8
f 24/10/9 23/51/9 44/71/9 43/72/9
f 23/42/10 14/41/10 41/33/10 44/36/10
f 45/1/1 46/2/1 48/3/1 47/4/1
f 53/5/2 60/6/2 52/7/2 51/8/2
f 51/4/3 52/3/3 50/2/3 49/1/3
f 61/9/4 68/10/4 46/11/4 45/12/4
f 53/13/5 51/14/5 49/15/5 64/16/5
f 69/17/6 70/18/6 71/19/6 72/20/6
f 73/21/6 74/22/6 75/23/6 76/24/6
f 77/25/6 78/26/6 79/27/6 80/28/6
f 81/29/6 82/30/6 83/31/6 84/32/6
f 85/33/6 86/34/6 87/35/6 88/36/6
f 47/37/5 56/38/5 61/39/5 45/40/5
f 56/38/5 55/41/5 62/42/5 61/39/5
f 55/41/5 54/43/5 63/44/5 62/42/5
f 54/43/5 53/13/5 64/16/5 63/44/5
f 49/45/4 50/46/4 65/47/4 64/48/4
f 64/48/4 65/47/4 66/49/4 63/50/4
f 63/50/4 66/49/4 67/51/4 62/52/4
f 62/52/4 67/51/4 68/10/4 61/9/4
f 47/53/2 48/54/2 57/55/2 56/56/2
f 56/56/2 57/55/2 58/57/2 55/58/2
f 55/58/2 58/57/2 59/59/2 54/60/2
f 54/60/2 59/59/2 60/6/2 53/5/2
f 57/38/7 48/37/7 70/18/7 69/17/7
f 48/37/8 46/40/8 71/19/8 70/18/8
f 46/11/9 68/10/9 72/61/9 71/62/9
f 68/39/10 57/38/10 69/17/10 72/20/10
f 52/14/7 60/13/7 74/22/7 73/21/7
f 60/13/8 65/16/8 75/23/8 74/22/8
f 65/47/9 50/46/9 76/63/9 75/64/9
f 50/15/10 52/14/10 73/21/10 76/24/10
f 60/13/7 59/65/7 78/26/7 77/25/7
f 59/65/8 66/66/8 79/27/8 78/26/8
f 66/49/9 65/47/9 80/67/9 79/68/9
f 65/16/10 60/13/10 77/25/10 80/28/10
f 59/65/7 58/41/7 82/30/7 81/29/7
f 58/41/8 67/42/8 83/31/8 82/30/8
f 67/51/9 66/49/9 84/69/9 83/70/9
f 66/66/10 59/65/10 81/29/10 84/32/10
f 58/41/7 57/38/7 86/34/7 85/33/7
f 57/38/8 68/39/8 87/35/8 86/34/8
f 68/10/9 67/51/9 88/71/9 87/72/9
f 67/42/10 58/41/10 85/33/10 88/36/10
